<svg width="342" height="252" viewBox="0 0 342 252" fill="none" xmlns="http://www.w3.org/2000/svg">
<g clip-path="url(#clip0_515_91)">
<path d="M305.026 135.022C303.535 152.252 296.032 168.902 285.327 182.673C284.88 183.249 284.427 183.819 283.969 184.385C282.938 185.657 281.88 186.904 280.796 188.128C279.47 189.636 278.105 191.109 276.701 192.548C275.558 193.732 274.389 194.89 273.193 196.023C272.27 196.907 271.336 197.774 270.392 198.623C259.032 208.898 245.983 217.377 232.537 224.792C206.298 239.259 177.538 250.218 147.623 251.814C117.711 253.405 86.4858 244.83 64.5499 224.408C34.9864 196.887 26.7355 150.984 38.7383 112.4C46.7215 86.7309 63.0156 63.5094 85.1912 48.343C107.175 33.3085 134.909 26.5413 161.156 30.9648C182.109 18.2181 209.539 17.9742 232.318 27.4092C244.472 32.4447 255.38 39.9319 264.95 48.9789C269.332 53.1308 273.433 57.5709 277.224 62.2695C277.612 62.7455 277.995 63.2254 278.375 63.7094C279.965 65.7212 281.504 67.7743 282.99 69.8687C285.124 72.8724 287.149 75.9428 289.067 79.0798C289.595 79.9437 290.118 80.8116 290.63 81.6875C290.973 82.2754 291.321 82.8674 291.66 83.4633C291.668 83.4756 291.674 83.4891 291.676 83.5033C296.995 92.8663 301.342 102.857 303.607 113.3C304.007 115.148 304.342 117.004 304.602 118.876V118.88C304.83 120.467 305.002 122.063 305.118 123.667C305.391 127.448 305.36 131.245 305.026 135.022V135.022Z" fill="#3F3D56"/>
<path opacity="0.3" d="M226.968 161.07L167.649 111.604L225.277 163.052C225.388 163.24 225.543 163.399 225.728 163.515C225.913 163.631 226.123 163.702 226.341 163.721C226.559 163.739 226.778 163.706 226.98 163.623C227.183 163.54 227.362 163.41 227.504 163.243C227.646 163.077 227.747 162.879 227.797 162.666C227.847 162.453 227.846 162.231 227.794 162.019C227.742 161.807 227.639 161.61 227.496 161.445C227.352 161.28 227.171 161.151 226.968 161.07V161.07Z" fill="#F0F0F0"/>
<path d="M90.9329 135.899C110.573 135.899 126.494 119.962 126.494 100.302C126.494 80.643 110.573 64.7061 90.9329 64.7061C71.2931 64.7061 55.3719 80.643 55.3719 100.302C55.3719 119.962 71.2931 135.899 90.9329 135.899Z" fill="#F2F2F2"/>
<path d="M122.498 97.9019C122.499 102.156 121.662 106.369 120.035 110.3C118.409 114.231 116.025 117.802 113.02 120.81C110.014 123.819 106.446 126.205 102.519 127.833C98.5927 129.461 94.384 130.299 90.1338 130.298C86.3455 130.296 82.5866 129.633 79.026 128.339C73.4586 126.308 68.5543 122.788 64.8471 118.161C61.1399 113.534 58.7719 107.978 58.0008 102.097C57.2298 96.2162 58.0853 90.2363 60.4742 84.8085C62.8631 79.3807 66.6938 74.7129 71.5493 71.3133C76.4048 67.9138 82.099 65.9128 88.0118 65.5282C93.9247 65.1436 99.8297 66.3901 105.084 69.1321C110.338 71.8741 114.74 76.0064 117.811 81.0791C120.881 86.1519 122.502 91.9706 122.498 97.9019V97.9019Z" fill="white"/>
<path d="M84.5399 97.1024C90.0567 97.1024 94.529 92.6257 94.529 87.1034C94.529 81.5812 90.0567 77.1045 84.5399 77.1045C79.0231 77.1045 74.5509 81.5812 74.5509 87.1034C74.5509 92.6257 79.0231 97.1024 84.5399 97.1024Z" fill="#E4E4E4"/>
<path d="M121.236 88.9147C119.071 89.9572 116.603 90.1839 114.285 89.5531C111.966 88.9224 109.953 87.4764 108.613 85.4803C107.273 83.4842 106.697 81.0716 106.99 78.6847C107.283 76.2979 108.425 74.0966 110.208 72.4844C115.505 76.6763 119.361 82.421 121.236 88.9147Z" fill="#F2F2F2"/>
<path d="M100.922 112.301C102.908 112.301 104.518 110.689 104.518 108.701C104.518 106.713 102.908 105.102 100.922 105.102C98.9359 105.102 97.3259 106.713 97.3259 108.701C97.3259 110.689 98.9359 112.301 100.922 112.301Z" fill="#E4E4E4"/>
<path d="M86.1382 129.099C86.1379 129.415 86.0963 129.729 86.0143 130.035C83.6283 129.736 81.2838 129.167 79.026 128.339C79.2135 127.47 79.7153 126.702 80.4348 126.181C81.1542 125.661 82.0406 125.425 82.9233 125.519C83.8059 125.614 84.6226 126.031 85.2161 126.692C85.8096 127.353 86.1381 128.21 86.1382 129.099Z" fill="#F2F2F2"/>
<path d="M64.9615 96.3024C64.9613 98.1286 64.2679 99.8865 63.0216 101.22C61.7753 102.554 60.0692 103.364 58.2489 103.486C57.425 98.7313 57.6651 93.8533 58.9521 89.2031C60.631 89.4833 62.1563 90.3505 63.2566 91.6503C64.3569 92.9502 64.961 94.5986 64.9615 96.3024Z" fill="#F2F2F2"/>
<path d="M242.316 84.8659C243.133 84.8659 243.796 84.2029 243.796 83.3851C243.796 82.5673 243.133 81.9043 242.316 81.9043C241.499 81.9043 240.837 82.5673 240.837 83.3851C240.837 84.2029 241.499 84.8659 242.316 84.8659Z" fill="#3B5249"/>
<path d="M228.67 48.8396C229.147 48.8396 229.534 48.4523 229.534 47.9745C229.534 47.4967 229.147 47.1094 228.67 47.1094C228.192 47.1094 227.805 47.4967 227.805 47.9745C227.805 48.4523 228.192 48.8396 228.67 48.8396Z" fill="#F0F0F0"/>
<path d="M90.022 218.422C90.4993 218.422 90.8863 218.034 90.8863 217.557C90.8863 217.079 90.4993 216.691 90.022 216.691C89.5447 216.691 89.1577 217.079 89.1577 217.557C89.1577 218.034 89.5447 218.422 90.022 218.422Z" fill="#F0F0F0"/>
<path d="M233.576 133.489C234.053 133.489 234.44 133.102 234.44 132.624C234.44 132.146 234.053 131.759 233.576 131.759C233.099 131.759 232.712 132.146 232.712 132.624C232.712 133.102 233.099 133.489 233.576 133.489Z" fill="#F0F0F0"/>
<path d="M122.049 141.66C122.866 141.66 123.528 140.997 123.528 140.179C123.528 139.361 122.866 138.698 122.049 138.698C121.232 138.698 120.569 139.361 120.569 140.179C120.569 140.997 121.232 141.66 122.049 141.66Z" fill="#3B5249"/>
<path d="M68.5073 173.568C72.3653 173.568 75.4928 170.437 75.4928 166.575C75.4928 162.714 72.3653 159.583 68.5073 159.583C64.6493 159.583 61.5217 162.714 61.5217 166.575C61.5217 170.437 64.6493 173.568 68.5073 173.568Z" fill="#3B5249"/>
<path d="M106.804 175.226C107.281 175.226 107.668 174.839 107.668 174.361C107.668 173.883 107.281 173.496 106.804 173.496C106.326 173.496 105.939 173.883 105.939 174.361C105.939 174.839 106.326 175.226 106.804 175.226Z" fill="#F0F0F0"/>
<path d="M194.707 40.0408C195.184 40.0408 195.571 39.6535 195.571 39.1757C195.571 38.6979 195.184 38.3105 194.707 38.3105C194.23 38.3105 193.843 38.6979 193.843 39.1757C193.843 39.6535 194.23 40.0408 194.707 40.0408Z" fill="#F0F0F0"/>
<path d="M143.164 224.422C143.641 224.422 144.028 224.034 144.028 223.557C144.028 223.079 143.641 222.691 143.164 222.691C142.686 222.691 142.299 223.079 142.299 223.557C142.299 224.034 142.686 224.422 143.164 224.422Z" fill="#F0F0F0"/>
<path d="M130.378 48.0398C130.855 48.0398 131.242 47.6525 131.242 47.1747C131.242 46.6969 130.855 46.3096 130.378 46.3096C129.9 46.3096 129.513 46.6969 129.513 47.1747C129.513 47.6525 129.9 48.0398 130.378 48.0398Z" fill="#F0F0F0"/>
<path d="M152.753 90.035C153.23 90.035 153.617 89.6476 153.617 89.1698C153.617 88.692 153.23 88.3047 152.753 88.3047C152.276 88.3047 151.889 88.692 151.889 89.1698C151.889 89.6476 152.276 90.035 152.753 90.035Z" fill="#F0F0F0"/>
<path d="M118.502 193.083C118.98 193.083 119.367 192.695 119.367 192.218C119.367 191.74 118.98 191.353 118.502 191.353C118.025 191.353 117.638 191.74 117.638 192.218C117.638 192.695 118.025 193.083 118.502 193.083Z" fill="#F0F0F0"/>
<path d="M219.591 198.682C220.069 198.682 220.456 198.295 220.456 197.817C220.456 197.339 220.069 196.952 219.591 196.952C219.114 196.952 218.727 197.339 218.727 197.817C218.727 198.295 219.114 198.682 219.591 198.682Z" fill="#F0F0F0"/>
<path d="M174.84 148.287C175.318 148.287 175.705 147.9 175.705 147.422C175.705 146.944 175.318 146.557 174.84 146.557C174.363 146.557 173.976 146.944 173.976 147.422C173.976 147.9 174.363 148.287 174.84 148.287Z" fill="#F0F0F0"/>
<path d="M197.615 89.8934C198.093 89.8934 198.48 89.506 198.48 89.0282C198.48 88.5504 198.093 88.1631 197.615 88.1631C197.138 88.1631 196.751 88.5504 196.751 89.0282C196.751 89.506 197.138 89.8934 197.615 89.8934Z" fill="#F0F0F0"/>
<path d="M239.022 118.765C239.969 118.765 240.736 117.997 240.736 117.049C240.736 116.102 239.969 115.334 239.022 115.334C238.076 115.334 237.308 116.102 237.308 117.049C237.308 117.997 238.076 118.765 239.022 118.765Z" fill="#FF6584"/>
<path d="M169.499 61.9708C170.445 61.9708 171.212 61.2028 171.212 60.2554C171.212 59.308 170.445 58.54 169.499 58.54C168.552 58.54 167.785 59.308 167.785 60.2554C167.785 61.2028 168.552 61.9708 169.499 61.9708Z" fill="#FF6584"/>
<path d="M169.499 179.958C170.445 179.958 171.212 179.19 171.212 178.243C171.212 177.295 170.445 176.527 169.499 176.527C168.552 176.527 167.785 177.295 167.785 178.243C167.785 179.19 168.552 179.958 169.499 179.958Z" fill="#FF6584"/>
<path d="M276.265 188.129C275.598 188.13 274.949 188.348 274.416 188.75C273.883 189.153 273.496 189.718 273.313 190.361C273.232 190.636 273.191 190.922 273.193 191.209V196.024C274.387 194.892 275.557 193.734 276.701 192.548C278.103 191.109 279.468 189.635 280.796 188.129H276.265Z" fill="#3B5249"/>
<path d="M287.145 213.15C281.986 213.15 276.331 212.955 270.181 212.564C238.37 210.542 197.166 203.512 154.158 192.77C111.15 182.027 71.4768 168.855 42.4465 155.68C28.3051 149.262 17.4516 143.187 10.1879 137.623C2.49749 131.733 -0.866389 126.598 0.189279 122.363C2.24622 114.112 20.4594 112.307 35.3762 112.246L35.3813 113.446C14.8966 113.53 2.81161 116.8 1.35247 122.654C-0.506229 130.109 14.6525 141.748 42.9415 154.587C71.9079 167.733 111.508 180.88 154.448 191.606C197.388 202.331 238.516 209.349 270.257 211.367C301.254 213.338 320.099 210.192 321.958 202.737C323.501 196.547 313.328 187.428 293.314 177.06L293.865 175.994C308.407 183.528 325.288 194.333 323.121 203.027C322.065 207.262 316.686 210.212 307.133 211.795C301.687 212.698 294.998 213.15 287.145 213.15Z" fill="#3B5249"/>
<path d="M285.519 123.699C307.697 123.699 325.675 105.703 325.675 83.5034C325.675 61.3039 307.697 43.3076 285.519 43.3076C263.342 43.3076 245.363 61.3039 245.363 83.5034C245.363 105.703 263.342 123.699 285.519 123.699Z" fill="white"/>
<path d="M285.519 42.7073C277.458 42.7073 269.579 45.0999 262.877 49.5826C256.174 54.0653 250.951 60.4367 247.866 67.8912C244.781 75.3456 243.974 83.5483 245.547 91.4619C247.119 99.3754 251.001 106.645 256.701 112.35C262.4 118.055 269.662 121.941 277.568 123.515C285.474 125.089 293.668 124.281 301.115 121.193C308.562 118.106 314.928 112.877 319.406 106.168C323.884 99.4591 326.274 91.5716 326.274 83.503C326.294 78.1402 325.253 72.8266 323.211 67.8684C321.17 62.9101 318.169 58.4051 314.38 54.6131C310.592 50.821 306.092 47.8167 301.138 45.7734C296.185 43.73 290.876 42.688 285.519 42.7073V42.7073ZM285.519 123.099C277.695 123.099 270.048 120.777 263.543 116.426C257.038 112.075 251.968 105.891 248.974 98.6557C245.98 91.4205 245.196 83.4591 246.723 75.7782C248.249 68.0974 252.016 61.0421 257.548 55.5045C263.08 49.9669 270.129 46.1958 277.802 44.668C285.475 43.1402 293.429 43.9243 300.657 46.9212C307.885 49.9181 314.063 54.9932 318.409 61.5047C322.756 68.0162 325.076 75.6717 325.076 83.503C325.096 88.7085 324.086 93.8664 322.106 98.6796C320.125 103.493 317.212 107.866 313.535 111.547C309.858 115.227 305.489 118.143 300.681 120.126C295.872 122.109 290.719 123.119 285.519 123.099V123.099Z" fill="#2F2E41"/>
<path d="M250.28 93.131C250.096 93.1308 249.918 93.0671 249.775 92.9507C249.633 92.8343 249.535 92.6723 249.498 92.492C248.349 86.6354 248.557 80.5931 250.104 74.8292C251.651 69.0652 254.498 63.7328 258.424 59.2414C258.566 59.0838 258.763 58.9887 258.975 58.9768C259.186 58.965 259.393 59.0375 259.551 59.1783C259.709 59.3191 259.804 59.5169 259.817 59.7282C259.829 59.9396 259.758 60.1472 259.618 60.3057C255.855 64.6099 253.127 69.7199 251.644 75.2435C250.161 80.7671 249.963 86.5574 251.063 92.1698C251.087 92.2861 251.085 92.4063 251.056 92.5216C251.028 92.6369 250.974 92.7444 250.899 92.8365C250.824 92.9285 250.73 93.0026 250.623 93.0536C250.515 93.1045 250.398 93.131 250.28 93.131H250.28Z" fill="#2F2E41"/>
<path d="M285.494 120.847C299.59 120.847 311.017 109.409 311.017 95.2991C311.017 81.1893 299.59 69.751 285.494 69.751C271.398 69.751 259.971 81.1893 259.971 95.2991C259.971 109.409 271.398 120.847 285.494 120.847Z" fill="#3B5249"/>
<path d="M277.382 104.945C275.728 104.899 273.669 104.841 272.083 103.682C271.61 103.322 271.222 102.863 270.946 102.338C270.669 101.812 270.51 101.233 270.481 100.639C270.452 100.218 270.522 99.7953 270.683 99.4048C270.845 99.0144 271.094 98.6666 271.412 98.3887C272.241 97.6879 273.451 97.5235 274.754 97.907L273.403 88.0256L274.395 87.8896L275.983 99.5065L275.155 99.1261C274.195 98.6854 272.877 98.4611 272.058 99.1538C271.857 99.3349 271.701 99.56 271.6 99.8115C271.5 100.063 271.46 100.334 271.481 100.604C271.506 101.046 271.625 101.477 271.83 101.868C272.036 102.26 272.323 102.602 272.673 102.872C273.908 103.775 275.549 103.891 277.41 103.944L277.382 104.945Z" fill="#2F2E41"/>
<path d="M268.499 88.8779H263.109V89.8798H268.499V88.8779Z" fill="#2F2E41"/>
<path d="M285.515 88.8779H280.124V89.8798H285.515V88.8779Z" fill="#2F2E41"/>
<path d="M286.566 127.163H263.431C262.569 127.164 261.742 127.507 261.132 128.117C260.523 128.728 260.18 129.556 260.179 130.419V181.745C260.181 185.224 261.134 188.635 262.934 191.61C264.734 194.585 267.313 197.01 270.392 198.624C271.339 197.776 272.272 196.909 273.193 196.024C274.387 194.892 275.557 193.733 276.701 192.548C278.103 191.108 279.468 189.635 280.796 188.129C281.883 186.905 282.941 185.657 283.969 184.385C284.428 183.821 284.881 183.251 285.327 182.673C296.032 168.903 303.535 152.252 305.026 135.022C302.636 132.535 299.769 130.557 296.597 129.207C293.425 127.856 290.013 127.161 286.566 127.163Z" fill="#2F2E41"/>
<path d="M287.409 137.874C286.859 137.335 286.207 136.91 285.492 136.624C284.777 136.337 284.012 136.196 283.242 136.207C281.903 136.217 280.609 136.692 279.582 137.551C279.417 137.684 279.261 137.827 279.114 137.978L260.179 157.416L246.446 171.515C246.238 171.725 246.065 171.969 245.935 172.235C245.729 172.647 245.623 173.102 245.627 173.563C245.631 173.942 245.71 174.316 245.86 174.664C246.009 175.012 246.226 175.327 246.498 175.591L247.037 176.118L250.953 179.938L250.957 179.934C251.483 180.362 252.142 180.592 252.819 180.586C253.198 180.582 253.571 180.503 253.919 180.353C254.267 180.203 254.581 179.986 254.845 179.714L255.48 179.066L260.027 174.399L260.179 174.243L287.513 146.182C288.599 145.066 289.199 143.564 289.179 142.007C289.16 140.449 288.523 138.962 287.409 137.874L287.409 137.874Z" fill="#3B5249"/>
<path d="M287.217 83.38C288.061 81.5936 287.195 79.6854 285.713 78.5442C283.845 77.1062 281.429 77.344 279.304 78.0247C276.978 78.7699 274.704 80.1109 272.19 80.0338C271.295 80.0178 270.424 79.7313 269.694 79.2119C268.964 78.6925 268.407 77.9645 268.097 77.1231C266.751 73.6678 268.271 69.8059 270.614 67.1854C271.937 65.6847 273.572 64.4922 275.404 63.6917C277.236 62.8911 279.222 62.5019 281.22 62.5515C283.502 62.6648 285.72 63.3414 287.676 64.5209C289.633 65.7005 291.268 67.3463 292.435 69.3118C292.518 69.446 292.65 69.5431 292.802 69.5832C292.955 69.6232 293.117 69.6031 293.255 69.527C295.033 68.7312 296.952 68.2962 298.899 68.2472C300.846 68.1981 302.784 68.536 304.6 69.2413C307.325 70.353 309.647 72.268 311.258 74.732C312.87 77.196 313.694 80.0925 313.622 83.0366C313.602 83.809 314.801 83.8086 314.821 83.0366C314.896 78.9206 313.378 74.935 310.586 71.9128C309.168 70.4059 307.463 69.1988 305.571 68.3629C303.679 67.527 301.639 67.0793 299.571 67.0462C297.185 66.9954 294.818 67.4895 292.65 68.491L293.47 68.7062C292.39 66.8857 290.938 65.3134 289.21 64.0918C287.482 62.8701 285.517 62.0264 283.442 61.6157C281.387 61.2319 279.273 61.295 277.245 61.8007C275.216 62.3064 273.32 63.2428 271.685 64.5465C268.608 66.9571 266.276 70.6979 266.421 74.7097C266.484 76.4457 266.999 78.2278 268.203 79.5214C269.745 81.1784 272.048 81.465 274.175 81.0405C277.002 80.4762 279.583 78.6149 282.53 78.6723C283.108 78.6726 283.678 78.7957 284.205 79.0332C284.731 79.2707 285.201 79.6174 285.584 80.0502C286.233 80.7835 286.624 81.8382 286.182 82.7745C285.854 83.4687 286.887 84.0784 287.217 83.3801L287.217 83.38Z" fill="#2F2E41"/>
<path d="M95.9202 227.719C81.6962 227.719 68.4726 227.231 56.6344 226.245C41.1608 224.956 28.8991 222.884 20.1903 220.087C10.9698 217.125 6.07809 213.421 5.65102 209.077C4.81873 200.614 21.3673 192.789 35.3965 187.714L35.8038 188.843C16.5383 195.811 6.25349 202.956 6.84385 208.96C7.59575 216.606 25.7799 222.471 56.7337 225.049C88.429 227.689 130.14 226.753 174.184 222.413C218.227 218.074 259.32 210.852 289.893 202.077C319.751 193.508 336.444 184.207 335.692 176.56C335.068 170.211 322.425 165.044 300.094 162.01L300.255 160.821C316.481 163.026 336.008 167.525 336.885 176.443C337.312 180.787 333.235 185.375 324.769 190.079C316.772 194.522 305.149 198.947 290.223 203.231C259.583 212.025 218.414 219.261 174.301 223.608C146.628 226.334 119.863 227.719 95.9202 227.719Z" fill="#3B5249"/>
<path d="M335.014 180.767C338.872 180.767 342 177.637 342 173.775C342 169.913 338.872 166.782 335.014 166.782C331.156 166.782 328.029 169.913 328.029 173.775C328.029 177.637 331.156 180.767 335.014 180.767Z" fill="#3B5249"/>
<path d="M132.437 13.985C136.295 13.985 139.423 10.8543 139.423 6.99249C139.423 3.13064 136.295 0 132.437 0C128.579 0 125.452 3.13064 125.452 6.99249C125.452 10.8543 128.579 13.985 132.437 13.985Z" fill="#E6E6E6"/>
<path d="M7.77412 180.368C11.6321 180.368 14.7597 177.237 14.7597 173.375C14.7597 169.513 11.6321 166.383 7.77412 166.383C3.91611 166.383 0.788574 169.513 0.788574 173.375C0.788574 177.237 3.91611 180.368 7.77412 180.368Z" fill="#E6E6E6"/>
<path d="M50.9266 47.6694C53.2883 47.6694 55.2029 45.7529 55.2029 43.3889C55.2029 41.0248 53.2883 39.1084 50.9266 39.1084C48.5649 39.1084 46.6504 41.0248 46.6504 43.3889C46.6504 45.7529 48.5649 47.6694 50.9266 47.6694Z" fill="#FF6584"/>
<path d="M30.9486 210.052C33.3103 210.052 35.2248 208.136 35.2248 205.772C35.2248 203.408 33.3103 201.491 30.9486 201.491C28.5869 201.491 26.6724 203.408 26.6724 205.772C26.6724 208.136 28.5869 210.052 30.9486 210.052Z" fill="#FF6584"/>
<path d="M322.628 140.06C324.99 140.06 326.904 138.144 326.904 135.78C326.904 133.415 324.99 131.499 322.628 131.499C320.266 131.499 318.352 133.415 318.352 135.78C318.352 138.144 320.266 140.06 322.628 140.06Z" fill="#FF6584"/>
<path d="M257.899 246.361C261.757 246.361 264.885 243.23 264.885 239.368C264.885 235.507 261.757 232.376 257.899 232.376C254.041 232.376 250.914 235.507 250.914 239.368C250.914 243.23 254.041 246.361 257.899 246.361Z" fill="#E6E6E6"/>
</g>
<defs>
<clipPath id="clip0_515_91">
<rect width="342" height="252" fill="white"/>
</clipPath>
</defs>
</svg>
