<svg width="322" height="252" viewBox="0 0 322 252" fill="none" xmlns="http://www.w3.org/2000/svg">
<g clip-path="url(#clip0_513_165)">
<path d="M288.868 246.021C281.647 252.009 272.288 252.31 263.241 251.574C261.978 251.472 260.724 251.351 259.481 251.222C259.474 251.219 259.464 251.22 259.456 251.218C259.397 251.211 259.337 251.205 259.28 251.201C259.023 251.173 258.766 251.146 258.512 251.118L258.572 251.25L258.761 251.659C258.693 251.522 258.625 251.388 258.558 251.251C258.538 251.21 258.515 251.169 258.496 251.128C256.152 246.434 253.828 241.567 253.235 236.207C252.622 230.644 254.344 224.344 258.598 221.61C259.156 221.252 259.747 220.968 260.36 220.761C260.614 220.672 260.872 220.6 261.133 220.536C262.728 220.128 264.389 220.217 265.945 220.793C267.501 221.369 268.895 222.411 269.985 223.813C271.075 225.215 271.82 226.926 272.145 228.77C272.47 230.613 272.362 232.523 271.833 234.303C275.44 230.046 274.767 223.141 273.523 217.369C272.277 211.598 270.767 205.176 273.303 199.992C274.712 197.107 277.191 195.317 279.972 194.596C280.057 194.575 280.143 194.554 280.228 194.535C283.542 193.763 286.987 194.457 289.875 196.481C295.194 200.338 297.925 207.652 298.812 214.817C300.24 226.346 297.079 239.212 288.868 246.021Z" fill="#F2F2F2"/>
<path d="M286.537 227.54C286.327 230.083 285.796 232.577 284.961 234.944C284.192 237.038 283.155 238.989 281.884 240.73C279.242 244.289 275.897 247.065 272.129 248.826C269.279 250.169 266.293 251.093 263.242 251.575C261.978 251.472 260.724 251.352 259.481 251.222C259.474 251.219 259.464 251.22 259.456 251.218C259.397 251.211 259.337 251.205 259.28 251.201C259.023 251.173 258.767 251.146 258.513 251.118L258.573 251.25L258.761 251.659C258.693 251.522 258.626 251.388 258.558 251.251C258.538 251.21 258.516 251.169 258.496 251.128C260.783 248.505 262.491 245.288 263.476 241.749C264.462 238.209 264.695 234.45 264.158 230.785C263.596 227.146 262.295 223.711 260.36 220.761C260.615 220.672 260.872 220.6 261.133 220.536C261.868 221.693 262.513 222.922 263.06 224.21C265.023 228.802 265.65 234 264.846 239.033C264.1 243.588 262.239 247.804 259.484 251.184C259.725 251.165 259.969 251.142 260.207 251.117C264.723 250.677 269.23 249.559 273.325 247.271C276.826 245.362 279.866 242.491 282.176 238.912C284.656 234.974 285.749 230.238 285.937 225.424C286.082 220.238 285.609 215.053 284.534 210.014C283.49 204.876 281.904 199.904 279.812 195.21C279.765 195.103 279.755 194.98 279.785 194.866C279.815 194.752 279.882 194.655 279.972 194.596C280.047 194.538 280.139 194.516 280.228 194.535C280.272 194.548 280.312 194.573 280.346 194.607C280.38 194.64 280.408 194.682 280.426 194.73C280.684 195.31 280.937 195.89 281.181 196.477C283.211 201.365 284.705 206.524 285.63 211.836C286.527 216.961 287.007 222.322 286.537 227.54Z" fill="white"/>
<path d="M13.4343 80.0973C13.2193 80.097 13.0062 80.0507 12.8059 79.9607C12.482 79.8175 12.2037 79.5643 12.0078 79.2346C11.8119 78.905 11.7078 78.5146 11.7093 78.1152V57.4305C11.7086 56.7303 11.4667 56.0591 11.0366 55.564C10.6064 55.0689 10.0233 54.7904 9.41498 54.7896H5.73492C4.21445 54.7876 2.75674 54.0915 1.6816 52.854C0.606465 51.6166 0.00170407 49.9387 0 48.1886V6.60094C0.00170508 4.85086 0.606465 3.17303 1.6816 1.93554C2.75674 0.698048 4.21445 0.0019614 5.73492 0H135.541C137.062 0.00196373 138.519 0.698048 139.594 1.93554C140.67 3.17303 141.274 4.85086 141.276 6.60094V48.1886C141.274 49.9387 140.67 51.6165 139.594 52.854C138.519 54.0915 137.062 54.7876 135.541 54.7896H35.3492C35.0312 54.79 34.7167 54.8663 34.4255 55.0137C34.1344 55.1611 33.873 55.3764 33.6579 55.646L14.6978 79.4533C14.5377 79.6559 14.3426 79.8178 14.1251 79.9287C13.9075 80.0396 13.6722 80.097 13.4343 80.0973ZM5.73492 0.879581C4.41706 0.881293 3.1536 1.48463 2.22172 2.55722C1.28985 3.62981 0.765672 5.08407 0.764183 6.60094V48.1886C0.765673 49.7055 1.28985 51.1598 2.22172 52.2324C3.15359 53.3049 4.41706 53.9083 5.73492 53.91H9.41497C10.2259 53.9111 11.0033 54.2823 11.5767 54.9423C12.1501 55.6023 12.4726 56.4971 12.4735 57.4305V78.1152C12.4735 78.337 12.5317 78.5535 12.6405 78.7365C12.7492 78.9196 12.9035 79.0605 13.083 79.1409C13.2626 79.2213 13.459 79.2373 13.6467 79.187C13.8343 79.1367 14.0043 79.0223 14.1345 78.8589L33.0946 55.0516C33.3814 54.6922 33.7299 54.4053 34.1179 54.2088C34.506 54.0123 34.9253 53.9105 35.3492 53.91H135.541C136.859 53.9083 138.122 53.3049 139.054 52.2324C139.986 51.1598 140.51 49.7055 140.512 48.1886V6.60094C140.51 5.08407 139.986 3.62981 139.054 2.55722C138.122 1.48463 136.859 0.881295 135.541 0.879581H5.73492Z" fill="#CCCCCC"/>
<path d="M14.0671 18.7309C16.8386 18.7309 19.0854 16.1448 19.0854 12.9548C19.0854 9.76475 16.8386 7.17871 14.0671 7.17871C11.2956 7.17871 9.04883 9.76475 9.04883 12.9548C9.04883 16.1448 11.2956 18.7309 14.0671 18.7309Z" fill="#CCCCCC"/>
<path d="M129.686 44.916H11.5895C11.2378 44.9165 10.8894 44.8372 10.5643 44.6826C10.2392 44.528 9.94382 44.3012 9.69495 44.0151C9.44608 43.729 9.24865 43.3892 9.11395 43.0152C8.97925 42.6412 8.90991 42.2403 8.90991 41.8355C8.90991 41.4306 8.97925 41.0297 9.11395 40.6557C9.24865 40.2817 9.44608 39.942 9.69495 39.6559C9.94382 39.3698 10.2392 39.1429 10.5643 38.9883C10.8894 38.8337 11.2378 38.7544 11.5895 38.7549H129.686C130.038 38.7544 130.386 38.8337 130.712 38.9883C131.037 39.1429 131.332 39.3698 131.581 39.6559C131.83 39.942 132.027 40.2817 132.162 40.6557C132.297 41.0297 132.366 41.4306 132.366 41.8355C132.366 42.2403 132.297 42.6412 132.162 43.0152C132.027 43.3892 131.83 43.729 131.581 44.0151C131.332 44.3012 131.037 44.528 130.712 44.6826C130.386 44.8372 130.038 44.9165 129.686 44.916Z" fill="#CCCCCC"/>
<path d="M91.2129 31.8233H11.5895C11.2378 31.8238 10.8894 31.7444 10.5643 31.5898C10.2392 31.4352 9.94382 31.2084 9.69495 30.9223C9.44608 30.6362 9.24865 30.2964 9.11395 29.9224C8.97925 29.5484 8.90991 29.1475 8.90991 28.7427C8.90991 28.3378 8.97925 27.9369 9.11395 27.563C9.24865 27.189 9.44608 26.8492 9.69495 26.5631C9.94382 26.277 10.2392 26.0501 10.5643 25.8955C10.8894 25.741 11.2378 25.6616 11.5895 25.6621H91.2129C91.5646 25.6616 91.913 25.741 92.2381 25.8955C92.5632 26.0501 92.8586 26.277 93.1075 26.5631C93.3563 26.8492 93.5538 27.189 93.6885 27.563C93.8232 27.9369 93.8925 28.3378 93.8925 28.7427C93.8925 29.1475 93.8232 29.5484 93.6885 29.9224C93.5538 30.2964 93.3563 30.6362 93.1075 30.9223C92.8586 31.2084 92.5632 31.4352 92.2381 31.5898C91.913 31.7444 91.5646 31.8238 91.2129 31.8233Z" fill="#CCCCCC"/>
<path d="M13.4343 226.81C13.2193 226.81 13.0062 226.764 12.8059 226.674C12.482 226.53 12.2037 226.277 12.0078 225.947C11.812 225.618 11.7078 225.227 11.7093 224.828V204.143C11.7086 203.443 11.4667 202.772 11.0366 202.277C10.6064 201.782 10.0233 201.503 9.41498 201.502H5.73492C4.21445 201.5 2.75675 200.804 1.68161 199.567C0.606472 198.329 0.00170812 196.652 0 194.902V153.314C0.00170508 151.564 0.606466 149.886 1.6816 148.648C2.75674 147.411 4.21445 146.715 5.73492 146.713H135.541C137.062 146.715 138.519 147.411 139.594 148.648C140.67 149.886 141.274 151.564 141.276 153.314V194.902C141.274 196.652 140.67 198.329 139.594 199.567C138.519 200.804 137.062 201.5 135.541 201.502H35.3492C35.0312 201.503 34.7167 201.579 34.4255 201.727C34.1344 201.874 33.873 202.089 33.6579 202.359L14.6978 226.166C14.5377 226.369 14.3426 226.531 14.1251 226.642C13.9075 226.752 13.6722 226.81 13.4343 226.81ZM5.73492 147.592C4.41706 147.594 3.1536 148.197 2.22172 149.27C1.28985 150.343 0.76567 151.797 0.764183 153.314V194.902C0.765672 196.418 1.28985 197.873 2.22172 198.945C3.15359 200.018 4.41706 200.621 5.73492 200.623H9.41497C10.2259 200.624 11.0033 200.995 11.5767 201.655C12.1501 202.315 12.4726 203.21 12.4735 204.143V224.828C12.4735 225.05 12.5317 225.266 12.6405 225.449C12.7492 225.632 12.9035 225.773 13.083 225.854C13.2626 225.934 13.459 225.95 13.6467 225.9C13.8343 225.85 14.0043 225.735 14.1345 225.572L33.0946 201.764C33.3814 201.405 33.7299 201.118 34.1179 200.922C34.506 200.725 34.9253 200.623 35.3492 200.623H135.541C136.859 200.621 138.122 200.018 139.054 198.945C139.986 197.873 140.51 196.418 140.512 194.902V153.314C140.51 151.797 139.986 150.343 139.054 149.27C138.122 148.198 136.859 147.594 135.541 147.592L5.73492 147.592Z" fill="#CCCCCC"/>
<path d="M205.123 150.566C204.885 150.566 204.65 150.508 204.432 150.397C204.215 150.287 204.02 150.125 203.86 149.922L184.9 126.115C184.684 125.845 184.423 125.63 184.132 125.482C183.841 125.335 183.526 125.259 183.208 125.258H83.0164C81.4959 125.256 80.0382 124.56 78.9631 123.323C77.888 122.085 77.2832 120.407 77.2815 118.657V77.0697C77.2832 75.3196 77.888 73.6418 78.9631 72.4043C80.0382 71.1668 81.4959 70.4707 83.0164 70.4688H212.823C214.343 70.4707 215.801 71.1668 216.876 72.4043C217.951 73.6418 218.556 75.3196 218.557 77.0697V118.657C218.556 120.407 217.951 122.085 216.876 123.323C215.801 124.56 214.343 125.256 212.823 125.258H209.142C208.534 125.259 207.951 125.538 207.521 126.033C207.091 126.528 206.849 127.199 206.848 127.899V148.584C206.85 148.983 206.746 149.374 206.55 149.703C206.354 150.033 206.075 150.286 205.752 150.429C205.551 150.519 205.338 150.566 205.123 150.566ZM83.0164 71.3483C81.6985 71.35 80.4351 71.9534 79.5032 73.026C78.5713 74.0985 78.0472 75.5528 78.0457 77.0697V118.657C78.0472 120.174 78.5713 121.628 79.5032 122.701C80.4351 123.774 81.6985 124.377 83.0164 124.379H183.208C183.632 124.379 184.051 124.481 184.44 124.677C184.828 124.874 185.176 125.161 185.463 125.52L204.423 149.328C204.553 149.491 204.723 149.605 204.911 149.656C205.098 149.706 205.295 149.69 205.474 149.61C205.654 149.529 205.808 149.388 205.917 149.205C206.026 149.022 206.084 148.806 206.084 148.584V127.899C206.085 126.966 206.407 126.071 206.981 125.411C207.554 124.751 208.332 124.38 209.142 124.379H212.823C214.14 124.377 215.404 123.774 216.336 122.701C217.268 121.629 217.792 120.174 217.793 118.657V77.0697C217.792 75.5528 217.268 74.0986 216.336 73.026C215.404 71.9534 214.14 71.35 212.823 71.3483L83.0164 71.3483Z" fill="#3F3D56"/>
<path d="M14.0671 165.443C16.8386 165.443 19.0854 162.857 19.0854 159.667C19.0854 156.477 16.8386 153.891 14.0671 153.891C11.2956 153.891 9.04883 156.477 9.04883 159.667C9.04883 162.857 11.2956 165.443 14.0671 165.443Z" fill="#CCCCCC"/>
<path d="M129.686 191.628H11.5895C11.2378 191.628 10.8894 191.549 10.5643 191.395C10.2392 191.24 9.94382 191.013 9.69495 190.727C9.44608 190.441 9.24865 190.101 9.11395 189.727C8.97925 189.353 8.90991 188.952 8.90991 188.547C8.90991 188.143 8.97925 187.742 9.11395 187.368C9.24865 186.994 9.44608 186.654 9.69495 186.368C9.94382 186.082 10.2392 185.855 10.5643 185.7C10.8894 185.546 11.2378 185.466 11.5895 185.467H129.686C130.396 185.467 131.077 185.791 131.579 186.369C132.081 186.947 132.363 187.73 132.363 188.547C132.363 189.364 132.081 190.148 131.579 190.726C131.077 191.303 130.396 191.628 129.686 191.628Z" fill="#CCCCCC"/>
<path d="M91.2129 178.535H11.5895C11.2378 178.536 10.8894 178.456 10.5643 178.302C10.2392 178.147 9.94382 177.92 9.69495 177.634C9.44608 177.348 9.24865 177.008 9.11395 176.634C8.97925 176.26 8.90991 175.859 8.90991 175.455C8.90991 175.05 8.97925 174.649 9.11395 174.275C9.24865 173.901 9.44608 173.561 9.69495 173.275C9.94382 172.989 10.2392 172.762 10.5643 172.607C10.8894 172.453 11.2378 172.374 11.5895 172.374H91.2129C91.5646 172.374 91.913 172.453 92.2381 172.607C92.5632 172.762 92.8586 172.989 93.1075 173.275C93.3563 173.561 93.5538 173.901 93.6885 174.275C93.8232 174.649 93.8925 175.05 93.8925 175.455C93.8925 175.859 93.8232 176.26 93.6885 176.634C93.5538 177.008 93.3563 177.348 93.1075 177.634C92.8586 177.92 92.5632 178.147 92.2381 178.302C91.913 178.456 91.5646 178.536 91.2129 178.535Z" fill="#CCCCCC"/>
<path d="M91.3486 88.8139C94.1201 88.8139 96.3669 86.2278 96.3669 83.0378C96.3669 79.8478 94.1201 77.2617 91.3486 77.2617C88.5771 77.2617 86.3303 79.8478 86.3303 83.0378C86.3303 86.2278 88.5771 88.8139 91.3486 88.8139Z" fill="#3F3D56"/>
<path d="M206.968 114.999H88.871C88.1612 114.999 87.4804 114.674 86.9785 114.097C86.4766 113.519 86.1946 112.735 86.1946 111.918C86.1946 111.101 86.4766 110.318 86.9785 109.74C87.4804 109.162 88.1612 108.838 88.871 108.838H206.968C207.678 108.838 208.358 109.162 208.86 109.74C209.362 110.318 209.644 111.101 209.644 111.918C209.644 112.735 209.362 113.519 208.86 114.097C208.358 114.674 207.678 114.999 206.968 114.999Z" fill="#3B5249"/>
<path d="M168.494 101.906H88.871C88.5193 101.907 88.1709 101.827 87.8458 101.673C87.5207 101.518 87.2253 101.291 86.9764 101.005C86.7276 100.719 86.5301 100.379 86.3954 100.005C86.2607 99.6314 86.1914 99.2305 86.1914 98.8257C86.1914 98.4208 86.2607 98.0199 86.3954 97.646C86.5301 97.272 86.7276 96.9322 86.9764 96.6461C87.2253 96.36 87.5207 96.1332 87.8458 95.9786C88.1709 95.824 88.5193 95.7446 88.871 95.7451H168.494C168.846 95.7446 169.195 95.824 169.52 95.9786C169.845 96.1332 170.14 96.36 170.389 96.6461C170.638 96.9322 170.835 97.272 170.97 97.646C171.105 98.0199 171.174 98.4208 171.174 98.8257C171.174 99.2305 171.105 99.6314 170.97 100.005C170.835 100.379 170.638 100.719 170.389 101.005C170.14 101.291 169.845 101.518 169.52 101.673C169.195 101.827 168.846 101.907 168.494 101.906Z" fill="#3B5249"/>
<path d="M206.917 158.482C207.031 157.849 207.265 157.253 207.602 156.736C207.938 156.218 208.369 155.792 208.865 155.486C209.36 155.181 209.907 155.005 210.468 154.969C211.029 154.934 211.59 155.041 212.111 155.282L221.074 143.427L222.978 151.294L214.174 161.346C213.764 162.327 213.056 163.1 212.184 163.52C211.311 163.94 210.335 163.977 209.441 163.625C208.546 163.272 207.795 162.553 207.33 161.605C206.865 160.658 206.718 159.547 206.917 158.482Z" fill="#FFB8B8"/>
<path d="M256.112 102.85C261.295 102.85 265.497 98.0144 265.497 92.0488C265.497 86.0832 261.295 81.2471 256.112 81.2471C250.929 81.2471 246.728 86.0832 246.728 92.0488C246.728 98.0144 250.929 102.85 256.112 102.85Z" fill="#FFB8B8"/>
<path d="M245.087 240.73L240.403 240.73L238.175 219.933L245.088 219.933L245.087 240.73Z" fill="#FFB8B8"/>
<path d="M246.282 245.956L231.178 245.955V245.735C231.178 244.847 231.33 243.967 231.625 243.146C231.921 242.325 232.354 241.579 232.9 240.951C233.446 240.322 234.094 239.824 234.807 239.484C235.52 239.144 236.285 238.969 237.057 238.969H237.057L246.282 238.969L246.282 245.956Z" fill="#2F2E41"/>
<path d="M259.225 246.447L254.541 246.447L253.892 226.147L259.226 225.65L259.225 246.447Z" fill="#FFB8B8"/>
<path d="M260.419 251.674L245.315 251.673V251.453C245.315 250.565 245.467 249.685 245.763 248.864C246.058 248.043 246.491 247.297 247.037 246.668C247.583 246.04 248.231 245.542 248.944 245.202C249.658 244.862 250.422 244.686 251.194 244.687H251.195L260.42 244.687L260.419 251.674Z" fill="#2F2E41"/>
<path d="M257.892 242.652L254.245 242.157C253.831 242.1 253.449 241.873 253.17 241.517C252.891 241.16 252.733 240.7 252.726 240.22L252.043 185.537C252.041 185.383 251.992 185.234 251.904 185.116C251.816 184.999 251.695 184.921 251.563 184.896C251.43 184.871 251.294 184.9 251.178 184.979C251.062 185.058 250.974 185.181 250.929 185.327L245.868 201.775L246.23 232.605C246.236 233.114 246.072 233.606 245.771 233.979C245.47 234.352 245.056 234.577 244.615 234.607L239.852 234.84C239.417 234.868 238.988 234.706 238.652 234.386C238.315 234.066 238.097 233.612 238.039 233.114L235.552 198.238L235.551 198.216L239.325 161.793L267.669 164.153L259.801 240.918C259.751 241.399 259.55 241.843 259.236 242.164C258.921 242.486 258.515 242.665 258.094 242.666C258.027 242.666 257.959 242.661 257.892 242.652Z" fill="#2F2E41"/>
<path d="M239.446 165.022C239.191 164.865 238.975 164.637 238.818 164.359C238.661 164.081 238.567 163.761 238.546 163.43C238.546 163.43 241.095 145.186 242.029 144.844L239.985 125.333C239.74 122.953 239.911 120.542 240.487 118.239C241.063 115.936 242.033 113.789 243.34 111.924C244.599 110.114 246.163 108.617 247.938 107.522C249.713 106.427 251.663 105.758 253.669 105.555C253.954 105.525 254.238 105.502 254.521 105.487C256.939 105.338 259.353 105.863 261.557 107.018C263.761 108.172 265.691 109.923 267.181 112.12C268.727 114.335 269.785 116.948 270.266 119.736C270.746 122.524 270.634 125.404 269.94 128.131L268.794 132.722V164.807C268.792 165.12 268.727 165.429 268.604 165.708C268.48 165.987 268.302 166.229 268.082 166.414C264.513 169.429 260.48 170.495 256.56 170.495C249.143 170.495 242.133 166.678 239.446 165.022Z" fill="#3B5249"/>
<path d="M217.441 159.15L212.511 154.907C212.318 154.74 212.157 154.529 212.039 154.286C211.922 154.043 211.85 153.775 211.828 153.498C211.807 153.221 211.836 152.942 211.914 152.679C211.993 152.416 212.118 152.176 212.283 151.972L241.652 115.701C242.595 114.547 243.866 113.82 245.234 113.652C246.603 113.485 247.978 113.888 249.111 114.788L249.111 114.788C249.801 115.342 250.376 116.064 250.796 116.903C251.216 117.742 251.471 118.677 251.541 119.642C251.611 120.606 251.496 121.577 251.203 122.485C250.91 123.393 250.447 124.215 249.846 124.893L219.675 158.977C219.41 159.28 219.066 159.474 218.696 159.53C218.326 159.586 217.95 159.502 217.626 159.289C217.562 159.247 217.5 159.201 217.441 159.15Z" fill="#3B5249"/>
<path d="M255.172 154.348C255.388 153.751 255.714 153.216 256.129 152.78C256.544 152.344 257.036 152.017 257.572 151.824C258.109 151.631 258.675 151.576 259.232 151.662C259.788 151.748 260.322 151.973 260.795 152.322L271.526 142.605L272.118 150.744L261.837 158.723C261.275 159.599 260.453 160.206 259.528 160.431C258.602 160.656 257.638 160.482 256.816 159.943C255.995 159.404 255.374 158.536 255.071 157.505C254.768 156.474 254.804 155.351 255.172 154.348Z" fill="#FFB8B8"/>
<path d="M264.778 158.141C264.493 158.039 264.237 157.854 264.035 157.603C263.832 157.353 263.69 157.045 263.622 156.712L262.538 151.471C262.459 151.099 262.476 150.709 262.588 150.348C262.701 149.987 262.902 149.672 263.169 149.443L270.463 140.364L259.734 121.323C258.922 120.172 258.464 118.743 258.432 117.261C258.401 115.779 258.796 114.327 259.558 113.131C260.165 112.178 260.98 111.427 261.92 110.953C262.861 110.48 263.893 110.301 264.913 110.435C265.933 110.568 266.904 111.01 267.728 111.715C268.552 112.419 269.199 113.362 269.605 114.448L279.579 136.794C280.57 139.014 280.818 141.576 280.274 143.993C279.729 146.409 278.432 148.511 276.629 149.897L266.436 157.734C266.124 158.056 265.719 158.234 265.301 158.234C265.123 158.234 264.947 158.203 264.778 158.141Z" fill="#3B5249"/>
<path d="M263.066 101.705C262.845 101.858 262.596 101.95 262.339 101.974C262.082 101.998 261.824 101.954 261.584 101.845C261.344 101.736 261.129 101.565 260.956 101.345C260.783 101.125 260.656 100.862 260.585 100.577L260.579 100.55C260.388 99.6511 260.539 98.7105 260.588 97.7869C260.638 96.8634 260.555 95.8497 260.005 95.1743C258.981 93.9152 257.172 94.5972 255.698 94.2863C254.835 94.07 254.069 93.499 253.545 92.68C253.021 91.861 252.774 90.8503 252.851 89.8369C252.871 89.6449 252.903 89.4526 252.939 89.2604C253.029 88.7734 253.019 88.269 252.911 87.7869C252.803 87.3049 252.6 86.8581 252.316 86.4819C252.033 86.1056 251.678 85.81 251.279 85.6183C250.879 85.4266 250.447 85.3441 250.016 85.3771C248.528 85.4842 246.924 86.013 245.687 84.752C245.233 84.2543 244.917 83.614 244.777 82.9107C244.638 82.2075 244.681 81.4725 244.902 80.7975C245.595 78.4576 247.576 77.2226 249.539 76.5383C251.967 75.7146 254.524 75.524 257.024 75.9803C259.524 76.4367 261.905 77.5286 263.992 79.1766C265.239 80.1766 266.404 81.4355 266.941 83.0716C267.478 84.7077 267.233 86.7775 266.044 87.867C266.974 88.9889 267.632 90.3725 267.952 91.8792C268.272 93.3859 268.242 94.9629 267.865 96.452C267.285 98.6422 264.481 100.756 263.066 101.705Z" fill="#2F2E41"/>
<path d="M322 251.56C322 251.676 321.959 251.788 321.888 251.871C321.816 251.953 321.719 251.999 321.618 252H176.041C175.94 252 175.843 251.953 175.771 251.871C175.699 251.788 175.659 251.677 175.659 251.56C175.659 251.443 175.699 251.331 175.771 251.249C175.843 251.166 175.94 251.12 176.041 251.12H321.618C321.719 251.12 321.816 251.167 321.888 251.249C321.959 251.332 322 251.443 322 251.56Z" fill="#3F3D56"/>
</g>
<defs>
<clipPath id="clip0_513_165">
<rect width="322" height="252" fill="white"/>
</clipPath>
</defs>
</svg>
