<svg width="103" height="105" viewBox="0 0 103 105" fill="none" xmlns="http://www.w3.org/2000/svg">
<path d="M103 49.5C103 76.8381 79.9427 99 51.5 99C23.0573 99 0 76.8381 0 49.5C0 22.1619 23.0573 0 51.5 0C79.9427 0 103 22.1619 103 49.5Z" fill="#3B5249"/>
<g clip-path="url(#clip0_551_44)">
<path fill-rule="evenodd" clip-rule="evenodd" d="M34.2026 26.9448H68.8541C63.6695 25.552 58.1913 24.4276 51.5088 24.4108C45.7922 24.385 40.0265 25.1745 34.2026 26.9448Z" fill="#1F1F1F"/>
<path fill-rule="evenodd" clip-rule="evenodd" d="M31.0028 26.926H33.8561C33.7669 26.9557 33.7168 27.0548 33.7439 27.1489C33.7709 27.243 33.8671 27.2975 33.9583 27.2688L34.0144 27.2519C34.373 27.141 34.1757 27.032 34.5434 26.926C45.5148 23.4004 58.9698 23.7035 68.5787 26.926C68.9464 27.032 68.6288 27.141 68.9864 27.2519L69.0435 27.2688C69.1347 27.2975 69.2299 27.243 69.2579 27.1489C69.284 27.0548 69.2339 26.9557 69.1447 26.926H71.998C72.1704 26.9854 72.3417 27.0459 72.511 27.1063L72.5661 27.1251L72.5831 27.1301L72.5861 27.1321C72.6753 27.1756 72.7845 27.14 72.8296 27.0508L73.7453 25.235L73.7463 25.233C73.7894 25.1439 73.7513 25.0369 73.6611 24.9933L73.597 24.9636C73.586 24.9547 73.574 24.9477 73.5589 24.9418L73.4738 24.9061L73.4237 24.8843C73.1602 24.7684 72.8977 24.6664 72.6382 24.5663L72.6082 24.5544L73.4578 22.1472L74.0639 22.3582C74.1551 22.3929 74.2582 22.3503 74.2953 22.2601L74.9055 20.8217L74.9085 20.8138C74.9435 20.7207 74.8944 20.6177 74.8003 20.584C74.4867 20.4701 74.1741 20.3591 73.8625 20.2511L75.211 14.6422L75.4695 14.7254L75.5096 14.7383C75.5817 14.7621 75.6609 14.7254 75.6889 14.6561L76.2319 13.5495C76.267 13.4782 76.2369 13.392 76.1648 13.3573L76.1418 13.3484L75.219 13.0502C75.1429 13.0255 75.0607 13.0671 75.0357 13.1424L74.9345 13.4495L74.4446 13.291L74.5458 12.9829C74.5708 12.9076 74.5288 12.8264 74.4526 12.8026L74.4486 12.8016L73.5429 12.5084C73.4668 12.4836 73.3846 12.5252 73.3606 12.6005L73.2584 12.9076L72.8076 12.761L72.9087 12.4539C72.9338 12.3786 72.8927 12.2974 72.8166 12.2736L72.8116 12.2716L71.8898 11.9734L71.8688 11.9685C71.8618 11.9655 71.8538 11.9635 71.8448 11.9615C71.8317 11.9596 71.8187 11.9596 71.8067 11.9625L70.5143 12.2181C70.4612 12.229 70.4251 12.2766 70.4271 12.3291L70.3951 13.5901C70.3941 13.6367 70.4231 13.6773 70.4642 13.6932L69.7609 14.8542C69.5034 14.765 69.2559 14.6798 69.0155 14.6006C68.6137 14.4668 68.232 14.348 67.8583 14.241L68.0587 12.5549L68.3262 12.6094L68.3673 12.6173C68.4394 12.6312 68.5096 12.5906 68.5336 12.5242L68.9454 11.3533C68.9724 11.279 68.9313 11.1968 68.8562 11.171C68.8472 11.1681 68.8372 11.1661 68.8281 11.1641L67.8814 10.9739C67.8032 10.959 67.7261 11.0086 67.7111 11.0868L67.6459 11.4028L67.139 11.3018L67.2051 10.9838C67.2202 10.9065 67.1691 10.8312 67.0909 10.8154L67.0869 10.8144L66.1522 10.6272C66.075 10.6123 65.9979 10.6618 65.9819 10.7401L65.9167 11.0561L65.4519 10.963L65.517 10.645C65.533 10.5677 65.4819 10.4924 65.4038 10.4766L65.3998 10.4756L64.448 10.2854C64.435 10.2824 64.422 10.2814 64.4099 10.2824C64.3939 10.2804 64.3779 10.2814 64.3608 10.2874L63.2107 10.6767C63.1666 10.6916 63.1356 10.7342 63.1376 10.7827L63.1887 12.0656C63.1897 12.0755 63.1907 12.0864 63.1937 12.0963C63.2057 12.13 63.2337 12.1537 63.2658 12.1636L62.8671 13.0869C62.6727 13.0502 62.4613 13.0156 62.2399 12.9829C61.8782 12.9284 61.4855 12.8779 61.0968 12.8313L61.1178 11.3048L61.3883 11.3305L61.4304 11.3345C61.5035 11.3414 61.5696 11.2929 61.5857 11.2245L61.8722 10.0179C61.8902 9.94066 61.8422 9.86339 61.764 9.84556C61.754 9.84259 61.744 9.8416 61.7339 9.8416L60.7742 9.75046C60.694 9.74352 60.6239 9.80098 60.6159 9.87924L60.5848 10.2012L60.0709 10.1527L60.1019 9.8307C60.1089 9.75145 60.0508 9.6821 59.9707 9.67418H59.9647L59.0189 9.58403C58.9387 9.5771 58.8676 9.63455 58.8606 9.71281L58.8295 10.0348L58.3567 9.99019L58.3877 9.66824C58.3947 9.58899 58.3366 9.51964 58.2565 9.51172H58.2515L57.2857 9.41959C57.2736 9.4186 57.2616 9.41959 57.2496 9.42157C57.2466 9.42058 57.2436 9.42058 57.2396 9.42058C57.2246 9.42157 57.2095 9.42553 57.1965 9.43247L56.2117 9.97236C56.1716 9.99415 56.1516 10.0387 56.1576 10.0833L56.3099 11.3285C56.3159 11.38 56.3539 11.4177 56.4 11.4226L56.1255 12.3816C55.8169 12.3637 55.5494 12.3499 55.293 12.34C54.9283 12.3251 54.5856 12.3172 54.1769 12.3083L54.0747 10.958H54.6678C54.748 10.958 54.8131 10.8936 54.8131 10.8144V8.43985C54.8131 8.36258 54.75 8.29819 54.6708 8.2972L53.6088 8.27244L53.5928 8.27145C53.5117 8.27145 53.4465 8.33584 53.4465 8.41509V9.03819H52.9125V8.14366C52.9125 8.0644 52.8474 7.99902 52.7673 7.99902H50.2346C50.1534 7.99902 50.0883 8.0644 50.0883 8.14366V9.03819H49.5543V8.41509C49.5543 8.33584 49.4892 8.27145 49.409 8.27145L49.392 8.27244L48.33 8.2972C48.2519 8.29819 48.1887 8.36258 48.1887 8.43985L48.1877 10.8144C48.1877 10.8936 48.2529 10.958 48.333 10.958H48.9271L48.8249 12.3093C48.4152 12.3172 48.0735 12.3251 47.7079 12.34C47.4524 12.3499 47.1849 12.3637 46.8753 12.3826L46.6018 11.4217C46.6469 11.4177 46.686 11.38 46.692 11.3285L46.8432 10.0833C46.8493 10.0387 46.8292 9.99415 46.7901 9.97236L45.8043 9.43247C45.7913 9.42553 45.7763 9.42157 45.7612 9.42058C45.7572 9.42058 45.7542 9.42058 45.7502 9.42157C45.7392 9.41959 45.7272 9.4186 45.7151 9.41959L44.7504 9.51172H44.7443C44.6642 9.51964 44.6061 9.58899 44.6141 9.66824L44.6452 9.99019L44.1723 10.0348L44.1412 9.71281C44.1332 9.63455 44.0631 9.5771 43.9829 9.58403L43.0362 9.67418H43.0302C42.951 9.6821 42.8919 9.75145 42.8999 9.8307L42.93 10.1527L42.417 10.2012L42.385 9.87924C42.3779 9.80098 42.3068 9.74352 42.2277 9.75046L41.2679 9.8416C41.2579 9.8416 41.2478 9.84259 41.2378 9.84556C41.1597 9.86339 41.1106 9.94066 41.1286 10.0179L41.4151 11.2245C41.4322 11.2929 41.4983 11.3414 41.5704 11.3345L41.6125 11.3305L41.884 11.3048L41.9041 12.8313C41.5153 12.8779 41.1226 12.9284 40.7609 12.9829C40.5395 13.0156 40.3281 13.0502 40.1348 13.0869L39.736 12.1636C39.7681 12.1537 39.7951 12.13 39.8072 12.0963C39.8102 12.0864 39.8122 12.0755 39.8132 12.0656L39.8643 10.7827C39.8663 10.7342 39.8352 10.6916 39.7901 10.6767L38.64 10.2874C38.624 10.2814 38.6069 10.2804 38.5909 10.2824C38.5789 10.2814 38.5658 10.2824 38.5538 10.2854L37.6021 10.4756L37.598 10.4766C37.5189 10.4924 37.4688 10.5677 37.4838 10.645L37.549 10.963L37.0841 11.0561L37.019 10.7401C37.0029 10.6618 36.9268 10.6123 36.8487 10.6272L35.9149 10.8144L35.9099 10.8154C35.8318 10.8312 35.7807 10.9065 35.7967 10.9838L35.8618 11.3018L35.3559 11.4028L35.2908 11.0868C35.2747 11.0086 35.1986 10.959 35.1204 10.9739L34.1727 11.1641C34.1637 11.1661 34.1546 11.1681 34.1446 11.171C34.0695 11.1968 34.0294 11.279 34.0555 11.3533L34.4682 12.5242C34.4913 12.5906 34.5614 12.6312 34.6335 12.6173L34.6746 12.6094L34.9421 12.5549L35.1435 14.241C34.7698 14.348 34.3881 14.4668 33.9853 14.6006C33.7449 14.6798 33.4974 14.765 33.2409 14.8542L32.5376 13.6922C32.5787 13.6763 32.6078 13.6367 32.6058 13.5901L32.5737 12.3291C32.5767 12.2766 32.5396 12.229 32.4865 12.2181L31.1941 11.9625C31.1821 11.9596 31.1691 11.9596 31.1561 11.9615C31.148 11.9635 31.14 11.9655 31.132 11.9685L31.112 11.9734L30.1893 12.2716L30.1853 12.2736C30.1091 12.2974 30.067 12.3786 30.0921 12.4539L30.1933 12.761L29.7424 12.9076L29.6412 12.6005C29.6162 12.5252 29.534 12.4836 29.4579 12.5084L28.5522 12.8016L28.5482 12.8026C28.4721 12.8264 28.431 12.9076 28.455 12.9829L28.5572 13.291L28.0663 13.4495L27.9651 13.1424C27.9401 13.0671 27.8579 13.0255 27.7818 13.0502L26.8601 13.3484L26.837 13.3573C26.7649 13.392 26.7348 13.4782 26.7689 13.5495L27.3119 14.6561C27.341 14.7254 27.4191 14.7621 27.4922 14.7383L27.5323 14.7254L27.7908 14.6422L29.1393 20.2511C28.8277 20.3591 28.5151 20.4701 28.2006 20.584C28.1074 20.6177 28.0583 20.7207 28.0924 20.8138L28.0954 20.8217L28.7055 22.2601C28.7436 22.3503 28.8468 22.3929 28.9379 22.3582L29.5441 22.1472L30.3926 24.5544L30.3626 24.5663C30.1041 24.6664 29.8426 24.7674 29.5801 24.8833L29.527 24.9061L29.4419 24.9418C29.4278 24.9477 29.4148 24.9547 29.4038 24.9636L29.3397 24.9933C29.2495 25.0369 29.2124 25.1439 29.2555 25.233L29.2565 25.235L30.1722 27.0508C30.2163 27.14 30.3255 27.1756 30.4157 27.1321L30.4187 27.1301L30.4347 27.1251L30.4898 27.1063C30.6601 27.0459 30.8305 26.9854 31.0028 26.926Z" fill="#D1D1D1"/>
<path d="M27.7337 13.3682L27.1035 13.5723L27.5223 14.4272L28.1685 14.2172L28.9349 13.9696L29.8446 13.6753L30.571 13.4406L31.2172 13.2315L31.0439 12.2974L30.4127 12.5014L30.5149 12.8085C30.5389 12.8838 30.4978 12.9651 30.4217 12.9898L29.6953 13.2246C29.6192 13.2494 29.537 13.2078 29.512 13.1325L29.4108 12.8254L28.7766 13.0304L28.8778 13.3385C28.9029 13.4138 28.8608 13.494 28.7846 13.5188L28.0182 13.7665C27.9421 13.7912 27.8599 13.7496 27.8359 13.6743L27.7337 13.3682ZM31.3224 12.2072L31.5227 13.29L32.3853 13.4604L32.3583 12.4133L31.3224 12.2072ZM35.1695 14.4579C34.8079 14.561 34.4402 14.6759 34.0545 14.8047C33.6317 14.9443 33.1858 15.0999 32.7029 15.2732L32.8662 16.349C33.277 16.1985 33.6838 16.0578 34.0845 15.927C34.4883 15.7953 34.894 15.6715 35.2998 15.5546L35.1695 14.4579ZM31.1681 13.5495L33.1037 18.0886L32.8692 16.5769L32.8222 16.5947C32.8131 16.5987 32.8041 16.6007 32.7951 16.6026C32.735 16.6116 32.6799 16.5709 32.6709 16.5125L32.4745 15.2177C32.4665 15.1682 32.4956 15.1187 32.5446 15.1009C32.711 15.0414 32.8733 14.983 33.0315 14.9275L32.2611 13.6555L31.3805 13.4802L31.1681 13.5495ZM42.1104 10.0496L41.4492 10.112L41.6696 11.0373L42.3459 10.9729L43.1494 10.8976L44.1011 10.8065L44.8626 10.7342L45.5398 10.6708L45.5769 9.72074L44.9157 9.78315L44.9467 10.1051C44.9547 10.1844 44.8966 10.2547 44.8165 10.2616L44.0551 10.3339C43.9759 10.3419 43.9048 10.2834 43.8978 10.2052L43.8667 9.8832L43.2015 9.94561L43.2325 10.2686C43.2405 10.3468 43.1814 10.4172 43.1023 10.4241L42.2998 10.5004C42.2206 10.5073 42.1495 10.4498 42.1415 10.3716L42.1104 10.0496ZM35.0353 11.283L34.3841 11.4137L34.7007 12.3112L35.3669 12.1775L36.1574 12.019L37.0951 11.8308L37.8445 11.6802L38.5107 11.5465L38.4476 10.5984L37.7964 10.7292L37.8615 11.0462C37.8776 11.1235 37.8265 11.1998 37.7483 11.2146L36.9989 11.3652C36.9208 11.381 36.8446 11.3305 36.8286 11.2532L36.7635 10.9362L36.1093 11.068L36.1744 11.385C36.1904 11.4623 36.1393 11.5385 36.0612 11.5534L35.2707 11.7119C35.1926 11.7278 35.1164 11.6772 35.1004 11.6L35.0353 11.283ZM39.9364 14.7284L39.8843 14.7383C39.8783 14.7403 39.8723 14.7413 39.8663 14.7422C39.8062 14.7472 39.7531 14.7026 39.749 14.6432L39.6318 13.288H39.6328C39.6278 13.2355 39.6629 13.187 39.716 13.1741C39.7791 13.1592 39.8462 13.1444 39.9164 13.1295L39.4685 12.0933L38.6881 11.8209C38.6781 11.8189 38.669 11.8139 38.66 11.809L38.4246 11.8565L39.9935 17.1871L39.9364 14.7284ZM39.6018 11.911L39.6439 10.855L38.7352 10.5469L38.7592 10.9135L38.8213 11.6396L39.6018 11.911ZM46.6359 10.1299L45.8674 9.70885L45.8304 10.64L45.8274 10.7847L46.5116 11.1512L46.6359 10.1299ZM45.4216 10.9699L46.3433 16.0221L46.4836 13.9765L46.3854 13.9824H46.3794C46.3193 13.9824 46.2712 13.9349 46.2702 13.8754L46.2632 12.5302V12.5292C46.2592 12.4697 46.3042 12.4182 46.3644 12.4143C46.4645 12.4073 46.5617 12.4014 46.6539 12.3954L46.3563 11.3553C46.3513 11.3394 46.3513 11.3236 46.3543 11.3077L45.6801 10.9471L45.6761 10.9452L45.4216 10.9699ZM41.9211 14.1895L41.9061 13.0483C41.5284 13.0938 41.1476 13.1434 40.794 13.1959C40.4413 13.2484 40.1187 13.3038 39.8572 13.3623L39.9554 14.5055C40.2259 14.453 40.5245 14.4015 40.8451 14.35C41.1847 14.2965 41.5444 14.244 41.9211 14.1895ZM34.7848 18.9108C32.723 19.4418 30.6441 20.0877 28.5041 20.8564L28.974 21.9649L29.4369 21.8035L29.4519 21.7975L29.5691 21.7559L29.5801 21.7519C30.4558 21.4448 31.3735 21.1506 32.3262 20.8713C33.2129 20.6117 34.1306 20.3661 35.0723 20.1352L34.7848 18.9108ZM41.3811 17.5903C40.8291 17.6696 40.279 17.7557 39.731 17.8489C38.1952 18.1114 36.6693 18.4343 35.1365 18.8207L35.424 20.05C37.3937 19.5775 39.4525 19.1763 41.5384 18.8623L41.3811 17.5903ZM42.2487 17.1118C42.7456 17.0494 43.2456 16.992 43.7475 16.9405L43.6864 16.2886C43.6613 16.0192 43.8627 15.7794 44.1342 15.7547C44.4057 15.7299 44.6482 15.93 44.6732 16.1975L44.7343 16.8473C45.2132 16.8067 45.6941 16.7711 46.179 16.7403L45.1341 11.0095L43.6533 11.1502L42.1736 11.2909L42.2487 17.1118ZM40.2159 17.4051C40.6437 17.3357 41.0735 17.2713 41.5043 17.2109L41.5163 17.2089L41.5213 17.2079C41.6676 17.1881 41.8139 17.1683 41.9592 17.1495V17.1475L41.9241 14.4064C41.5524 14.4599 41.2017 14.5114 40.8791 14.5629C40.6207 14.6036 40.3762 14.6452 40.1508 14.6878C40.1518 14.6947 40.1528 14.7026 40.1538 14.7096L40.2159 17.4051ZM35.9149 18.261C36.4018 18.146 36.8867 18.0371 37.3726 17.9341L37.2574 17.2792C37.2113 17.0128 37.3937 16.7582 37.6622 16.7126C37.9307 16.667 38.1881 16.8463 38.2342 17.1118L38.3434 17.7379C38.7853 17.6517 39.2271 17.5705 39.6699 17.4952L39.7771 17.4774L38.1441 11.9259L36.6863 12.2191L35.2296 12.5113L35.9149 18.261ZM33.4503 18.8969C33.9242 18.7652 34.3971 18.6384 34.868 18.5185L34.879 18.5156L34.881 18.5146C35.1315 18.4512 35.3809 18.3897 35.6314 18.3293L35.3258 15.7715C34.9361 15.8844 34.5444 16.0043 34.1526 16.1321C33.79 16.25 33.4323 16.3738 33.0776 16.5016C33.0786 16.5056 33.0796 16.5105 33.0806 16.5155L33.4503 18.8969ZM29.4148 20.156C29.8847 19.9946 30.3516 19.839 30.8164 19.6895L30.6161 19.0634C30.5339 18.8068 30.6792 18.5294 30.9387 18.4482C31.1981 18.367 31.4787 18.5106 31.5608 18.7682L31.7602 19.3923C32.2321 19.2476 32.7009 19.1089 33.1688 18.9762L30.8976 13.6506L29.4839 14.1082L28.0713 14.5649L29.4148 20.156ZM39.0297 20.5741C39.7751 20.4304 40.5285 20.2977 41.2889 20.1768L41.2017 19.6013L42.2808 19.4418L42.3669 20.0154C43.2185 19.8935 44.0751 19.7885 44.9347 19.7003L44.8545 18.7999C42.8528 19.0089 40.8451 19.3051 38.8874 19.6756L39.0297 20.5741ZM30.2073 22.9397C30.9787 22.6673 31.7802 22.4048 32.6058 22.1541L32.3082 21.2507C31.4747 21.4974 30.6641 21.7559 29.8847 22.0263L30.2073 22.9397ZM33.1398 23.9759C32.8833 24.0562 32.6288 24.1384 32.3773 24.2216C31.4546 24.5287 30.565 24.8605 29.7164 25.2162L29.7094 25.2192L29.6643 25.239L30.4247 26.7487C31.2703 26.4505 32.1309 26.1632 33.0055 25.8918C33.2359 25.8195 33.4684 25.7491 33.7008 25.6798L33.1398 23.9759ZM38.9345 22.5286C37.6962 22.7703 36.479 23.0457 35.2968 23.3568C34.7157 23.5093 34.1426 23.6708 33.5816 23.8402L34.1436 25.548C34.6796 25.3925 35.2216 25.2409 35.7706 25.0953C36.8917 24.7981 38.0399 24.5247 39.212 24.28L38.9345 22.5286ZM45.0439 21.6341C44.0711 21.7321 43.0953 21.851 42.1255 21.9907C42.1205 21.9917 42.1144 21.9927 42.1094 21.9937L42.1014 21.9946C41.1907 22.1254 40.284 22.275 39.3874 22.4424L39.6639 24.1879C41.4572 23.8273 43.3047 23.5361 45.1952 23.333L45.0439 21.6341ZM36.0672 22.7911C37.9467 22.3295 39.9053 21.954 41.885 21.6638L41.8329 21.2348L41.4572 21.2903L41.342 20.5315C39.5627 20.8138 37.8165 21.1635 36.1333 21.5697L36.3237 22.3473L35.983 22.4285L36.0672 22.7911ZM30.7313 24.4247C31.2292 24.2364 31.7401 24.0562 32.2621 23.8828C33.2119 23.5658 34.1967 23.2755 35.2046 23.01C35.3749 22.9655 35.5442 22.9209 35.7155 22.8783L35.6304 22.5137L35.2647 22.6009L35.0764 21.8342C34.363 22.0184 33.6627 22.2136 32.9785 22.4176C32.0688 22.6891 31.1831 22.9764 30.3295 23.2785L30.3285 23.2775L30.3265 23.2785L30.7313 24.4247ZM51.5059 8.2873H50.3788V9.18184C50.3788 9.26109 50.3137 9.32548 50.2346 9.32548H49.409C49.3289 9.32548 49.2637 9.26109 49.2637 9.18184V8.5617L48.4783 8.57953V10.6698H54.5225V8.57953L53.7381 8.5617V9.18184C53.7381 9.26109 53.6729 9.32548 53.5928 9.32548H52.7673C52.6871 9.32548 52.622 9.26109 52.622 9.18184V8.2873H51.5059ZM47.8681 18.1926L47.8261 17.0138C45.7432 17.097 43.7274 17.2703 41.7408 17.5408L41.898 18.8088C43.8857 18.5195 45.8935 18.3085 47.8681 18.1926ZM48.7207 13.6743L48.8079 12.5242C48.4132 12.5321 48.0795 12.5401 47.7169 12.5549C47.3632 12.5688 46.9805 12.5896 46.4806 12.6223L46.4866 13.7615C46.8783 13.7407 47.231 13.7229 47.5916 13.708C47.9473 13.6932 48.308 13.6823 48.7207 13.6743ZM48.4963 16.6324L48.7047 13.8893C48.306 13.8972 47.9523 13.9081 47.6007 13.923C47.3101 13.9339 47.0186 13.9487 46.703 13.9656L46.5136 16.7195C47.1678 16.6809 47.8281 16.6522 48.4963 16.6324ZM47.9693 21.0427L47.9513 20.5246L47.5726 20.5444L47.5365 19.845C45.8243 19.951 44.1112 20.1293 42.421 20.369L42.5362 21.1308L42.1916 21.1813L42.2447 21.6123C44.1532 21.3428 46.0788 21.1526 47.9693 21.0427ZM48.313 20.5057L48.331 21.0228C49.404 20.9664 50.466 20.9367 51.5049 20.9317C51.6051 20.9317 51.6863 21.011 51.6873 21.11C51.6873 21.2091 51.6071 21.2893 51.5069 21.2903C49.5613 21.2982 47.5395 21.3983 45.5048 21.5895L45.655 23.2854C47.5676 23.0952 49.5222 22.9962 51.5069 23.0091C51.6071 23.0091 51.6873 23.0893 51.6873 23.1884C51.6863 23.2874 51.6051 23.3667 51.5049 23.3667C45.9696 23.333 40.6668 24.1691 35.8638 25.442C34.9271 25.6907 34.0094 25.9562 33.1137 26.2345C32.21 26.5149 31.3354 26.8061 30.4898 27.1063L30.4347 27.1251C30.4297 27.1271 30.4237 27.1291 30.4187 27.1301L30.4157 27.1321C30.3255 27.1756 30.2163 27.14 30.1722 27.0508L29.2565 25.235L29.2555 25.233C29.2124 25.1439 29.2495 25.0369 29.3397 24.9933L29.4038 24.9636C29.4148 24.9547 29.4278 24.9477 29.4419 24.9418L29.527 24.9061L29.5801 24.8833C29.8426 24.7674 30.1041 24.6664 30.3626 24.5663L30.3926 24.5544L29.5441 22.1472L28.9379 22.3582C28.8468 22.3929 28.7436 22.3503 28.7055 22.2601L28.0954 20.8217L28.0924 20.8138C28.0583 20.7207 28.1074 20.6177 28.2006 20.584C28.5151 20.4701 28.8277 20.3591 29.1393 20.2511L27.7908 14.6422L27.5323 14.7254L27.4922 14.7383C27.4191 14.7621 27.341 14.7254 27.3119 14.6561L26.7689 13.5495C26.7348 13.4782 26.7649 13.392 26.837 13.3573C26.845 13.3544 26.8521 13.3514 26.8601 13.3484L27.7818 13.0502C27.8579 13.0255 27.9401 13.0671 27.9651 13.1424L28.0663 13.4495L28.5572 13.291L28.455 12.9829C28.431 12.9076 28.4721 12.8264 28.5482 12.8026L28.5522 12.8016L29.4579 12.5084C29.534 12.4836 29.6162 12.5252 29.6412 12.6005L29.7424 12.9076L30.1933 12.761L30.0921 12.4539C30.067 12.3786 30.1091 12.2974 30.1853 12.2736L30.1893 12.2716L31.112 11.9734C31.119 11.9715 31.125 11.9695 31.132 11.9685C31.14 11.9655 31.148 11.9635 31.1561 11.9615C31.1691 11.9596 31.1821 11.9596 31.1941 11.9625L32.4865 12.2181C32.5396 12.229 32.5767 12.2766 32.5737 12.3291L32.6058 13.5901C32.6078 13.6367 32.5787 13.6763 32.5376 13.6922L33.2409 14.8542C33.4974 14.765 33.7449 14.6798 33.9853 14.6006C34.3881 14.4668 34.7698 14.348 35.1435 14.241L34.9421 12.5549L34.6746 12.6094L34.6335 12.6173C34.5614 12.6312 34.4913 12.5906 34.4682 12.5242L34.0555 11.3533C34.0294 11.279 34.0695 11.1968 34.1446 11.171C34.1546 11.1681 34.1637 11.1661 34.1727 11.1641L35.1204 10.9739C35.1986 10.959 35.2747 11.0086 35.2908 11.0868L35.3559 11.4028L35.8618 11.3018L35.7967 10.9838C35.7807 10.9065 35.8318 10.8312 35.9099 10.8154L35.9149 10.8144L36.8487 10.6272C36.9268 10.6123 37.0029 10.6618 37.019 10.7401L37.0841 11.0561L37.549 10.963L37.4838 10.645C37.4688 10.5677 37.5189 10.4924 37.598 10.4766L37.6021 10.4756L38.5538 10.2854C38.5658 10.2824 38.5789 10.2814 38.5909 10.2824C38.6069 10.2804 38.624 10.2814 38.64 10.2874L39.7901 10.6767C39.8352 10.6916 39.8663 10.7342 39.8643 10.7827L39.8132 12.0656C39.8122 12.0755 39.8102 12.0864 39.8072 12.0963C39.7951 12.13 39.7681 12.1537 39.736 12.1636L40.1348 13.0869C40.3281 13.0502 40.5395 13.0156 40.7609 12.9829C41.1226 12.9284 41.5153 12.8779 41.9041 12.8313L41.884 11.3048L41.6125 11.3305L41.5704 11.3345C41.4983 11.3414 41.4322 11.2929 41.4151 11.2245L41.1286 10.0179C41.1106 9.94066 41.1597 9.86339 41.2378 9.84556C41.2478 9.84259 41.2579 9.8416 41.2679 9.8416L42.2277 9.75046C42.3068 9.74352 42.3779 9.80098 42.3849 9.87924L42.417 10.2012L42.93 10.1527L42.8999 9.8307C42.8919 9.75145 42.951 9.6821 43.0301 9.67418H43.0362L43.9829 9.58403C44.0631 9.5771 44.1332 9.63455 44.1412 9.71281L44.1723 10.0348L44.6452 9.99019L44.6141 9.66824C44.6061 9.58899 44.6642 9.51964 44.7443 9.51172H44.7503L45.7151 9.41959C45.7272 9.4186 45.7392 9.41959 45.7502 9.42157C45.7542 9.42058 45.7572 9.42058 45.7612 9.42058C45.7763 9.42157 45.7913 9.42553 45.8043 9.43247L46.7901 9.97236C46.8292 9.99415 46.8493 10.0387 46.8432 10.0833L46.692 11.3285C46.686 11.38 46.6469 11.4177 46.6018 11.4217L46.8753 12.3826C47.1849 12.3637 47.4524 12.3499 47.7079 12.34C48.0735 12.3251 48.4152 12.3172 48.8249 12.3093L48.9271 10.958H48.333C48.2529 10.958 48.1877 10.8936 48.1877 10.8144V8.43985H48.1887C48.1887 8.36258 48.2519 8.29819 48.33 8.2972L49.392 8.27244C49.397 8.27145 49.403 8.27145 49.409 8.27145C49.4892 8.27145 49.5543 8.33584 49.5543 8.41509V9.03819H50.0883V8.14366C50.0883 8.0644 50.1534 7.99902 50.2346 7.99902H52.7673C52.8474 7.99902 52.9125 8.0644 52.9125 8.14366V9.03819H53.4465V8.41509C53.4465 8.33584 53.5116 8.27145 53.5928 8.27145C53.5978 8.27145 53.6038 8.27145 53.6088 8.27244L54.6708 8.2972C54.75 8.29819 54.8131 8.36258 54.8131 8.43985V10.8144C54.8131 10.8936 54.7479 10.958 54.6678 10.958H49.2187L48.7899 16.6056H49.7376C50.0392 16.6007 50.3428 16.5987 50.6483 16.5987V15.5823C50.6483 15.1187 51.028 14.7393 51.4959 14.7333H51.5059C51.9728 14.7393 52.3535 15.1187 52.3535 15.5823V16.6819H51.6572C51.6762 16.7106 51.6873 16.7453 51.6873 16.782C51.6863 16.881 51.6051 16.9603 51.5039 16.9593C50.3768 16.9494 49.2738 16.9632 48.1887 16.9999L48.2298 18.1718C49.3369 18.1134 50.4319 18.0836 51.5059 18.0876C51.6061 18.0876 51.6873 18.1678 51.6873 18.2669C51.6873 18.365 51.6061 18.4452 51.5059 18.4452C49.4571 18.4393 47.3291 18.5512 45.1912 18.7642L45.2713 19.6667C46.0197 19.5934 46.7691 19.5339 47.5175 19.4874L47.4834 18.8385L48.5735 18.783L48.6065 19.4289C49.5773 19.3863 50.5451 19.3675 51.5069 19.3734C51.6071 19.3734 51.6873 19.4537 51.6873 19.5527C51.6863 19.6518 51.6051 19.732 51.5049 19.7311C50.5501 19.7251 49.5894 19.7439 48.6256 19.7865L48.6626 20.4879L48.313 20.5057ZM34.8569 20.9416L35.9169 20.688L36.0482 21.221C36.9158 21.011 37.8004 20.8168 38.6981 20.6395L38.5558 19.739C37.4718 19.949 36.4038 20.1808 35.3609 20.4334L35.3418 20.4384L35.3298 20.4413L35.3228 20.4423C34.4051 20.6652 33.5064 20.903 32.6328 21.1556L32.9294 22.0571C33.6016 21.8579 34.2899 21.6668 34.9902 21.4855L34.8569 20.9416Z" fill="#1F1F1F"/>
<path d="M60.8905 10.0504L61.5517 10.1128L61.3323 11.038L60.655 10.9736L59.8525 10.8983L58.8998 10.8072L58.1384 10.7349L57.4621 10.6715L57.424 9.72146L58.0853 9.78387L58.0542 10.1058C58.0472 10.1851 58.1053 10.2554 58.1854 10.2623L58.9459 10.3347C59.025 10.3426 59.0961 10.2841 59.1031 10.2059L59.1352 9.88393L59.7994 9.94634L59.7684 10.2693C59.7614 10.3475 59.8195 10.4179 59.8996 10.4248L60.7011 10.5011C60.7813 10.508 60.8514 10.4506 60.8594 10.3723L60.8905 10.0504ZM57.1335 9.70957L57.1706 10.6408L57.1746 10.7854L56.4903 11.1519L56.3651 10.1306L57.1335 9.70957ZM67.9666 11.2837L68.6178 11.4144L68.3003 12.312L67.634 12.1782L66.8445 12.0197L65.9058 11.8315L65.1564 11.6809L64.4912 11.5472L64.5533 10.5992L65.2045 10.7299L65.1394 11.0469C65.1243 11.1242 65.1744 11.2005 65.2536 11.2153L66.002 11.3659C66.0801 11.3818 66.1563 11.3312 66.1723 11.254L66.2374 10.937L66.8916 11.0687L66.8265 11.3857C66.8115 11.463 66.8616 11.5393 66.9407 11.5541L67.7312 11.7126C67.8083 11.7285 67.8855 11.678 67.9015 11.6007L67.9666 11.2837ZM64.3409 11.8097L64.5763 11.8573L63.0084 17.1878L63.0645 14.7291L63.1166 14.739C63.1226 14.741 63.1286 14.742 63.1356 14.743C63.1948 14.7479 63.2479 14.7033 63.2529 14.6439L63.3691 13.2887C63.3731 13.2362 63.339 13.1877 63.2859 13.1748C63.2218 13.1599 63.1557 13.1451 63.0846 13.1302L63.5334 12.094L64.3128 11.8216C64.3229 11.8196 64.3329 11.8147 64.3409 11.8097ZM61.0798 14.1902L61.0949 13.049C61.4726 13.0946 61.8543 13.1441 62.2079 13.1966C62.5596 13.2491 62.8822 13.3046 63.1437 13.363L63.0455 14.5062C62.775 14.4537 62.4764 14.4022 62.1558 14.3507C61.8162 14.2972 61.4565 14.2437 61.0798 14.1902ZM63.4001 11.9117L63.3581 10.8557L64.2657 10.5476L64.2417 10.9142L64.1796 11.6403L63.4001 11.9117ZM75.2672 13.369L75.8984 13.573L75.4796 14.4279L74.8324 14.2179L74.067 13.9703L73.1573 13.6761L72.4299 13.4413L71.7837 13.2323L71.9571 12.2981L72.5882 12.5022L72.487 12.8093C72.462 12.8845 72.5031 12.9658 72.5802 12.9905L73.3066 13.2253C73.3827 13.2501 73.4639 13.2085 73.4899 13.1332L73.5911 12.8261L74.2243 13.0312L74.1241 13.3392C74.099 13.4145 74.1401 13.4948 74.2173 13.5195L74.9827 13.7672C75.0588 13.792 75.141 13.7504 75.165 13.6751L75.2672 13.369ZM71.6785 12.2079L71.4782 13.2907L70.6156 13.4611L70.6426 12.414L71.6785 12.2079ZM69.8972 18.0893L70.1317 16.5776L70.1798 16.5954C70.1878 16.5994 70.1968 16.6014 70.2068 16.6034C70.2659 16.6123 70.322 16.5717 70.33 16.5132L70.5274 15.2185C70.5344 15.1689 70.5064 15.1194 70.4563 15.1016C70.29 15.0421 70.1277 14.9837 69.9694 14.9282L70.7398 13.6562L71.6214 13.4809L71.8328 13.5502L69.8972 18.0893ZM67.8314 14.4587C68.1931 14.5617 68.5607 14.6776 68.9465 14.8054C69.3692 14.9451 69.8151 15.1006 70.298 15.2739L70.1357 16.3498C69.7239 16.1992 69.3171 16.0585 68.9174 15.9278C68.5126 15.796 68.1069 15.6722 67.7011 15.5553L67.8314 14.4587ZM54.193 12.5249C54.5887 12.5329 54.9224 12.5408 55.284 12.5557C55.6377 12.5695 56.0214 12.5903 56.5203 12.623L56.5143 13.7622C56.1226 13.7414 55.7709 13.7236 55.4093 13.7087C55.0546 13.6939 54.6929 13.682 54.2802 13.6741L54.193 12.5249ZM66.9337 22.7918C65.0542 22.3302 63.0956 21.9548 61.1159 21.6645L61.169 21.2356L61.5447 21.291L61.6589 20.5322C63.4382 20.8145 65.1845 21.1642 66.8676 21.5704L66.6772 22.348L67.0179 22.4293L66.9337 22.7918ZM72.2706 24.4254C71.7717 24.2372 71.2608 24.0569 70.7398 23.8835C69.789 23.5665 68.8052 23.2763 67.7963 23.0108C67.627 22.9662 67.4567 22.9226 67.2854 22.879L67.3705 22.5145L67.7372 22.6016L67.9256 21.8349C68.6379 22.0191 69.3382 22.2143 70.0235 22.4184C70.9332 22.6898 71.8178 22.9771 72.6724 23.2792V23.2782L72.6744 23.2792L72.2706 24.4254ZM70.6937 21.2514C71.5273 21.4981 72.3368 21.7566 73.1162 22.0271L72.7936 22.9404C72.0222 22.668 71.2207 22.4055 70.3952 22.1549L70.6937 21.2514ZM64.4451 19.7397C65.5301 19.9497 66.5981 20.1815 67.64 20.4341L67.6581 20.4391L67.6711 20.4421L67.6791 20.4431C68.5958 20.6659 69.4945 20.9047 70.3691 21.1573L70.0726 22.0578C69.3993 21.8587 68.712 21.6675 68.0107 21.4862L68.144 20.9423L67.084 20.6887L66.9527 21.2217C66.0851 21.0127 65.2005 20.8175 64.3028 20.6402L64.4451 19.7397ZM58.1474 18.8006C60.1481 19.0096 62.1558 19.3068 64.1135 19.6763L63.9712 20.5748C63.2258 20.4312 62.4724 20.2984 61.713 20.1776L61.7992 19.602L60.7212 19.4425L60.634 20.0161C59.7834 19.8942 58.9268 19.7892 58.0662 19.7011L58.1474 18.8006ZM51.6513 18.4459C53.653 18.4459 55.7259 18.5579 57.8097 18.7659L57.7296 19.6674C56.9822 19.5941 56.2328 19.5337 55.4834 19.4881L55.5175 18.8392L54.4284 18.7837L54.3944 19.4296C53.4777 19.389 52.561 19.3702 51.6513 19.3732V18.4459ZM56.5183 13.9782L56.6165 13.9832H56.6215C56.6816 13.9832 56.7307 13.9356 56.7307 13.8762L56.7377 12.5309L56.7387 12.5299C56.7428 12.4705 56.6967 12.4189 56.6376 12.415L56.348 12.3962L56.6446 11.356C56.6496 11.3402 56.6506 11.3243 56.6476 11.3085L57.3208 10.9479L57.3248 10.9459L57.5803 10.9706L56.6586 16.0229L56.5183 13.9782ZM56.4883 16.7203C55.8331 16.6816 55.1728 16.6529 54.5046 16.6321L54.2972 13.89C54.6959 13.898 55.0496 13.9089 55.4013 13.9237C55.6908 13.9356 55.9823 13.9495 56.2989 13.9663L56.4883 16.7203ZM60.7532 17.1126C60.2553 17.0501 59.7564 16.9927 59.2534 16.9412L59.3145 16.2893C59.3396 16.0209 59.1382 15.7811 58.8667 15.7554C58.5952 15.7316 58.3527 15.9307 58.3277 16.1982L58.2666 16.849C57.7877 16.8074 57.3068 16.7718 56.8219 16.7411L57.8668 11.0103L60.8284 11.2916L60.7532 17.1126ZM62.786 17.4058C62.3572 17.3364 61.9274 17.272 61.4966 17.2116L61.4846 17.2096H61.4796C61.3333 17.1888 61.188 17.169 61.0418 17.1502V17.1482L61.0768 14.4071C61.4495 14.4606 61.8002 14.5122 62.1218 14.5637C62.3812 14.6043 62.6247 14.6459 62.8511 14.6875C62.8491 14.6954 62.8481 14.7024 62.8481 14.7103L62.786 17.4058ZM67.086 18.2617C66.6001 18.1468 66.1152 18.0378 65.6293 17.9358L65.7435 17.279C65.7896 17.0135 65.6082 16.7589 65.3397 16.7133C65.0712 16.6678 64.8138 16.8471 64.7667 17.1126L64.6575 17.7386C64.2167 17.6524 63.7748 17.5712 63.332 17.4959L63.2238 17.4781L64.8579 11.9266L66.3156 12.2198L67.7723 12.5121L67.086 18.2617ZM69.5506 18.8977C69.0777 18.7649 68.6048 18.6391 68.1329 18.5193L68.1219 18.5163L68.1199 18.5153C67.8695 18.4519 67.62 18.3905 67.3705 18.33L67.6761 15.7722C68.0658 15.8852 68.4565 16.005 68.8483 16.1328C69.2109 16.2507 69.5696 16.3745 69.9243 16.5023C69.9233 16.5063 69.9223 16.5112 69.9213 16.5162L69.5506 18.8977ZM73.5871 20.1568C73.1172 19.9953 72.6493 19.8398 72.1855 19.6902L72.3849 19.0641C72.468 18.8075 72.3227 18.5301 72.0623 18.4489C71.8028 18.3677 71.5233 18.5113 71.4411 18.7689L71.2407 19.393C70.7698 19.2484 70.3 19.1097 69.8331 18.9769L72.1043 13.6513L73.518 14.109L74.9306 14.5656L73.5871 20.1568ZM69.8612 23.9766C70.1176 24.0569 70.3731 24.1391 70.6246 24.2223C71.5473 24.5294 72.4369 24.8613 73.2855 25.2169L73.2915 25.2199L73.3366 25.2397L72.5762 26.7494C71.7316 26.4512 70.87 26.1639 69.9964 25.8925C69.765 25.8202 69.5335 25.7499 69.3001 25.6805L69.8612 23.9766ZM64.0674 22.5303C65.3047 22.771 66.5229 23.0464 67.7041 23.3575C68.2862 23.51 68.8583 23.6715 69.4203 23.8409L68.8573 25.5498C68.3213 25.3932 67.7793 25.2417 67.2313 25.096C66.1102 24.7989 64.962 24.5254 63.7899 24.2808L64.0674 22.5303ZM57.957 21.6358C58.9298 21.7329 59.9056 21.8517 60.8754 21.9914C60.8815 21.9924 60.8865 21.9934 60.8925 21.9944L60.8995 21.9954C61.8102 22.1261 62.7169 22.2757 63.6135 22.4431L63.337 24.1886C61.5447 23.828 59.6962 23.5368 57.8057 23.3337L57.957 21.6358ZM51.7074 21.292C53.5869 21.3069 55.5355 21.4059 57.4962 21.5902L57.3459 23.2862C55.5024 23.1029 53.6189 23.0038 51.7074 23.0088V21.292ZM54.6699 21.0246C53.5969 20.9681 52.5359 20.9374 51.496 20.9324C51.3958 20.9324 51.3147 21.0117 51.3147 21.1107V21.1127C51.3006 21.1365 51.2936 21.1623 51.2936 21.19V23.0425C51.2936 23.0752 51.3046 23.1069 51.3227 23.1336C51.3177 23.1504 51.3147 23.1693 51.3147 23.1891C51.3147 23.2881 51.3958 23.3674 51.496 23.3674C57.0313 23.3337 62.3352 24.1698 67.1371 25.4428C68.0748 25.6914 68.9925 25.9569 69.8882 26.2353C70.7909 26.5156 71.6655 26.8069 72.5111 27.107L72.5662 27.1258C72.5722 27.1278 72.5772 27.1298 72.5832 27.1308L72.5862 27.1328C72.6754 27.1764 72.7846 27.1407 72.8297 27.0515L73.7454 25.2357L73.7464 25.2337C73.7895 25.1446 73.7514 25.0376 73.6612 24.994L73.5971 24.9643C73.5861 24.9554 73.5741 24.9484 73.559 24.9425L73.4739 24.9068L73.4238 24.885C73.1603 24.7691 72.8978 24.6671 72.6383 24.567L72.6083 24.5552L73.4578 22.1479L74.064 22.3589C74.1551 22.3936 74.2583 22.351 74.2954 22.2609L74.9055 20.8225L74.9085 20.8145C74.9436 20.7214 74.8945 20.6184 74.8003 20.5847C74.4868 20.4708 74.1742 20.3598 73.8626 20.2519L75.2111 14.6429L75.4696 14.7261L75.5097 14.739C75.5818 14.7628 75.6609 14.7261 75.689 14.6568L76.232 13.5502C76.2671 13.4789 76.237 13.3927 76.1649 13.3581C76.1569 13.3551 76.1489 13.3521 76.1418 13.3492L75.2191 13.051C75.143 13.0262 75.0608 13.0678 75.0358 13.1431L74.9346 13.4502L74.4447 13.2917L74.5459 12.9836C74.5709 12.9083 74.5288 12.8271 74.4527 12.8033L74.4487 12.8023L73.543 12.5091C73.4669 12.4843 73.3847 12.5259 73.3607 12.6012L73.2585 12.9083L72.8076 12.7617L72.9088 12.4546C72.9339 12.3793 72.8928 12.2981 72.8167 12.2743L72.8116 12.2723L71.8899 11.9742C71.8829 11.9722 71.8759 11.9702 71.8689 11.9692C71.8619 11.9662 71.8539 11.9642 71.8448 11.9623C71.8318 11.9603 71.8188 11.9603 71.8068 11.9633L70.5144 12.2188C70.4613 12.2297 70.4252 12.2773 70.4272 12.3298L70.3952 13.5909C70.3941 13.6374 70.4232 13.678 70.4643 13.6939L69.761 14.8549C69.5035 14.7658 69.256 14.6806 69.0156 14.6013C68.6138 14.4676 68.2321 14.3487 67.8584 14.2417L68.0588 12.5557L68.3263 12.6101L68.3674 12.6181C68.4395 12.6319 68.5096 12.5913 68.5337 12.5249L68.9455 11.354C68.9725 11.2797 68.9314 11.1975 68.8563 11.1717C68.8473 11.1688 68.8373 11.1668 68.8282 11.1648L67.8815 10.9746C67.8033 10.9598 67.7262 11.0093 67.7112 11.0875L67.646 11.4036L67.1391 11.3025L67.2052 10.9845C67.2202 10.9072 67.1692 10.832 67.091 10.8161L67.087 10.8151L66.1523 10.6279C66.0751 10.613 65.998 10.6626 65.9819 10.7408L65.9168 11.0568L65.452 10.9637L65.5171 10.6457C65.5331 10.5685 65.482 10.4932 65.4039 10.4773L65.3999 10.4763L64.4481 10.2861C64.4351 10.2831 64.422 10.2822 64.41 10.2831C64.394 10.2812 64.378 10.2822 64.3609 10.2881L63.2108 10.6774C63.1667 10.6923 63.1356 10.7349 63.1377 10.7834L63.1887 12.0663C63.1897 12.0762 63.1907 12.0871 63.1938 12.097C63.2058 12.1307 63.2338 12.1545 63.2659 12.1644L62.8671 13.0876C62.6728 13.051 62.4614 13.0163 62.24 12.9836C61.8783 12.9291 61.4856 12.8786 61.0969 12.832L61.1179 11.3055L61.3884 11.3312L61.4305 11.3352C61.5036 11.3421 61.5697 11.2936 61.5858 11.2252L61.8723 10.0187C61.8903 9.94138 61.8422 9.86411 61.7641 9.84628C61.7541 9.84331 61.7441 9.84232 61.734 9.84232L60.7743 9.75118C60.6941 9.74425 60.624 9.8017 60.616 9.87996L60.5849 10.2019L60.0709 10.1534L60.102 9.83142C60.109 9.75217 60.0509 9.68283 59.9708 9.6749H59.9647L59.019 9.58476C58.9388 9.57782 58.8677 9.63528 58.8607 9.71354L58.8296 10.0355L58.3568 9.99091L58.3878 9.66896C58.3948 9.58971 58.3367 9.52036 58.2566 9.51244H58.2516L57.2858 9.42031C57.2737 9.41932 57.2617 9.42031 57.2497 9.42229C57.2467 9.4213 57.2437 9.4213 57.2397 9.4213C57.2247 9.42229 57.2096 9.42625 57.1966 9.43319L56.2118 9.97308C56.1717 9.99488 56.1517 10.0395 56.1577 10.084L56.3099 11.3293C56.316 11.3808 56.354 11.4184 56.4001 11.4234L56.1256 12.3823C55.817 12.3645 55.5495 12.3506 55.2931 12.3407C54.9284 12.3258 54.5857 12.3179 54.177 12.309L54.0638 10.8121C54.0618 10.7339 53.9976 10.6705 53.9175 10.6705H51.495C51.4148 10.6705 51.3497 10.7349 51.3497 10.8151C51.3497 10.8944 51.4148 10.9588 51.495 10.9588H53.7832L54.212 16.6063H53.2873C52.6962 16.5984 52.0991 16.5964 51.494 16.6024C51.3938 16.6034 51.3137 16.6836 51.3147 16.7827C51.3157 16.8817 51.3968 16.961 51.497 16.96C52.6241 16.9501 53.7281 16.964 54.8132 17.0006L54.7711 18.1725C53.665 18.1141 52.569 18.0844 51.496 18.0883C51.3948 18.0883 51.3147 18.1686 51.3147 18.2676C51.3147 18.3073 51.3277 18.3439 51.3497 18.3736V19.4465C51.3277 19.4772 51.3147 19.5138 51.3147 19.5535C51.3147 19.6525 51.3958 19.7328 51.496 19.7318C52.4508 19.7258 53.4126 19.7447 54.3754 19.7873L54.3393 20.4886L54.6879 20.5074L54.6699 21.0246ZM60.8093 21.1821L60.7562 21.613C58.8487 21.3435 56.9231 21.1533 55.0316 21.0444L55.0496 20.5253L55.4283 20.5451L55.4654 19.8457C57.1766 19.9517 58.8908 20.13 60.5809 20.3697L60.4657 21.1315L60.8093 21.1821ZM61.1039 18.8095C59.1162 18.5202 57.1084 18.3092 55.1328 18.1933L55.1748 17.0145C57.2587 17.0977 59.2745 17.2711 61.2612 17.5415L61.1039 18.8095ZM67.5769 20.0498C65.6072 19.5782 63.5484 19.177 61.4625 18.863L61.6208 17.592C62.1729 17.6703 62.7219 17.7565 63.2709 17.8496C64.8058 18.1121 66.3316 18.435 67.8654 18.8214L67.5769 20.0498ZM73.5671 21.8052C73.561 21.8032 73.556 21.8002 73.55 21.7982L73.4318 21.7566L73.4208 21.7527C72.5452 21.4456 71.6274 21.1514 70.6757 20.872C69.788 20.6125 68.8703 20.3668 67.9296 20.136L68.2161 18.9115C70.2779 19.4425 72.3578 20.0884 74.4978 20.8571L74.0269 21.9657L73.5671 21.8052ZM33.9584 27.2695C33.8672 27.2982 33.771 27.2437 33.744 27.1496C33.7169 27.0545 33.769 26.9545 33.8592 26.9257L33.9163 26.9079C34.6657 26.6761 35.4311 26.4562 36.2106 26.2501C36.987 26.0441 37.7835 25.8509 38.596 25.6716C42.7327 24.7563 47.185 24.2213 51.495 24.2491H51.507C55.817 24.2213 60.2683 24.7563 64.406 25.6716C65.2185 25.8509 66.014 26.0441 66.7914 26.2501C67.5709 26.4562 68.3363 26.6761 69.0857 26.9079L69.1418 26.9257C69.233 26.9545 69.2851 27.0545 69.258 27.1496C69.23 27.2437 69.1348 27.2982 69.0436 27.2695L68.9865 27.2526C68.2462 27.0228 67.4857 26.8039 66.7063 26.5978C65.9258 26.3918 65.1344 26.1996 64.3339 26.0223C60.2192 25.1119 55.794 24.5799 51.512 24.6077H51.489C47.207 24.5799 42.7828 25.1119 38.6671 26.0223C37.8676 26.1996 37.0752 26.3918 36.2947 26.5978C35.5163 26.8039 34.7549 27.0228 34.0145 27.2526L33.9584 27.2695Z" fill="#1F1F1F"/>
<path fill-rule="evenodd" clip-rule="evenodd" d="M80.2746 27.29V61.87C80.2746 77.518 67.3265 90.3209 51.5011 90.3209C35.6756 90.3209 22.7275 77.518 22.7275 61.87V27.29H80.2746Z" fill="#595959"/>
<path d="M64.9853 37.9475H64.9803H64.9853ZM64.9753 37.9713L64.9673 37.9634L64.9572 37.9762C64.9632 37.9743 64.9723 37.9723 64.9753 37.9713ZM64.9853 37.9475H64.9803L64.9673 37.9634L64.9753 37.9713C64.9763 37.9663 64.9813 37.9525 64.9853 37.9475ZM64.9873 37.9475V37.9465V37.9475ZM64.9803 37.9475H64.9853C64.9863 37.9465 64.9863 37.9455 64.9863 37.9455L64.9843 37.9416L64.9803 37.9475ZM38.0612 37.9703H38.0602L38.0592 37.9713L38.0612 37.9703ZM38.0612 37.9703L38.0582 37.9723L38.0612 37.9703ZM38.0622 37.9703V37.9693L38.0612 37.9703H38.0622ZM38.0131 37.9247L38.0141 37.9257L38.0131 37.9247ZM38.0111 37.9435C38.0141 37.9495 38.0181 37.9594 38.0181 37.9644L38.0311 37.9525L38.0251 37.9435H38.0111ZM38.0111 37.9426V37.9435H38.0251L38.0241 37.9426H38.0111ZM38.0101 37.9406L38.0111 37.9416H38.0241L38.0161 37.9287L38.0121 37.9267C38.0121 37.9287 38.0111 37.9366 38.0101 37.9406ZM38.0241 37.9416H38.0111V37.9426H38.0241V37.9416ZM38.0422 37.9733V37.9703V37.9733ZM38.0422 37.9733V37.9703L38.0311 37.9525L38.0181 37.9644C38.0231 37.9653 38.0371 37.9703 38.0422 37.9733ZM38.0422 37.9713V37.9733C38.0442 37.9752 38.0442 37.9752 38.0422 37.9752V37.9772L38.0452 37.9762L38.0422 37.9713ZM57.1878 39.0095C55.2191 38.7212 53.3667 38.5865 51.5012 38.5676C49.6347 38.5865 47.7823 38.7212 45.8146 39.0095C44.384 39.2195 42.8992 39.5107 41.3102 39.8981C42.9062 40.3448 44.393 40.6658 45.8206 40.8907C47.7793 41.1988 49.6307 41.3266 51.5012 41.3493C53.3717 41.3266 55.2231 41.1988 57.1818 40.8907C58.6084 40.6658 60.0962 40.3448 61.6932 39.8981C60.1032 39.5107 58.6174 39.2195 57.1878 39.0095ZM37.6244 36.3625C38.0742 36.2327 38.473 36.2862 38.8006 36.4546C38.7264 36.2803 38.6713 36.098 38.6363 35.9108C38.5571 35.4907 38.5772 35.043 38.7084 34.6041C38.7705 34.3921 38.8597 34.1831 38.9739 33.981C38.8907 34.0405 38.8076 34.1158 38.7284 34.2069C38.6673 34.2782 38.6072 34.3604 38.5501 34.4565L38.1514 35.1232L37.6574 34.5199C37.1234 33.8681 36.3751 33.5035 35.7108 33.4669L37.6244 36.3625ZM64.3661 35.9108C64.3311 36.098 64.275 36.2803 64.2018 36.4546C64.5294 36.2862 64.9272 36.2327 65.378 36.3625L67.2926 33.4649C66.9008 33.4867 66.472 33.6284 66.0733 33.879C65.9351 33.9652 65.8058 34.0603 65.6886 34.1633C65.5674 34.2693 65.4512 34.3892 65.3429 34.5209L65.3419 34.5219L64.849 35.1222L64.4523 34.4565C64.3942 34.3604 64.3351 34.2782 64.273 34.2069C64.1948 34.1158 64.1117 34.0405 64.0275 33.981C64.1427 34.1831 64.2309 34.3921 64.294 34.6041C64.4242 35.043 64.4453 35.4907 64.3661 35.9108ZM51.5503 30.6941C51.5333 30.6832 51.5172 30.6733 51.5002 30.6624C51.0904 30.919 50.7308 31.3777 50.4222 31.9294V31.9314C50.3511 32.0592 50.2799 32.1989 50.2078 32.3465C50.1357 32.499 50.0685 32.6466 50.0094 32.7903L50.0024 32.8032V32.8042L49.777 33.3054L49.2781 33.0766C48.9665 32.9329 48.6299 32.8547 48.3313 32.8586C48.3744 32.9032 48.4155 32.9498 48.4555 32.9993C48.724 33.3361 48.9034 33.7779 48.9434 34.4278V34.4654C48.9394 34.7676 48.8803 35.042 48.7791 35.2877C48.5657 35.8058 48.169 36.1981 47.6971 36.4556C47.2473 36.7013 46.7223 36.8241 46.2254 36.8172C45.9058 36.8122 45.5972 36.7558 45.3237 36.6458C45.1694 36.5844 45.0262 36.5061 44.8949 36.415C44.5673 36.1862 44.3248 35.8741 44.2026 35.5155C44.0784 35.149 44.0804 34.7418 44.2487 34.3357L44.2597 34.3099C44.1435 34.2475 43.9972 34.2188 43.8419 34.2208C43.6616 34.2237 43.4763 34.2713 43.314 34.3575C43.5905 34.7141 43.7247 35.1014 43.7448 35.4878C43.7658 35.9038 43.6526 36.309 43.4412 36.6676C43.2398 37.0104 42.9463 37.3125 42.5946 37.5414C41.9955 37.9327 41.2251 38.11 40.4587 37.9039L40.4476 37.9C40.1421 37.8108 39.8696 37.6751 39.6331 37.5027C39.6562 37.584 39.6722 37.6662 39.6832 37.7494C39.7383 38.1585 39.6542 38.5825 39.4067 38.9163C41.3774 38.2744 43.332 37.8148 45.2816 37.5136C47.3645 37.1907 49.4334 37.052 51.5012 37.0639C53.568 37.052 55.6369 37.1907 57.7208 37.5136C59.6694 37.8148 61.624 38.2744 63.5957 38.9163C63.3482 38.5825 63.2631 38.1585 63.3182 37.7494C63.3292 37.6662 63.3462 37.584 63.3693 37.5027C63.1328 37.6751 62.8603 37.8108 62.5538 37.9L62.5427 37.9039C61.7773 38.11 61.0069 37.9327 60.4068 37.5414C60.0561 37.3125 59.7616 37.0104 59.5602 36.6676C59.3488 36.309 59.2356 35.9038 59.2576 35.4878C59.2777 35.1014 59.4109 34.7151 59.6884 34.3575C59.5261 34.2713 59.3398 34.2237 59.1604 34.2208C59.0052 34.2188 58.8589 34.2475 58.7427 34.3099L58.7537 34.3357C58.921 34.7418 58.924 35.149 58.7988 35.5155C58.6775 35.8741 58.4341 36.1862 58.1065 36.415C57.9762 36.5061 57.832 36.5844 57.6777 36.6458C57.4042 36.7558 57.0966 36.8122 56.777 36.8172C56.2791 36.8241 55.7541 36.7013 55.3053 36.4556C54.8334 36.1981 54.4367 35.8058 54.2223 35.2877C54.1211 35.042 54.063 34.7676 54.058 34.4654V34.4278C54.098 33.7779 54.2774 33.3361 54.5469 32.9993C54.5869 32.9498 54.628 32.9022 54.6711 32.8586C54.5679 32.8586 54.4587 32.8676 54.3465 32.8854C54.2563 32.8993 54.1591 32.922 54.057 32.9518C53.9588 32.9805 53.8626 33.0162 53.7674 33.0568L53.7203 33.0786L53.2084 33.3074L52.994 32.7923C52.6774 32.0354 52.2867 31.342 51.8108 30.9031C51.7276 30.8259 51.6405 30.7555 51.5503 30.6941ZM51.7146 29.5618L51.7166 29.5638C51.8719 29.6302 52.0182 29.7114 52.1594 29.8055C52.2947 29.8977 52.4259 30.0027 52.5522 30.1196C53.0471 30.5772 53.4538 31.2112 53.7875 31.9086C53.9117 31.873 54.0419 31.8452 54.1762 31.8234C54.9636 31.6986 55.7431 31.873 56.1799 32.4406L56.5706 32.9508L55.9966 33.243C55.7521 33.3678 55.5367 33.4926 55.3984 33.665C55.2632 33.8344 55.171 34.0831 55.145 34.4793C55.151 34.6249 55.181 34.7597 55.2321 34.8825C55.3443 35.1549 55.5638 35.3669 55.8282 35.5116C56.1158 35.6691 56.4494 35.7473 56.764 35.7424C56.9443 35.7404 57.1176 35.7087 57.2689 35.6483C57.3461 35.6166 57.4182 35.5779 57.4803 35.5343C57.6206 35.4373 57.7218 35.3114 57.7679 35.1747C57.8119 35.046 57.8079 34.8964 57.7438 34.7399C57.7178 34.6755 57.6797 34.6091 57.6326 34.5417L57.4372 34.2683L57.6005 33.9731C57.7288 33.7423 57.9101 33.56 58.1245 33.4243C58.4301 33.2311 58.8008 33.141 59.1735 33.1469C59.5341 33.1529 59.9028 33.246 60.2204 33.4174C60.4969 33.5679 60.7414 33.7809 60.9157 34.0524L61.1752 34.4526L60.8035 34.7557C60.4959 35.0063 60.3577 35.2807 60.3436 35.5423C60.3336 35.7414 60.3927 35.9425 60.5009 36.1277C60.6202 36.3298 60.7945 36.5081 61.0029 36.6448C61.3595 36.8766 61.8124 36.9826 62.2582 36.8638V36.8648C62.5628 36.7736 62.8072 36.6072 62.9836 36.3932C63.1429 36.2 63.2491 35.9672 63.2971 35.7166C63.3452 35.459 63.3312 35.1817 63.2501 34.9073C63.1378 34.5288 62.8944 34.1554 62.5057 33.8413L61.9997 33.4342L62.4957 33.0162C62.5477 32.9726 62.6029 32.9329 62.661 32.8993C62.9655 32.7209 63.4023 32.6466 63.8562 32.7447C64.2269 32.825 64.6196 33.0181 64.9642 33.3619L64.9683 33.3589C65.1386 33.2093 65.3139 33.0786 65.4892 32.9686C66.445 32.3693 67.5761 32.2237 68.4147 32.5872L69.0048 32.8428L68.6531 33.3748L66.0433 37.3244L65.7687 37.7395L65.7537 37.7306L65.6826 37.8326L65.1045 38.6627L64.7779 39.1333L64.7729 39.1293L64.317 39.8545L64.0876 40.219L63.8462 40.1378L63.8522 40.3716C61.4928 41.1334 59.3688 41.6346 57.3521 41.9526C55.3373 42.2696 53.4328 42.4004 51.5072 42.4232H51.4942C49.5696 42.4004 47.6651 42.2696 45.6503 41.9526C43.6326 41.6346 41.5086 41.1334 39.1502 40.3716L39.1552 40.1378L38.9148 40.219L38.2265 39.1254L38.2125 39.1026L38.2035 39.1085L37.8909 38.6578L37.3128 37.8276L37.2467 37.7316L37.2327 37.7395L36.9581 37.3244L34.3493 33.3748L33.9946 32.8378L34.5917 32.5852L34.5927 32.5842V32.5852C34.7661 32.5109 34.9474 32.4574 35.1347 32.4257C35.3171 32.395 35.5094 32.3831 35.7088 32.3911C36.4863 32.4188 37.3419 32.7526 38.0371 33.3629C38.3828 33.0181 38.7755 32.825 39.1462 32.7447C39.6001 32.6466 40.0369 32.7209 40.3414 32.8993C40.3985 32.9329 40.4546 32.9726 40.5067 33.0162L41.0027 33.4342L40.4957 33.8413C40.107 34.1554 39.8645 34.5288 39.7513 34.9073C39.6702 35.1817 39.6572 35.459 39.7053 35.7166C39.7523 35.9672 39.8585 36.2 40.0178 36.3932C40.1942 36.6072 40.4386 36.7736 40.7442 36.8648V36.8638C41.189 36.9826 41.6429 36.8766 41.9985 36.6448C42.2079 36.5081 42.3822 36.3298 42.5005 36.1277C42.6097 35.9425 42.6688 35.7414 42.6577 35.5423C42.6447 35.2807 42.5065 35.0063 42.1989 34.7557L41.8272 34.4526L42.0857 34.0524C42.261 33.7809 42.5045 33.5679 42.782 33.4174C43.0986 33.246 43.4683 33.1529 43.8289 33.1469C44.2016 33.141 44.5713 33.2311 44.8779 33.4243C45.0923 33.56 45.2726 33.7423 45.4008 33.9731L45.5652 34.2683L45.3688 34.5417C45.3217 34.6091 45.2846 34.6755 45.2576 34.7399C45.1935 34.8964 45.1905 35.046 45.2335 35.1747C45.2806 35.3114 45.3818 35.4373 45.5211 35.5343C45.5842 35.5779 45.6553 35.6166 45.7325 35.6483C45.8847 35.7087 46.0581 35.7404 46.2374 35.7424C46.552 35.7473 46.8856 35.6691 47.1731 35.5116C47.4386 35.3669 47.658 35.1549 47.7703 34.8825C47.8204 34.7597 47.8514 34.6259 47.8564 34.4803C47.8304 34.0831 47.7392 33.8344 47.6039 33.665C47.4647 33.4926 47.2503 33.3678 47.0058 33.243L46.4318 32.9508L46.8225 32.4406L46.8656 32.3841C46.9628 32.2692 47.078 32.1702 47.2072 32.0879C47.3294 32.0087 47.4607 31.9463 47.6009 31.8987C48.0738 31.7392 48.6579 31.7541 49.2139 31.9086L49.224 31.8878C49.3001 31.7293 49.3833 31.5698 49.4724 31.4094H49.4734C49.9413 30.5733 50.5364 29.8848 51.2858 29.5638L51.5012 29.4717L51.7146 29.5618Z" fill="#1F1F1F"/>
<path fill-rule="evenodd" clip-rule="evenodd" d="M64.4433 37.948C64.4433 37.6696 64.6728 37.4438 64.9543 37.4438C65.0585 37.4438 65.1547 37.4745 65.2348 37.528L64.6577 38.3581C64.5285 38.267 64.4433 38.1174 64.4433 37.948ZM38.0422 37.4388C38.3237 37.4388 38.5522 37.6647 38.5522 37.9431C38.5522 38.1124 38.467 38.262 38.3378 38.3532L37.7607 37.523C37.8408 37.4695 37.938 37.4388 38.0422 37.4388ZM51.5013 38.0312C55.2993 38.0689 59.0162 38.5741 63.6829 39.8599C59.0162 41.3667 55.2993 41.8422 51.5013 41.8868C47.7032 41.8422 43.9853 41.3667 39.3186 39.8599C43.9853 38.5741 47.7032 38.0689 51.5013 38.0312ZM51.5013 30.0566C52.3709 30.4291 53.0211 31.4514 53.496 32.5877C54.3155 32.2123 55.3164 32.2053 55.7472 32.765C55.145 33.0721 54.6662 33.407 54.601 34.459C54.6231 35.9539 56.4064 36.578 57.4734 36.147C58.2528 35.834 58.6355 35.0138 58.0775 34.2331C58.5253 33.4258 59.947 33.5496 60.4579 34.3411C58.7838 35.7052 60.6172 37.8628 62.4005 37.3843C64.0586 36.9019 64.4534 34.7185 62.8494 33.4258C63.2451 33.0909 64.2921 33.1325 64.9202 34.1836C65.8199 33.084 67.2576 32.6739 68.1973 33.08L65.5875 37.0297C64.0326 36.1906 63.2992 38.268 64.3131 38.8416L63.8542 39.5707C59.6665 38.1511 55.5819 37.5775 51.5013 37.6013C47.4197 37.5775 43.3351 38.1511 39.1473 39.5707L38.6894 38.8416C39.7033 38.268 38.9689 36.1906 37.4141 37.0297L34.8042 33.08C35.7439 32.6739 37.1816 33.084 38.0813 34.1836C38.7105 33.1325 39.7574 33.0909 40.1532 33.4258C38.5482 34.7185 38.9429 36.9019 40.602 37.3843C42.3843 37.8628 44.2187 35.7052 42.5436 34.3411C43.0556 33.5496 44.4762 33.4258 44.924 34.2331C44.367 35.0138 44.7497 35.834 45.5282 36.147C46.5961 36.578 48.3785 35.9539 48.4005 34.459C48.3354 33.407 47.8575 33.0721 47.2554 32.765C47.6852 32.2053 48.686 32.2123 49.5056 32.5877C49.9804 31.4514 50.6316 30.4291 51.5013 30.0566Z" fill="#1F1F1F"/>
<path fill-rule="evenodd" clip-rule="evenodd" d="M44.2898 36.1233C44.7928 36.1233 45.2005 36.5265 45.2005 37.0237C45.2005 37.5201 44.7928 37.9232 44.2898 37.9232C43.7879 37.9232 43.3802 37.5201 43.3802 37.0237C43.3802 36.5265 43.7879 36.1233 44.2898 36.1233ZM44.2898 36.6235C44.5143 36.6235 44.6946 36.8028 44.6946 37.0237C44.6946 37.2447 44.5143 37.424 44.2898 37.424C44.0674 37.424 43.8861 37.2447 43.8861 37.0237C43.8861 36.8028 44.0674 36.6235 44.2898 36.6235ZM58.7117 36.1233C58.2097 36.1233 57.802 36.5265 57.802 37.0237C57.802 37.5201 58.2097 37.9232 58.7117 37.9232C59.2146 37.9232 59.6224 37.5201 59.6224 37.0237C59.6224 36.5265 59.2146 36.1233 58.7117 36.1233ZM58.7117 36.6235C58.4883 36.6235 58.3069 36.8028 58.3069 37.0237C58.3069 37.2447 58.4883 37.424 58.7117 37.424C58.9351 37.424 59.1164 37.2447 59.1164 37.0237C59.1164 36.8028 58.9351 36.6235 58.7117 36.6235ZM51.5013 34.668C51.9812 34.668 52.3709 35.0534 52.3709 35.5279C52.3709 36.0034 51.9812 36.3878 51.5013 36.3878C51.0204 36.3878 50.6316 36.0034 50.6316 35.5279C50.6316 35.0534 51.0204 34.668 51.5013 34.668ZM51.5013 35.1257C51.7257 35.1257 51.908 35.306 51.908 35.5279C51.908 35.7508 51.7257 35.9301 51.5013 35.9301C51.2758 35.9301 51.0945 35.7508 51.0945 35.5279C51.0945 35.306 51.2758 35.1257 51.5013 35.1257ZM64.9543 37.4438C64.6728 37.4438 64.4433 37.6696 64.4433 37.948C64.4433 38.1174 64.5285 38.267 64.6577 38.3581L65.2348 37.528C65.1547 37.4745 65.0585 37.4438 64.9543 37.4438ZM38.0422 37.4388C38.3237 37.4388 38.5522 37.6647 38.5522 37.9431C38.5522 38.1125 38.467 38.262 38.3378 38.3532L37.7607 37.523C37.8408 37.4695 37.938 37.4388 38.0422 37.4388ZM51.5013 37.6013C47.4197 37.5775 43.3351 38.1511 39.1473 39.5707L38.6894 38.8416C39.7033 38.268 38.9689 36.1906 37.4141 37.0297L34.8042 33.08C35.7439 32.6739 37.1816 33.084 38.0813 34.1836C38.7105 33.1325 39.7574 33.0909 40.1532 33.4258C38.5482 34.7186 38.9429 36.9019 40.602 37.3843C42.3843 37.8628 44.2187 35.7052 42.5436 34.3411C43.0556 33.5496 44.4762 33.4258 44.924 34.2331C44.367 35.0138 44.7497 35.834 45.5282 36.147C46.5961 36.578 48.3785 35.9539 48.4005 34.459C48.3354 33.407 47.8575 33.0721 47.2554 32.765C47.6852 32.2053 48.686 32.2123 49.5056 32.5877C49.9804 31.4514 50.6316 30.4291 51.5013 30.0566C52.3709 30.4291 53.0211 31.4514 53.496 32.5877C54.3155 32.2123 55.3164 32.2053 55.7472 32.765C55.145 33.0721 54.6662 33.407 54.601 34.459C54.6231 35.9539 56.4064 36.578 57.4734 36.147C58.2528 35.834 58.6355 35.0138 58.0775 34.2331C58.5253 33.4258 59.947 33.5496 60.4579 34.3411C58.7838 35.7052 60.6172 37.8628 62.4005 37.3843C64.0586 36.9019 64.4534 34.7186 62.8494 33.4258C63.2451 33.0909 64.2921 33.1325 64.9202 34.1836C65.8199 33.084 67.2576 32.6739 68.1973 33.08L65.5875 37.0297C64.0326 36.1906 63.2992 38.268 64.3131 38.8416L63.8542 39.5707C59.6665 38.1511 55.5819 37.5775 51.5013 37.6013Z" fill="white"/>
<path fill-rule="evenodd" clip-rule="evenodd" d="M39.3184 39.86C43.985 38.5741 47.703 38.0689 51.501 38.0312C55.2991 38.0689 59.016 38.5741 63.6827 39.86C59.016 41.3667 55.2991 41.8422 51.501 41.8868C47.703 41.8422 43.985 41.3667 39.3184 39.86Z" fill="white"/>
<path d="M37.4372 53.9179H65.5655L65.9101 54.8719C64.4464 56.0606 63.0718 57.3772 61.7814 58.8076C60.492 60.2351 59.2818 61.7825 58.1467 63.4309C56.9625 65.1516 55.8624 66.9794 54.8415 68.8962C53.8176 70.82 52.8729 72.829 52.0033 74.9034L51.5013 76.1031L50.9984 74.9034C50.1288 72.829 49.185 70.82 48.1601 68.8962C47.1392 66.9794 46.0402 65.1516 44.855 63.4309C43.7198 61.7825 42.5106 60.2351 41.2212 58.8076C39.9308 57.3772 38.5552 56.0606 37.0915 54.8719L37.4372 53.9179ZM51.5013 54.9957H38.9079C39.9989 55.9586 41.0389 56.9928 42.0307 58.0914C43.3602 59.5645 44.5995 61.1475 45.7536 62.8246C46.9619 64.5791 48.083 66.4424 49.1229 68.395C49.9665 69.979 50.7589 71.6244 51.5013 73.3214C52.2437 71.6244 53.0362 69.979 53.8797 68.395C54.9197 66.4424 56.0408 64.5791 57.248 62.8246C58.4032 61.1475 59.6425 59.5645 60.9709 58.0914C61.9628 56.9928 63.0037 55.9586 64.0937 54.9957H51.5013ZM51.332 76.6855L51.5013 77.1175L51.6706 76.6855C52.6104 74.3011 53.6363 72.0078 54.7574 69.8343C55.8825 67.652 57.1088 65.5766 58.4462 63.634C59.7767 61.7013 61.2144 59.9053 62.7703 58.2717C64.3262 56.6372 66.0013 55.1651 67.8037 53.8832L67.8187 53.8723C67.982 53.7643 68.1473 53.6583 68.3126 53.5563H67.6975V53.5583H35.3042V53.5563H34.69C34.8554 53.6583 35.0207 53.7643 35.184 53.8723L35.199 53.8832C37.0013 55.1651 38.6765 56.6372 40.2324 58.2717C41.7873 59.9053 43.2259 61.7013 44.5554 63.634C45.8929 65.5766 47.1202 67.652 48.2453 69.8343C49.3664 72.0078 50.3923 74.3011 51.332 76.6855ZM50.9683 79.0749C50.9182 78.8451 50.8641 78.6173 50.801 78.3944C50.7389 78.1745 50.6668 77.9575 50.5816 77.7475L50.5796 77.7416L50.3181 77.0729C49.3984 74.7399 48.3865 72.4813 47.2745 70.3237C46.1654 68.1741 44.9632 66.1373 43.6567 64.2403C42.3563 62.3521 40.9537 60.5987 39.4399 59.0087C37.9311 57.4247 36.3131 56.0002 34.5778 54.7649C34.2051 54.5182 33.8365 54.2923 33.4738 54.0853C33.1131 53.8793 32.7434 53.6851 32.3657 53.5018L32.6062 52.4815H35.3042V52.4795H67.6975V52.4815H70.3955L70.6369 53.5018C70.2582 53.6851 69.8885 53.8793 69.5289 54.0853C69.1652 54.2923 68.7975 54.5182 68.4248 54.7649C66.6896 56.0002 65.0716 57.4247 63.5628 59.0087C62.0479 60.5987 60.6453 62.3521 59.3449 64.2403C58.0395 66.1373 56.8362 68.1741 55.7282 70.3237C54.6151 72.4813 53.6042 74.7399 52.6845 77.0729L52.422 77.7416L52.42 77.7475C52.3349 77.9575 52.2637 78.1745 52.2016 78.3944C52.1375 78.6173 52.0834 78.8451 52.0333 79.0749H50.9683Z" fill="#1F1F1F"/>
<path d="M51.5011 54.4569H37.4369C40.4075 56.8681 43.0143 59.8024 45.3046 63.1289C47.697 66.6031 49.7458 70.5101 51.5011 74.6995C53.2564 70.5101 55.3052 66.6031 57.6976 63.1289C59.9869 59.8024 62.5947 56.8681 65.5653 54.4569H51.5011ZM51.5011 78.9641C51.3969 78.4847 51.2747 78.0102 51.0863 77.5475L50.8248 76.8789C48.9654 72.1625 46.7493 67.777 44.1064 63.9373C41.4755 60.1164 38.4238 56.8394 34.8812 54.3192C34.1228 53.817 33.3644 53.389 32.606 53.0195H70.3953C69.6368 53.389 68.8784 53.817 68.12 54.3192C64.5784 56.8394 61.5258 60.1164 58.8959 63.9373C56.2519 67.777 54.0358 72.1625 52.1764 76.8789L51.9159 77.5475C51.7275 78.0102 51.6053 78.4847 51.5011 78.9641Z" fill="#C2C2C2"/>
<path d="M47.9203 80.7742C48.0927 82.6802 49.3069 85.1032 51.501 86.6843C53.6951 85.1032 54.9083 82.6802 55.0807 80.7742C55.1358 80.1778 55.0867 79.6439 54.9314 79.2169C54.7951 78.8434 54.5767 78.5572 54.2742 78.3996C53.7412 78.1213 52.9106 78.1976 51.7545 78.8018L51.501 78.9336L51.2475 78.8018C50.0914 78.1976 49.2598 78.1213 48.7278 78.3996C48.4253 78.5572 48.2059 78.8434 48.0706 79.2169C47.9153 79.6429 47.8662 80.1778 47.9203 80.7742ZM51.2004 87.7879C48.5235 86.0265 47.0437 83.1309 46.8383 80.8673C46.7702 80.1194 46.8393 79.4289 47.0477 78.8543C47.2761 78.2283 47.6659 77.7369 48.2209 77.4476C49.0144 77.0336 50.1094 77.0554 51.501 77.722C52.8916 77.0554 53.9876 77.0336 54.7811 77.4476C55.3361 77.7369 55.7259 78.2283 55.9533 78.8543C56.1617 79.4289 56.2318 80.1194 56.1627 80.8673C55.9573 83.1309 54.4785 86.0265 51.8006 87.7879L51.501 87.986L51.2004 87.7879Z" fill="#1F1F1F"/>
<path fill-rule="evenodd" clip-rule="evenodd" d="M51.5012 87.3392C46.0922 83.7789 45.8587 75.3744 51.5012 78.3245C57.1427 75.3744 56.9103 83.7789 51.5012 87.3392Z" fill="#C2C2C2"/>
<path d="M51.501 77.9972V87.5498" stroke="#1F1F1F" stroke-width="2.25075" stroke-miterlimit="22.9256"/>
<path d="M71.5173 57.1945C73.4449 57.0241 75.8964 55.8245 77.4944 53.655C75.8964 51.4845 73.4449 50.2848 71.5173 50.1145C70.9152 50.06 70.3732 50.1095 69.9424 50.2621C69.5636 50.3968 69.2751 50.6137 69.1148 50.9129C68.8343 51.4389 68.9104 52.2612 69.5226 53.4043L69.6568 53.654L69.5226 53.9056C68.9104 55.0478 68.8343 55.87 69.1148 56.396C69.2751 56.6952 69.5636 56.9122 69.9424 57.0459C70.3732 57.1995 70.9142 57.248 71.5173 57.1945ZM78.6115 53.9512C76.8292 56.5981 73.9007 58.0613 71.6115 58.2644C70.8551 58.3317 70.1568 58.2634 69.5757 58.0573C68.9415 57.8325 68.4456 57.4461 68.152 56.8973C67.7342 56.1137 67.7563 55.03 68.4315 53.655C67.7563 52.279 67.7342 51.1952 68.152 50.4116C68.4456 49.8618 68.9425 49.4765 69.5757 49.2516C70.1568 49.0456 70.8551 48.9772 71.6115 49.0446C73.9007 49.2477 76.8292 50.7108 78.6115 53.3578L78.8109 53.654L78.6115 53.9512Z" fill="#1F1F1F"/>
<path fill-rule="evenodd" clip-rule="evenodd" d="M78.1574 53.6542C74.5567 59.0026 66.0569 59.2335 69.0405 53.6542C66.0569 48.076 74.5567 48.3068 78.1574 53.6542Z" fill="#C2C2C2"/>
<path d="M68.709 53.6543H78.37" stroke="#1F1F1F" stroke-width="2.25075" stroke-miterlimit="22.9256"/>
<path d="M31.3908 58.2644C29.1015 58.0613 26.1731 56.5981 24.3908 53.9512L24.1914 53.654L24.3908 53.3578C26.1731 50.7108 29.1015 49.2477 31.3908 49.0446C32.1472 48.9772 32.8455 49.0456 33.4256 49.2516C34.0598 49.4765 34.5557 49.8618 34.8492 50.4116C35.267 51.1952 35.246 52.279 34.5707 53.655C35.246 55.03 35.267 56.1137 34.8492 56.8973C34.5557 57.4461 34.0598 57.8325 33.4256 58.0573C32.8455 58.2634 32.1472 58.3317 31.3908 58.2644ZM25.5079 53.655C27.1058 55.8245 29.5574 57.0241 31.484 57.1945C32.0871 57.248 32.6281 57.1995 33.0589 57.0459C33.4376 56.9122 33.7271 56.6952 33.8864 56.396C34.167 55.87 34.0908 55.0478 33.4797 53.9056L33.3454 53.654L33.4797 53.4043C34.0908 52.2612 34.167 51.4389 33.8864 50.9129C33.7271 50.6137 33.4376 50.3968 33.0589 50.2621C32.6281 50.1095 32.0871 50.06 31.484 50.1145C29.5574 50.2848 27.1058 51.4845 25.5079 53.655Z" fill="#1F1F1F"/>
<path fill-rule="evenodd" clip-rule="evenodd" d="M24.8447 53.6542C28.4454 59.0026 36.9442 59.2335 33.9607 53.6542C36.9442 48.076 28.4454 48.3068 24.8447 53.6542Z" fill="#C2C2C2"/>
<path d="M34.2928 53.6543H24.6309" stroke="#1F1F1F" stroke-width="2.25075" stroke-miterlimit="22.9256"/>
<path fill-rule="evenodd" clip-rule="evenodd" d="M45.9396 63.0976L64.8127 43.287C64.2206 42.6926 63.4702 42.2379 62.4544 42.0131L62.4784 40.3686L64.1385 40.2537C64.5723 41.7773 65.5231 42.652 66.6752 43.2751C66.1663 40.5439 70.6206 38.3497 72.2766 36.7528L72.6093 37.0649C72.0713 36.1971 72.1284 35.0915 72.8206 34.3674C73.6622 33.4897 75.1199 33.5045 76.0777 34.401C77.0355 35.2976 77.1307 36.736 76.2901 37.6137C75.5978 38.3378 74.4847 38.4547 73.5781 37.9713L73.9107 38.2823C72.3898 40.005 70.4182 44.5233 67.633 44.1716C68.3253 45.2732 69.26 46.1648 70.8229 46.5095L70.7979 48.154L69.1378 48.2689C68.8553 47.2783 68.3543 46.562 67.7222 46.0102L48.0486 66.4628C47.3763 65.3008 46.673 64.1774 45.9396 63.0976ZM36.3989 73.1129L44.1513 64.9749C44.8085 65.9675 45.4407 66.9968 46.0458 68.0587C46.1039 68.1607 46.162 68.2628 46.2192 68.3648L39.163 75.7004C37.9418 76.9635 36.5932 77.651 34.7328 77.5896C34.5695 75.7569 35.1896 74.3879 36.3989 73.1129Z" fill="#1F1F1F"/>
<path d="M68.5649 46.0461C68.5158 46.0075 68.4687 45.9689 68.4216 45.9292C68.639 46.1561 68.8394 46.4067 69.0197 46.6861C69.2171 46.9922 69.3874 47.33 69.5246 47.7035L70.262 47.652L70.274 46.9219C69.6028 46.7208 69.0427 46.4196 68.5649 46.0461ZM67.2093 43.1783L67.2855 43.5864L67.7013 43.6389C69.4305 43.8568 70.9453 41.5952 72.1796 39.7517C72.6485 39.0523 73.0793 38.4074 73.5 37.9309L73.5061 37.925L73.5171 37.9339L73.8357 37.497C74.3396 37.7665 74.9207 37.7972 75.4006 37.5881C75.4958 37.5465 75.5849 37.499 75.6631 37.4445C75.7422 37.389 75.8204 37.3236 75.8935 37.2464L75.8945 37.2474L75.8965 37.2454C76.3463 36.7748 76.4335 36.0784 76.177 35.4662C76.1269 35.3473 76.0618 35.2294 75.9827 35.1145C75.9045 35.0006 75.8123 34.8936 75.7071 34.7946L75.6771 34.7678C75.3054 34.431 74.8465 34.2606 74.4017 34.2557C73.9679 34.2517 73.5471 34.4043 73.2376 34.7153L73.2135 34.7401L73.2125 34.7391C72.8448 35.1254 72.7216 35.6624 72.8298 36.1795C72.8498 36.2785 72.8819 36.3806 72.923 36.4856C72.963 36.5866 73.0121 36.6847 73.0692 36.7778L73.0742 36.7847L72.6454 37.1275L72.6565 37.1384C72.2026 37.5753 71.5725 38.0399 70.8872 38.5431C69.0938 39.8636 66.8937 41.4823 67.2093 43.1783ZM64.0585 42.042C64.35 42.2035 64.6145 42.3887 64.857 42.5938C64.8149 42.5492 64.7728 42.5036 64.7307 42.4581C64.326 42.0064 63.9923 41.4704 63.7519 40.8196L63.0145 40.8711L63.0035 41.6012C63.3922 41.7171 63.7419 41.8657 64.0585 42.042ZM45.6262 62.6422L64.0354 43.3189C63.8781 43.1961 63.7088 43.0832 63.5265 42.9811C63.1798 42.789 62.7871 42.6374 62.3363 42.5383L61.9045 42.4422L61.9105 42.0073L61.9365 40.3619L61.9435 39.8666L62.4435 39.8319L64.1026 39.716L64.5424 39.6863L64.6626 40.1083C64.856 40.7869 65.1615 41.3179 65.5442 41.7458C65.7256 41.9479 65.9249 42.1292 66.1403 42.2936C66.482 40.4461 68.5248 38.9423 70.24 37.6803C70.8331 37.2434 71.3841 36.8382 71.7828 36.4757C71.7758 36.4489 71.7698 36.4212 71.7638 36.3944C71.5875 35.5455 71.8019 34.6519 72.427 33.9991L72.429 33.9951L72.4541 33.9694L72.4581 33.9654C72.9831 33.4354 73.6884 33.1739 74.4097 33.1818C75.116 33.1887 75.8354 33.4523 76.4095 33.9713L76.4135 33.9753L76.4485 34.007L76.4525 34.011L76.4565 34.0159C76.6198 34.1685 76.7611 34.3339 76.8813 34.5073C77.0016 34.6806 77.1017 34.8649 77.1819 35.0581C77.5967 36.0477 77.4414 37.1919 76.685 37.9834L76.682 37.9854V37.9874C76.5617 38.1132 76.4285 38.2251 76.2842 38.3252C76.1389 38.4252 75.9907 38.5084 75.8394 38.5738C75.3355 38.7937 74.7694 38.8542 74.2184 38.7561C73.8777 39.1652 73.496 39.7338 73.0873 40.3451C71.9071 42.1084 70.5005 44.2075 68.653 44.6464C68.8314 44.8495 69.0247 45.0367 69.2381 45.2031C69.692 45.5588 70.245 45.8322 70.9403 45.9847L71.3731 46.0808L71.3661 46.5157L71.341 48.1611L71.334 48.6565L70.8341 48.6911L69.174 48.806L68.7342 48.8367L68.6139 48.4147C68.4877 47.9699 68.3144 47.5905 68.104 47.2636C67.9918 47.0903 67.8686 46.9298 67.7333 46.7792L48.3292 66.9524H48.3282L48.233 66.784L48.231 66.78L48.227 66.7731L48.1789 66.6889L48.1779 66.6879L48.1278 66.6007L48.0838 66.5235L48.0828 66.5225L48.0767 66.5126L48.0387 66.4472L48.0317 66.4343L48.0216 66.4165L48.0206 66.4155L48.0146 66.4056L48.0096 66.3957L47.9525 66.2986L47.9505 66.2946L47.9445 66.2837L47.8844 66.1817L47.8794 66.1728L47.8784 66.1718L47.8734 66.1629L47.8613 66.1431L47.8563 66.1332L47.7702 65.9875L47.7642 65.9786L67.3286 45.64L67.6902 45.2645L68.0048 45.5389C67.6872 45.2081 67.4137 44.8425 67.1703 44.4562L66.8857 44.0015L66.4149 43.7469C66.0051 43.525 65.6174 43.2734 65.2637 42.9742L65.5673 43.2793L65.2086 43.6558L46.2483 63.5575C46.1662 63.4347 46.085 63.3118 46.0019 63.191L46.0009 63.189L45.8937 63.0295H45.8927L45.8857 63.0186L45.8847 63.0166L45.8706 62.9958H45.8696V62.9948L45.8616 62.9839L45.8175 62.9186L45.8125 62.9126L45.7865 62.874L45.7815 62.8661L45.7534 62.8245L45.7294 62.7908L45.7254 62.7848L45.7214 62.7799V62.7789L45.7133 62.768L45.7033 62.7531L45.7013 62.7511L45.6953 62.7422L45.6943 62.7393L45.6913 62.7363L45.6893 62.7323L45.6743 62.7115L45.6733 62.7105L45.6663 62.6996L45.6643 62.6967L45.6422 62.665L45.6402 62.662L45.6342 62.6541L45.6262 62.6422ZM36.0023 72.7446L43.8429 64.5145C44.0502 64.8196 44.2536 65.1277 44.456 65.4397L36.7948 73.4817C36.2367 74.0701 35.8169 74.6744 35.5585 75.3361C35.3551 75.8562 35.2499 76.4189 35.2529 77.0489C35.8861 77.0162 36.4491 76.8805 36.9641 76.6507C37.6193 76.3594 38.2064 75.9117 38.7694 75.3302L45.9408 67.8747L45.9438 67.8806L46.046 68.0589L46.1011 68.157L46.1041 68.162L46.1572 68.2561L46.1592 68.2581L46.1662 68.2709L46.2153 68.3581L46.2223 68.371L46.2233 68.372L46.2293 68.3829L46.2694 68.4552L46.2714 68.4582L46.2784 68.471L46.2854 68.4829L46.2924 68.4958L46.2934 68.4978C46.3605 68.6177 46.4267 68.7375 46.4928 68.8584L46.4938 68.8594L39.5579 76.0712C38.8987 76.7517 38.2014 77.2807 37.4119 77.6324C36.6154 77.988 35.7338 78.1604 34.7169 78.1277L34.233 78.1119L34.1899 77.6364C34.1007 76.6368 34.228 75.7581 34.5446 74.9488C34.8571 74.1483 35.3521 73.4311 36.0023 72.7446Z" fill="#1F1F1F"/>
<path fill-rule="evenodd" clip-rule="evenodd" d="M44.1513 64.974L36.3989 73.113C35.1896 74.3879 34.5695 75.757 34.7328 77.5896L45.2123 66.6432C45.045 66.3688 44.8757 66.0963 44.7043 65.8269L44.6943 65.811L44.6883 65.8011L44.6713 65.7744L44.6562 65.7516L44.6552 65.7486C44.4919 65.493 44.3276 65.2394 44.1613 64.9888L44.1513 64.974ZM64.941 43.1523L45.9396 63.0977L45.9466 63.1086C46.3113 63.6455 46.668 64.1923 47.0176 64.7501L47.0206 64.755L66.3616 44.5501L64.941 43.1523Z" fill="white"/>
<path fill-rule="evenodd" clip-rule="evenodd" d="M46.2193 68.3655L39.1632 75.7011C37.9419 76.9642 36.5934 77.6517 34.7329 77.5903L45.2124 66.6438L45.2154 66.6498L45.2254 66.6656C45.4158 66.9786 45.6041 67.2947 45.7895 67.6126L45.7965 67.6255L45.8145 67.6572L45.8276 67.679L45.8326 67.6879L45.8406 67.7018L45.8536 67.7246L45.8666 67.7464L45.8686 67.7494L45.8796 67.7692L45.8927 67.791L45.9037 67.8118L45.9177 67.8355L45.9307 67.8583L45.9398 67.8732L45.9528 67.896L45.9568 67.9029L45.9698 67.9247L45.9748 67.9356L45.9818 67.9475L45.9949 67.9703L46.0079 67.9921L46.0109 67.997L46.0209 68.0148V68.0158L46.046 68.0594L46.089 68.1357H46.09C46.1331 68.213 46.1762 68.2883 46.2193 68.3655ZM67.8515 45.8772L48.0487 66.4635L48.0337 66.4368L48.0216 66.417L48.0176 66.409C47.9485 66.2902 47.8784 66.1703 47.8082 66.0514L47.7962 66.0306C47.5848 65.674 47.3714 65.3193 47.154 64.9706L47.152 64.9657L47.1169 64.9112L47.1019 64.8864L47.0859 64.8607L47.0809 64.8518L47.0248 64.7616L47.0208 64.7557L66.3618 44.5508L67.8515 45.8772Z" fill="#BDBDBD"/>
<path d="M73.2363 34.7176L73.2153 34.7394C72.7514 35.2258 72.6582 35.9351 72.9157 36.5513C72.9658 36.6701 73.0299 36.786 73.1081 36.899C73.1862 37.0129 73.2774 37.1189 73.3776 37.213L73.0289 37.5775L73.3786 37.212L73.3836 37.216L73.3816 37.217C73.9075 37.7083 74.6279 37.8559 75.235 37.6568C75.3552 37.6172 75.4705 37.5647 75.5746 37.5003C75.6828 37.4349 75.783 37.3566 75.8712 37.2675L75.8962 37.2427C76.3601 36.7563 76.4533 36.048 76.1948 35.4309C76.1447 35.313 76.0816 35.1961 76.0034 35.0841C75.9243 34.9702 75.8341 34.8642 75.7339 34.7691L76.0816 34.4056L75.7319 34.7711L75.7279 34.7671L75.7289 34.7652C75.204 34.2738 74.4826 34.1262 73.8765 34.3253C73.7563 34.3649 73.641 34.4174 73.5359 34.4818C73.4266 34.5482 73.3255 34.6275 73.2363 34.7176ZM72.4268 33.9964L72.4508 33.9707L72.4538 33.9677C72.6021 33.8181 72.7634 33.6913 72.9337 33.5873C73.1071 33.4813 73.2904 33.3971 73.4777 33.3347C74.4415 33.0177 75.5887 33.2534 76.4252 34.038L76.4272 34.036L76.4322 34.04L76.4302 34.042C76.5965 34.1985 76.7408 34.3649 76.86 34.5383C76.9813 34.7136 77.0835 34.8999 77.1646 35.094C77.5764 36.0777 77.4281 37.21 76.6857 37.9847L76.6847 37.9867L76.6597 38.0114L76.6577 38.0144C76.5084 38.164 76.3471 38.2918 76.1778 38.3948C76.0044 38.5018 75.8211 38.586 75.6338 38.6474C74.67 38.9644 73.5228 38.7287 72.6853 37.9451L72.6833 37.9471L72.6793 37.9421L72.6813 37.9411C72.5139 37.7846 72.3707 37.6172 72.2505 37.4438C72.1292 37.2685 72.028 37.0822 71.9459 36.8881C71.5351 35.9044 71.6834 34.7731 72.4248 33.9974L72.4268 33.9964Z" fill="#1F1F1F"/>
<path fill-rule="evenodd" clip-rule="evenodd" d="M72.8206 34.3674C73.6621 33.4897 75.1199 33.5045 76.0776 34.401C77.0354 35.2976 77.1306 36.736 76.29 37.6137C75.4495 38.4923 73.9918 38.4775 73.034 37.581C72.0752 36.6844 71.98 35.2451 72.8206 34.3674Z" fill="#C2C2C2"/>
<path d="M72.6494 36.3635L73.466 37.1283L74.2835 37.8931L74.6632 38.2477L74.3195 38.636C73.9539 39.0511 73.5381 39.6712 73.0873 40.3449C71.5083 42.7026 69.5316 45.6547 66.7014 44.4699L66.4249 44.2103C65.0733 41.4821 67.9467 39.3671 70.241 37.6801C70.8892 37.2016 71.4883 36.7618 71.892 36.3734L71.891 36.3724L72.2647 36.0029L72.6494 36.3635ZM72.7216 37.9079L72.2687 37.4849C71.872 37.8197 71.3951 38.1704 70.8872 38.5429C68.9806 39.9466 66.6072 41.6941 67.3185 43.5515C69.2331 44.1519 70.8661 41.7119 72.1796 39.7515C72.5282 39.2314 72.8548 38.743 73.1724 38.3309L72.7216 37.9079Z" fill="#1F1F1F"/>
<path fill-rule="evenodd" clip-rule="evenodd" d="M73.0944 37.5177L72.2769 36.7529C70.4815 38.4836 65.3981 40.9175 66.9129 43.9746C70.0838 45.3031 72.2618 40.1498 73.9109 38.2825L73.0944 37.5177Z" fill="#C2C2C2"/>
<path d="M70.2739 46.9221C69.5355 46.7012 68.9324 46.3614 68.4264 45.9364C68.8843 46.4129 69.262 46.9885 69.5255 47.7037L70.2618 47.6522L70.2739 46.9221ZM63.0033 41.6014C63.7417 41.8223 64.3448 42.1631 64.8498 42.5881C64.3919 42.1116 64.0152 41.535 63.7517 40.8198L63.0144 40.8713L63.0033 41.6014ZM65.2656 42.9764C65.7104 43.439 66.068 43.969 66.3796 44.5337C66.9667 44.8111 67.5207 45.135 68.0117 45.5481C67.5668 45.0855 67.2092 44.5555 66.8976 43.9898C66.3095 43.7134 65.7555 43.3895 65.2656 42.9764ZM65.503 45.1944C65.1664 44.5594 64.7756 43.976 64.2667 43.5133C63.7698 43.0626 63.1496 42.7169 62.3361 42.5385L61.9043 42.4425L61.9103 42.0076L61.9364 40.3621L61.9434 39.8668L62.4433 39.8321L64.1024 39.7162L64.5422 39.6865L64.6624 40.1085C64.8888 40.903 65.2706 41.4974 65.7525 41.961C66.2474 42.4395 66.8575 42.7921 67.5177 43.0903L67.7732 43.3291C68.1108 43.9641 68.5006 44.5475 69.0105 45.0102C69.5074 45.4609 70.1266 45.8056 70.9401 45.985L71.3729 46.081L71.3659 46.5159L71.3409 48.1614L71.3338 48.6567L70.8339 48.6914L69.1738 48.8063L68.734 48.837L68.6138 48.415C68.3874 47.6205 68.0056 47.0271 67.5248 46.5625C67.0278 46.084 66.4187 45.7304 65.7595 45.4332L65.503 45.1944Z" fill="#1F1F1F"/>
<path fill-rule="evenodd" clip-rule="evenodd" d="M65.9852 44.9436C65.2578 43.5755 64.289 42.4184 62.4546 42.0133L62.4786 40.3688L64.1387 40.2539C64.6477 42.042 65.8699 42.9365 67.2916 43.5795C68.0189 44.9475 68.9887 46.1056 70.8232 46.5097L70.7981 48.1542L69.138 48.2691C68.6291 46.481 67.4068 45.5865 65.9852 44.9436Z" fill="#C2C2C2"/>
<path d="M46.9216 64.5986L65.7436 44.9365L66.0051 45.1822L47.1179 64.9126C47.0528 64.8076 46.9867 64.7026 46.9216 64.5986ZM34.5796 77.4906L45.1152 66.4857C45.1793 66.5907 45.2444 66.6967 45.3085 66.8027L34.8421 77.7363L34.5796 77.4906Z" fill="#1F1F1F"/>
<path d="M34.5806 45.9292C34.5335 45.9689 34.4854 46.0075 34.4363 46.0461C33.9594 46.4196 33.3994 46.7208 32.7281 46.9219L32.7392 47.652L33.4765 47.7035C33.6148 47.33 33.7851 46.9922 33.9825 46.6861C34.1618 46.4067 34.3632 46.1561 34.5806 45.9292ZM35.7157 43.5864L35.7918 43.1783C36.1074 41.4823 33.9073 39.8636 32.114 38.5431C31.4297 38.0399 30.7986 37.5753 30.3457 37.1384L30.3567 37.1275L29.9279 36.7847L29.9319 36.7778C29.9891 36.6847 30.0381 36.5866 30.0782 36.4856C30.1203 36.3806 30.1514 36.2785 30.1724 36.1795C30.2796 35.6624 30.1564 35.1254 29.7897 34.7391L29.7887 34.7401L29.7646 34.7153C29.4541 34.4043 29.0333 34.2517 28.6005 34.2557C28.1556 34.2606 27.6968 34.431 27.3251 34.7678H27.3241L27.295 34.7946H27.294C27.1888 34.8936 27.0977 35.0006 27.0185 35.1145C26.9394 35.2294 26.8743 35.3473 26.8242 35.4662C26.5687 36.0784 26.6548 36.7748 27.1057 37.2454L27.1067 37.2474L27.1077 37.2464C27.1818 37.3236 27.259 37.389 27.3391 37.4445C27.4173 37.499 27.5054 37.5465 27.6006 37.5881C28.0805 37.7972 28.6626 37.7665 29.1655 37.497L29.4851 37.9339L29.4951 37.925L29.5011 37.9309C29.9219 38.4074 30.3537 39.0523 30.8216 39.7517C32.0569 41.5952 33.5717 43.8568 35.3009 43.6389L35.7157 43.5864ZM38.1452 42.5938C38.3877 42.3887 38.6512 42.2035 38.9427 42.042C39.2593 41.8657 39.61 41.7171 39.9977 41.6012L39.9867 40.8711L39.2503 40.8196C39.0108 41.4704 38.6752 42.0064 38.2705 42.4581C38.2294 42.5046 38.1873 42.5492 38.1452 42.5938ZM46.1992 52.4793L37.7926 43.6558L37.4339 43.2793L37.7355 42.9762C37.3828 43.2744 36.9951 43.525 36.5863 43.7469L36.1165 44.0015L35.8309 44.4562C35.5885 44.8425 35.316 45.2061 34.9994 45.537L35.312 45.2645L35.6736 45.64L42.2539 52.4813H40.7531L35.2679 46.7792C35.1336 46.9298 35.0094 47.0903 34.8982 47.2636C34.6878 47.5905 34.5145 47.9699 34.3872 48.4147L34.267 48.8367L33.8272 48.806L32.1681 48.6911L31.6682 48.6565L31.6602 48.1611L31.6351 46.5157L31.6291 46.0808L32.0619 45.9847C32.7562 45.8322 33.3092 45.5588 33.7631 45.2031C33.9765 45.0367 34.1708 44.8495 34.3482 44.6464C32.5007 44.2075 31.0951 42.1084 29.9149 40.3451C29.5052 39.7338 29.1244 39.1652 28.7838 38.7561C28.2318 38.8542 27.6657 38.7937 27.1618 38.5738C27.0115 38.5084 26.8622 38.4252 26.717 38.3252C26.5737 38.2251 26.4405 38.1132 26.3202 37.9874V37.9854L26.3172 37.9834C25.5608 37.1919 25.4045 36.0477 25.8193 35.0581C25.8994 34.8649 26.0006 34.6806 26.1199 34.5073C26.2401 34.3339 26.3823 34.1685 26.5446 34.0159L26.5487 34.011L26.5537 34.007L26.5877 33.9753L26.5917 33.9713C27.1668 33.4523 27.8861 33.1887 28.5915 33.1818C29.3128 33.1739 30.0191 33.4354 30.5441 33.9654L30.5481 33.9694L30.5721 33.9951L30.5741 33.9991C31.1993 34.6519 31.4147 35.5455 31.2374 36.3944C31.2314 36.4212 31.2254 36.4489 31.2193 36.4757C31.6181 36.8382 32.1681 37.2434 32.7612 37.6803C34.4774 38.9423 36.5202 40.4461 36.8618 42.2936C37.0762 42.1292 37.2766 41.9479 37.4569 41.7458C37.8407 41.3179 38.1452 40.7869 38.3386 40.1083L38.4588 39.6863L38.8986 39.716L40.5587 39.8319L41.0576 39.8666L41.0657 40.3619L41.0907 42.0073L41.0977 42.4422L40.6649 42.5383C40.2141 42.6374 39.8213 42.789 39.4747 42.9811C39.2924 43.0832 39.124 43.1961 38.9658 43.3189L47.694 52.4793H46.1992ZM66.2064 73.4817L48.5957 54.9955H50.0904L66.9989 72.7446C67.6491 73.4311 68.144 74.1483 68.4576 74.9488C68.7732 75.7581 68.9004 76.6368 68.8113 77.6364L68.7692 78.1119L68.2853 78.1277C67.2674 78.1604 66.3868 77.988 65.5903 77.6324C64.8008 77.2807 64.1025 76.7517 63.4443 76.0712L43.1696 54.9935H44.6704L64.2318 75.3302C64.7948 75.9117 65.3819 76.3594 66.0371 76.6507C66.5531 76.8805 67.1161 77.0172 67.7493 77.0489C67.7523 76.4189 67.6461 75.8562 67.4437 75.3361C67.1853 74.6744 66.7645 74.0701 66.2064 73.4817Z" fill="#1F1F1F"/>
<path fill-rule="evenodd" clip-rule="evenodd" d="M46.9464 52.4791L38.1891 43.287C38.7802 42.6926 39.5306 42.2379 40.5475 42.0131L40.5225 40.3686L38.8624 40.2537C38.4286 41.7773 37.4778 42.652 36.3267 43.2751C36.8346 40.5439 32.3803 38.3497 30.7243 36.7528L30.3916 37.0649C30.9306 36.1971 30.8735 35.0915 30.1802 34.3674C29.3397 33.4897 27.882 33.5045 26.9242 34.401C25.9654 35.2976 25.8712 36.736 26.7108 37.6137C27.4041 38.3378 28.5172 38.4547 29.4238 37.9713L29.0902 38.2823C30.612 40.005 32.5827 44.5233 35.3689 44.1716C34.6766 45.2732 33.7409 46.1648 32.179 46.5095L32.204 48.154L33.8631 48.2689C34.1456 47.2783 34.6466 46.562 35.2787 46.0102L41.5033 52.481H45.6761V52.4791H46.9464ZM66.603 73.1129L49.3429 54.9953H45.6761V54.9933H43.9198L63.8379 75.7004C65.0601 76.9635 66.4076 77.651 68.2681 77.5896C68.4314 75.7569 67.8113 74.3879 66.603 73.1129Z" fill="#1F1F1F"/>
<path fill-rule="evenodd" clip-rule="evenodd" d="M43.9202 54.994L63.8383 75.7011C65.0605 76.9642 66.408 77.6517 68.2685 77.5903L46.6393 54.996H45.6765V54.994H43.9202ZM35.1509 45.8772L41.5037 52.4818H44.2328L36.6396 44.5508L35.1509 45.8772Z" fill="#BDBDBD"/>
<path fill-rule="evenodd" clip-rule="evenodd" d="M49.3428 54.9953L66.6029 73.113C67.8112 74.3879 68.4313 75.757 68.268 77.5896L46.6388 54.9953H49.3428ZM38.0608 43.1523L46.9463 52.4791H45.676V52.4811H44.2323L36.6392 44.5501L38.0608 43.1523Z" fill="white"/>
<path d="M30.551 33.9707L30.575 33.9964L30.576 33.9974C31.3184 34.7731 31.4667 35.9044 31.0549 36.8881C30.9738 37.0822 30.8726 37.2685 30.7514 37.4438C30.6311 37.6172 30.4869 37.7846 30.3206 37.9411L30.3216 37.9421L30.3175 37.9471L30.3165 37.9451C29.479 38.7287 28.3309 38.9644 27.3671 38.6474C27.1797 38.586 26.9974 38.5018 26.823 38.3948C26.6537 38.2918 26.4924 38.164 26.3442 38.0144L26.3412 38.0114L26.3171 37.9867L26.3151 37.9847C25.5737 37.21 25.4244 36.0777 25.8372 35.094C25.9184 34.8999 26.0196 34.7136 26.1408 34.5383C26.261 34.3649 26.4043 34.1985 26.5706 34.042L26.5696 34.04L26.5736 34.036L26.5756 34.038C27.4121 33.2534 28.5603 33.0177 29.5241 33.3347C29.7114 33.3971 29.8948 33.4803 30.0681 33.5873C30.2374 33.6913 30.3987 33.8181 30.548 33.9677L30.551 33.9707ZM29.7856 34.7394L29.7645 34.7176C29.6754 34.6275 29.5742 34.5482 29.465 34.4818C29.3598 34.4174 29.2456 34.3649 29.1253 34.3253C28.5182 34.1262 27.7969 34.2738 27.2719 34.7652L27.2739 34.7671L27.2689 34.7711L26.9192 34.4056L27.2679 34.7691C27.1667 34.8642 27.0765 34.9702 26.9974 35.0841C26.9202 35.1961 26.8561 35.313 26.807 35.4309C26.5485 36.048 26.6417 36.7563 27.1056 37.2427L27.1266 37.2645C27.2168 37.3556 27.317 37.4339 27.4262 37.5003C27.5314 37.5647 27.6456 37.6172 27.7668 37.6568C28.3729 37.8559 29.0943 37.7083 29.6193 37.217L29.6182 37.216L29.6223 37.212L29.9719 37.5775L29.6233 37.213C29.7244 37.1189 29.8146 37.0129 29.8938 36.899C29.9719 36.786 30.036 36.6701 30.0851 36.5513C30.3436 35.9351 30.2504 35.2258 29.7856 34.7394Z" fill="#1F1F1F"/>
<path fill-rule="evenodd" clip-rule="evenodd" d="M30.1802 34.3674C29.3397 33.4897 27.882 33.5045 26.9242 34.401C25.9654 35.2976 25.8712 36.736 26.7108 37.6137C27.5514 38.4923 29.0101 38.4775 29.9679 37.581C30.9256 36.6844 31.0208 35.2451 30.1802 34.3674Z" fill="#C2C2C2"/>
<path d="M30.7323 37.4849L30.2805 37.9079L29.8286 38.3299C30.1462 38.743 30.4738 39.2314 30.8215 39.7515C32.1349 41.7119 33.769 44.1519 35.6835 43.5515C36.3949 41.6941 34.0214 39.9466 32.1139 38.5429C31.6069 38.1704 31.1301 37.8188 30.7323 37.4849ZM29.5351 37.1283L30.3516 36.3635L30.7373 36.0029L31.11 36.3724H31.111L31.11 36.3734C31.5138 36.7618 32.1119 37.2016 32.7611 37.6801C35.0554 39.3671 37.9287 41.4821 36.5762 44.2103L36.2997 44.4699C33.4704 45.6547 31.4927 42.7026 29.9148 40.3449C29.463 39.6712 29.0472 39.0511 28.6815 38.636L28.3389 38.2477L28.7176 37.8931L29.5351 37.1283Z" fill="#1F1F1F"/>
<path fill-rule="evenodd" clip-rule="evenodd" d="M29.9079 37.5177L30.7244 36.7529C32.5197 38.4836 37.6042 40.9175 36.0884 43.9746C32.9175 45.3031 30.7404 40.1498 29.0903 38.2825L29.9079 37.5177Z" fill="#C2C2C2"/>
<path d="M34.5744 45.9364C34.0684 46.3614 33.4663 46.7012 32.728 46.9221L32.739 47.6522L33.4763 47.7037C33.7398 46.9885 34.1175 46.4129 34.5744 45.9364ZM38.151 42.5881C38.658 42.1631 39.2591 41.8223 39.9975 41.6014L39.9865 40.8713L39.2501 40.8198C38.9866 41.535 38.6089 42.1116 38.151 42.5881ZM38.7351 43.5133C38.2252 43.976 37.8355 44.5594 37.4978 45.1944L37.2423 45.4332C36.5821 45.7304 35.973 46.084 35.4771 46.5625C34.9952 47.0271 34.6135 47.6205 34.387 48.415L34.2668 48.837L33.827 48.8063L32.1679 48.6914L31.668 48.6567L31.66 48.1614L31.6349 46.5159L31.6289 46.081L32.0617 45.985C32.8742 45.8056 33.4944 45.4609 33.9913 45.0102C34.5002 44.5475 34.891 43.9641 35.2286 43.3291L35.4841 43.0903C36.1433 42.7921 36.7534 42.4395 37.2494 41.961C37.7303 41.4974 38.113 40.903 38.3384 40.1085L38.4586 39.6865L38.8984 39.7162L40.5585 39.8321L41.0574 39.8668L41.0655 40.3621L41.0905 42.0076L41.0975 42.4425L40.6647 42.5385C39.8522 42.7169 39.232 43.0626 38.7351 43.5133ZM36.6222 44.5337C36.9338 43.969 37.2914 43.439 37.7363 42.9764C37.2464 43.3895 36.6913 43.7134 36.1042 43.9898C35.7927 44.5555 35.435 45.0855 34.9902 45.5481C35.4801 45.135 36.0341 44.8111 36.6222 44.5337Z" fill="#1F1F1F"/>
<path fill-rule="evenodd" clip-rule="evenodd" d="M37.0162 44.9436C37.7436 43.5755 38.7134 42.4184 40.5478 42.0133L40.5227 40.3688L38.8626 40.2539C38.3537 42.042 37.1314 42.9365 35.7098 43.5795C34.9824 44.9475 34.0136 46.1056 32.1792 46.5097L32.2042 48.1542L33.8633 48.2691C34.3723 46.481 35.5946 45.5865 37.0162 44.9436Z" fill="#C2C2C2"/>
<path d="M68.2904 77.6133L46.2654 54.6435M44.4541 52.7009L37.1274 45.0592L44.4541 52.7009Z" stroke="#1F1F1F" stroke-width="1.41732" stroke-miterlimit="22.9256"/>
</g>
<defs>
<clipPath id="clip0_551_44">
<rect width="59" height="97" fill="white" transform="translate(22 8)"/>
</clipPath>
</defs>
</svg>
