<svg width="256" height="256" viewBox="0 0 256 256" fill="none" xmlns="http://www.w3.org/2000/svg">
<path d="M11.083 40.4382C11.5802 39.0911 12.7271 38.078 14.1396 37.7382L162.451 2.06151C165.887 1.23497 168.834 4.58237 167.521 7.82059L155.529 37.3991C155.007 38.6862 153.887 39.6454 152.521 39.9739L5.38797 75.3672C2.01203 76.1792 -0.919086 72.953 0.269416 69.7332L11.083 40.4382Z" fill="#3B5249"/>
<path d="M171.073 0.0345062C171.084 0.0717185 171.048 0.10591 171.011 0.0937079C170.965 0.0785218 170.967 0.0128214 171.015 0.00137916C171.04 -0.00470501 171.066 0.00988015 171.073 0.0345062Z" fill="#3B5249"/>
<path d="M63.8944 49.7448C63.8944 47.3759 65.842 45.4556 68.2444 45.4556H94.3439C96.7463 45.4556 98.6938 47.3759 98.6938 49.7448V212.733C98.6938 215.102 96.7463 217.022 94.3439 217.022H68.2444C65.842 217.022 63.8944 215.102 63.8944 212.733V49.7448Z" fill="#3B5249"/>
<path d="M132.615 90.7529C132.62 88.8246 133.929 87.1366 135.815 86.6271L158.964 80.3735C161.706 79.6328 164.42 81.642 164.463 84.4449L166.936 244.584C166.966 246.539 165.652 248.266 163.74 248.785L137.706 255.844C134.932 256.596 132.195 254.534 132.203 251.698L132.615 90.7529Z" fill="#3B5249"/>
<path d="M254.097 196.405C255.301 193.144 252.283 189.897 248.884 190.795L135.648 220.713C133.327 221.326 131.95 223.678 132.572 225.966L139.327 250.824C139.949 253.112 142.334 254.47 144.655 253.857L240.238 228.603C241.609 228.241 242.715 227.242 243.2 225.927L254.097 196.405Z" fill="#3B5249"/>
<path d="M255.117 61.9612C256.321 58.7001 253.303 55.453 249.904 56.3512L136.825 86.2273C134.504 86.8404 133.127 89.1924 133.749 91.4805L140.504 116.339C141.126 118.627 143.511 119.985 145.832 119.371L241.258 94.1591C242.629 93.7969 243.734 92.7981 244.22 91.4831L255.117 61.9612Z" fill="#3B5249"/>
<path d="M255.73 127.852C256.934 124.591 253.916 121.344 250.517 122.242L136.825 152.28C134.504 152.894 133.127 155.245 133.749 157.534L140.504 182.392C141.126 184.68 143.511 186.038 145.832 185.425L241.871 160.05C243.242 159.688 244.347 158.689 244.833 157.374L255.73 127.852Z" fill="#3B5249"/>
</svg>
