<svg width="41" height="29" viewBox="0 0 41 29" fill="none" xmlns="http://www.w3.org/2000/svg">
<g opacity="0.8">
<path d="M37.3965 0H3.60352C1.61902 0 0 1.46751 0 3.26986V25.0689C0 26.8651 1.61181 28.3388 3.60352 28.3388H37.3965C39.376 28.3388 41 26.8762 41 25.0689V3.26986C41 1.47362 39.3882 0 37.3965 0ZM36.8989 2.1799L20.5764 16.9911L4.11273 2.1799H36.8989ZM2.40234 24.6175V3.71085L13.972 14.1192L2.40234 24.6175ZM4.10104 26.1589L15.6779 15.6539L19.7345 19.3032C20.204 19.7257 20.9618 19.7243 21.4295 19.2999L25.3848 15.7108L36.899 26.1589H4.10104ZM38.5977 24.6174L27.0835 14.1694L38.5977 3.72124V24.6174Z" fill="#FBFBFB"/>
</g>
</svg>
