<svg width="35" height="39" viewBox="0 0 35 39" fill="none" xmlns="http://www.w3.org/2000/svg">
<g opacity="0.8">
<path d="M34.9255 29.9731C34.8265 29.6434 34.1967 29.1578 33.0364 28.5173C32.7221 28.3154 32.2742 28.041 31.6946 27.693C31.1146 27.3449 30.5881 27.0242 30.116 26.731C29.6431 26.438 29.2 26.1542 28.786 25.8798C28.7198 25.8249 28.5126 25.6648 28.1646 25.3987C27.8163 25.1333 27.5225 24.9363 27.2817 24.8078C27.0415 24.6801 26.8052 24.6158 26.5732 24.6158C26.2418 24.6158 25.8278 24.877 25.3308 25.3987C24.8338 25.921 24.3779 26.4884 23.9638 27.1025C23.5496 27.7163 23.1104 28.2837 22.6468 28.8058C22.1825 29.328 21.8011 29.5889 21.5031 29.5889C21.3536 29.5889 21.167 29.5428 20.9435 29.4518C20.7201 29.3603 20.5502 29.2819 20.4335 29.2187C20.3179 29.1541 20.1194 29.0263 19.8375 28.8334C19.555 28.641 19.398 28.5356 19.3649 28.5173C17.0945 27.1249 15.1474 25.5314 13.5231 23.737C11.8993 21.9415 10.4572 19.7897 9.19776 17.2802C9.18121 17.2436 9.0857 17.0695 8.91182 16.7583C8.73768 16.4468 8.62161 16.2273 8.56362 16.0987C8.50563 15.9707 8.4352 15.7828 8.35248 15.5356C8.26976 15.2884 8.22823 15.0825 8.22823 14.9174C8.22823 14.5879 8.46445 14.1664 8.93681 13.6535C9.40908 13.1409 9.92296 12.6554 10.478 12.1978C11.0334 11.7402 11.5467 11.2363 12.0192 10.6871C12.4915 10.1375 12.7276 9.67983 12.7276 9.31358C12.7276 9.05732 12.6696 8.79606 12.5537 8.53056C12.4377 8.26449 12.2596 7.93981 12.0192 7.55499C11.7787 7.17036 11.6337 6.94162 11.5839 6.868C11.3356 6.41043 11.079 5.92053 10.8135 5.39848C10.548 4.87653 10.2583 4.29473 9.94325 3.65374C9.62849 3.01305 9.38008 2.51833 9.19758 2.17036C8.61787 0.888488 8.17877 0.192171 7.88038 0.0826612C7.76432 0.0277141 7.59018 0 7.3584 0C6.91068 0 6.32661 0.0914181 5.60576 0.274832C4.88464 0.457957 4.31721 0.650031 3.90284 0.851825C3.07419 1.23626 2.19591 2.35349 1.26774 4.20312C0.422552 5.92447 0 7.62822 0 9.3131C0 9.80724 0.0289944 10.288 0.0869832 10.7555C0.144972 11.2225 0.248586 11.7492 0.397911 12.3354C0.546976 12.9214 0.66722 13.3568 0.758121 13.6403C0.849109 13.9239 1.01898 14.4321 1.26766 15.165C1.51598 15.8977 1.66531 16.3462 1.71502 16.5111C2.295 18.3061 2.98277 19.9087 3.77815 21.3191C5.08682 23.6634 6.87272 26.0862 9.1348 28.5865C11.397 31.0865 13.5887 33.0602 15.7101 34.5071C16.9861 35.386 18.4366 36.1461 20.0606 36.7875C20.2098 36.8422 20.6156 37.0068 21.2783 37.2822C21.9413 37.5569 22.4013 37.7446 22.658 37.8454C22.9147 37.9462 23.3087 38.0792 23.8385 38.2442C24.3695 38.4093 24.8456 38.5238 25.2681 38.5884C25.691 38.6516 26.126 38.6842 26.5732 38.6842C28.0977 38.6842 29.6393 38.2169 31.1971 37.2829C32.8705 36.2575 33.8811 35.2866 34.2292 34.3701C34.4122 33.9127 34.5855 33.2853 34.7512 32.4884C34.9174 31.6918 35 31.0464 35 30.5517C35.0005 30.2944 34.9755 30.1025 34.9255 29.9731Z" fill="#FBFBFB"/>
</g>
</svg>
