<svg width="480" height="343" viewBox="0 0 480 343" fill="none" xmlns="http://www.w3.org/2000/svg">
<g clip-path="url(#clip0_509_169)">
<path d="M279.599 60.4668C288.595 60.4668 295.888 53.3016 295.888 44.4629C295.888 35.6242 288.595 28.459 279.599 28.459C270.603 28.459 263.311 35.6242 263.311 44.4629C263.311 53.3016 270.603 60.4668 279.599 60.4668Z" fill="#F2F2F2"/>
<path d="M405.957 297.983C430.168 279.864 441.732 249.418 434.493 220.374C434.313 219.652 434.123 218.932 433.923 218.214C429.124 200.974 417.249 184.588 399.943 179.079C385.412 174.454 369.551 178.011 354.391 176.172C324.632 172.561 301.56 148.903 285.327 124.134C269.093 99.3642 256.617 71.6381 235.045 51.1748C199.489 17.4444 141.487 10.1823 97.4016 32.1382C53.3165 54.0942 25.2348 102.805 26.4324 151.352C27.63 199.899 56.9631 246.313 99.5621 270.939C115.211 279.985 133.311 286.394 151.324 284.151C166.953 282.205 181.155 273.954 196.711 271.505C221.168 267.653 245.47 278.518 266.624 291.178C287.778 303.839 308.211 318.846 332.25 324.715C355.591 330.414 384.509 314.033 405.957 297.983Z" fill="#F2F2F2"/>
<path d="M371.171 33.1577C370.64 32.8101 370.103 32.4804 369.572 32.1448C354.23 22.5042 337.786 14.6723 320.579 8.81089L316.59 62.887H291.297V0.917051C289.705 0.593386 288.1 0.287703 286.496 0V62.887H256.439C239.892 62.887 224.023 56.4288 212.322 44.9331C200.622 33.4373 194.049 17.8458 194.049 1.58843V1.58837C192.438 1.93002 190.84 2.29564 189.241 2.68524V62.887H164.76L160.96 11.3223C143.277 17.9852 126.49 26.7472 110.972 37.4133C110.704 37.5932 110.435 37.779 110.173 37.9588C108.825 38.8878 107.495 39.8348 106.171 40.7938V247.095H178.322L177.047 229.742L170.031 134.471H311.313L304.297 229.742L303.022 247.095H374.374V35.2436C373.312 34.5363 372.244 33.841 371.171 33.1577ZM189.242 118.737H168.872L165.108 67.6101H189.242V118.737ZM286.496 118.737H252.284V117.724C252.284 117.237 252.186 116.755 251.997 116.305C251.807 115.856 251.529 115.447 251.178 115.103C250.827 114.759 250.411 114.486 249.953 114.3C249.494 114.115 249.004 114.019 248.508 114.02H233.635C233.14 114.02 232.649 114.116 232.192 114.302C231.734 114.488 231.319 114.761 230.969 115.105C230.618 115.449 230.341 115.857 230.151 116.307C229.962 116.756 229.865 117.238 229.865 117.724V118.737H194.049V67.6101H286.496V118.737ZM291.297 118.737V67.6101H316.242L312.478 118.737H291.297Z" fill="#3F3D56"/>
<path d="M0 260.305C5.29966 266.474 11.0319 272.273 17.1546 277.657L462.845 278.256C468.968 272.872 474.7 267.074 480 260.904L0 260.305Z" fill="#3F3D56"/>
<path d="M302.237 204.744V256.113C302.238 256.767 302.503 257.395 302.974 257.858C303.445 258.321 304.084 258.581 304.75 258.582H382.229C382.896 258.581 383.534 258.321 384.006 257.858C384.477 257.395 384.742 256.767 384.742 256.113V204.744C384.741 204.089 384.475 203.463 384.004 203C383.533 202.538 382.895 202.278 382.229 202.277H304.75C304.084 202.278 303.446 202.538 302.975 203C302.504 203.463 302.239 204.089 302.237 204.744V204.744Z" fill="#3F3D56"/>
<path d="M304.055 205.382V255.478C304.055 255.828 304.197 256.163 304.449 256.411C304.7 256.658 305.042 256.797 305.398 256.798H381.584C381.94 256.797 382.281 256.658 382.533 256.411C382.785 256.163 382.926 255.828 382.927 255.478V205.382C382.927 205.032 382.786 204.696 382.534 204.448C382.282 204.2 381.941 204.06 381.584 204.06H305.398C305.041 204.06 304.7 204.2 304.448 204.448C304.196 204.696 304.055 205.032 304.055 205.382V205.382Z" fill="#3B5249"/>
<path d="M300.617 266.131C300.759 266.306 300.94 266.447 301.145 266.543C301.35 266.64 301.575 266.689 301.803 266.688H384.765C384.992 266.688 385.216 266.638 385.42 266.542C385.625 266.446 385.806 266.306 385.948 266.133C386.091 265.96 386.193 265.758 386.247 265.541C386.3 265.325 386.304 265.099 386.257 264.881L384.969 258.871C384.916 258.626 384.801 258.397 384.635 258.207C384.469 258.017 384.257 257.87 384.019 257.781C383.846 257.715 383.662 257.68 383.477 257.681H303.086C302.9 257.68 302.716 257.715 302.544 257.781C302.305 257.87 302.094 258.017 301.928 258.207C301.762 258.397 301.647 258.626 301.593 258.871L300.305 264.881C300.26 265.099 300.264 265.324 300.318 265.54C300.372 265.757 300.474 265.958 300.617 266.131V266.131Z" fill="#2F2E41"/>
<path d="M380.63 260.269H382.589C382.754 260.269 382.887 260.138 382.887 259.976V259.055C382.887 258.893 382.754 258.762 382.589 258.762H380.63C380.465 258.762 380.332 258.893 380.332 259.055V259.976C380.332 260.138 380.465 260.269 380.63 260.269Z" fill="#3F3D56"/>
<path d="M375.519 260.269H377.479C377.643 260.269 377.777 260.138 377.777 259.976V259.055C377.777 258.893 377.643 258.762 377.479 258.762H375.519C375.355 258.762 375.222 258.893 375.222 259.055V259.976C375.222 260.138 375.355 260.269 375.519 260.269Z" fill="#3F3D56"/>
<path d="M370.409 260.269H372.369C372.533 260.269 372.667 260.138 372.667 259.976V259.055C372.667 258.893 372.533 258.762 372.369 258.762H370.409C370.245 258.762 370.111 258.893 370.111 259.055V259.976C370.111 260.138 370.245 260.269 370.409 260.269Z" fill="#3F3D56"/>
<path d="M365.299 260.269H367.258C367.423 260.269 367.556 260.138 367.556 259.976V259.055C367.556 258.893 367.423 258.762 367.258 258.762H365.299C365.134 258.762 365.001 258.893 365.001 259.055V259.976C365.001 260.138 365.134 260.269 365.299 260.269Z" fill="#3F3D56"/>
<path d="M360.188 260.269H362.148C362.312 260.269 362.446 260.138 362.446 259.976V259.055C362.446 258.893 362.312 258.762 362.148 258.762H360.188C360.024 258.762 359.891 258.893 359.891 259.055V259.976C359.891 260.138 360.024 260.269 360.188 260.269Z" fill="#3F3D56"/>
<path d="M355.078 260.269H357.038C357.202 260.269 357.335 260.138 357.335 259.976V259.055C357.335 258.893 357.202 258.762 357.038 258.762H355.078C354.914 258.762 354.78 258.893 354.78 259.055V259.976C354.78 260.138 354.914 260.269 355.078 260.269Z" fill="#3F3D56"/>
<path d="M349.968 260.269H351.927C352.092 260.269 352.225 260.138 352.225 259.976V259.055C352.225 258.893 352.092 258.762 351.927 258.762H349.968C349.803 258.762 349.67 258.893 349.67 259.055V259.976C349.67 260.138 349.803 260.269 349.968 260.269Z" fill="#3F3D56"/>
<path d="M344.857 260.269H346.817C346.981 260.269 347.115 260.138 347.115 259.976V259.055C347.115 258.893 346.981 258.762 346.817 258.762H344.857C344.693 258.762 344.56 258.893 344.56 259.055V259.976C344.56 260.138 344.693 260.269 344.857 260.269Z" fill="#3F3D56"/>
<path d="M339.747 260.269H341.707C341.871 260.269 342.004 260.138 342.004 259.976V259.055C342.004 258.893 341.871 258.762 341.707 258.762H339.747C339.583 258.762 339.449 258.893 339.449 259.055V259.976C339.449 260.138 339.583 260.269 339.747 260.269Z" fill="#3F3D56"/>
<path d="M334.637 260.269H336.596C336.761 260.269 336.894 260.138 336.894 259.976V259.055C336.894 258.893 336.761 258.762 336.596 258.762H334.637C334.472 258.762 334.339 258.893 334.339 259.055V259.976C334.339 260.138 334.472 260.269 334.637 260.269Z" fill="#3F3D56"/>
<path d="M329.526 260.269H331.486C331.65 260.269 331.784 260.138 331.784 259.976V259.055C331.784 258.893 331.65 258.762 331.486 258.762H329.526C329.362 258.762 329.229 258.893 329.229 259.055V259.976C329.229 260.138 329.362 260.269 329.526 260.269Z" fill="#3F3D56"/>
<path d="M324.416 260.269H326.376C326.54 260.269 326.673 260.138 326.673 259.976V259.055C326.673 258.893 326.54 258.762 326.376 258.762H324.416C324.252 258.762 324.118 258.893 324.118 259.055V259.976C324.118 260.138 324.252 260.269 324.416 260.269Z" fill="#3F3D56"/>
<path d="M319.306 260.269H321.265C321.43 260.269 321.563 260.138 321.563 259.976V259.055C321.563 258.893 321.43 258.762 321.265 258.762H319.306C319.141 258.762 319.008 258.893 319.008 259.055V259.976C319.008 260.138 319.141 260.269 319.306 260.269Z" fill="#3F3D56"/>
<path d="M314.195 260.269H316.155C316.319 260.269 316.453 260.138 316.453 259.976V259.055C316.453 258.893 316.319 258.762 316.155 258.762H314.195C314.031 258.762 313.897 258.893 313.897 259.055V259.976C313.897 260.138 314.031 260.269 314.195 260.269Z" fill="#3F3D56"/>
<path d="M309.085 260.269H311.044C311.209 260.269 311.342 260.138 311.342 259.976V259.055C311.342 258.893 311.209 258.762 311.044 258.762H309.085C308.92 258.762 308.787 258.893 308.787 259.055V259.976C308.787 260.138 308.92 260.269 309.085 260.269Z" fill="#3F3D56"/>
<path d="M303.974 260.269H305.934C306.098 260.269 306.231 260.138 306.231 259.976V259.055C306.231 258.893 306.098 258.762 305.934 258.762H303.974C303.81 258.762 303.676 258.893 303.676 259.055V259.976C303.676 260.138 303.81 260.269 303.974 260.269Z" fill="#3F3D56"/>
<path d="M380.69 262.779H382.65C382.814 262.779 382.948 262.648 382.948 262.487V261.566C382.948 261.404 382.814 261.273 382.65 261.273H380.69C380.526 261.273 380.393 261.404 380.393 261.566V262.487C380.393 262.648 380.526 262.779 380.69 262.779Z" fill="#3F3D56"/>
<path d="M375.58 262.779H377.54C377.704 262.779 377.837 262.648 377.837 262.487V261.566C377.837 261.404 377.704 261.273 377.54 261.273H375.58C375.416 261.273 375.282 261.404 375.282 261.566V262.487C375.282 262.648 375.416 262.779 375.58 262.779Z" fill="#3F3D56"/>
<path d="M370.47 262.779H372.429C372.594 262.779 372.727 262.648 372.727 262.487V261.566C372.727 261.404 372.594 261.273 372.429 261.273H370.47C370.305 261.273 370.172 261.404 370.172 261.566V262.487C370.172 262.648 370.305 262.779 370.47 262.779Z" fill="#3F3D56"/>
<path d="M365.359 262.779H367.319C367.483 262.779 367.617 262.648 367.617 262.487V261.566C367.617 261.404 367.483 261.273 367.319 261.273H365.359C365.195 261.273 365.062 261.404 365.062 261.566V262.487C365.062 262.648 365.195 262.779 365.359 262.779Z" fill="#3F3D56"/>
<path d="M360.249 262.779H362.209C362.373 262.779 362.506 262.648 362.506 262.487V261.566C362.506 261.404 362.373 261.273 362.209 261.273H360.249C360.085 261.273 359.951 261.404 359.951 261.566V262.487C359.951 262.648 360.085 262.779 360.249 262.779Z" fill="#3F3D56"/>
<path d="M355.139 262.779H357.098C357.263 262.779 357.396 262.648 357.396 262.487V261.566C357.396 261.404 357.263 261.273 357.098 261.273H355.139C354.974 261.273 354.841 261.404 354.841 261.566V262.487C354.841 262.648 354.974 262.779 355.139 262.779Z" fill="#3F3D56"/>
<path d="M350.028 262.779H351.988C352.152 262.779 352.286 262.648 352.286 262.487V261.566C352.286 261.404 352.152 261.273 351.988 261.273H350.028C349.864 261.273 349.73 261.404 349.73 261.566V262.487C349.73 262.648 349.864 262.779 350.028 262.779Z" fill="#3F3D56"/>
<path d="M344.918 262.779H346.877C347.042 262.779 347.175 262.648 347.175 262.487V261.566C347.175 261.404 347.042 261.273 346.877 261.273H344.918C344.753 261.273 344.62 261.404 344.62 261.566V262.487C344.62 262.648 344.753 262.779 344.918 262.779Z" fill="#3F3D56"/>
<path d="M339.808 262.779H341.767C341.932 262.779 342.065 262.648 342.065 262.487V261.566C342.065 261.404 341.932 261.273 341.767 261.273H339.808C339.643 261.273 339.51 261.404 339.51 261.566V262.487C339.51 262.648 339.643 262.779 339.808 262.779Z" fill="#3F3D56"/>
<path d="M334.697 262.779H336.657C336.821 262.779 336.955 262.648 336.955 262.487V261.566C336.955 261.404 336.821 261.273 336.657 261.273H334.697C334.533 261.273 334.399 261.404 334.399 261.566V262.487C334.399 262.648 334.533 262.779 334.697 262.779Z" fill="#3F3D56"/>
<path d="M329.586 262.779H331.546C331.71 262.779 331.844 262.648 331.844 262.487V261.566C331.844 261.404 331.71 261.273 331.546 261.273H329.586C329.422 261.273 329.289 261.404 329.289 261.566V262.487C329.289 262.648 329.422 262.779 329.586 262.779Z" fill="#3F3D56"/>
<path d="M324.476 262.779H326.436C326.6 262.779 326.733 262.648 326.733 262.487V261.566C326.733 261.404 326.6 261.273 326.436 261.273H324.476C324.312 261.273 324.178 261.404 324.178 261.566V262.487C324.178 262.648 324.312 262.779 324.476 262.779Z" fill="#3F3D56"/>
<path d="M319.366 262.779H321.325C321.49 262.779 321.623 262.648 321.623 262.487V261.566C321.623 261.404 321.49 261.273 321.325 261.273H319.366C319.201 261.273 319.068 261.404 319.068 261.566V262.487C319.068 262.648 319.201 262.779 319.366 262.779Z" fill="#3F3D56"/>
<path d="M314.255 262.779H316.215C316.379 262.779 316.513 262.648 316.513 262.487V261.566C316.513 261.404 316.379 261.273 316.215 261.273H314.255C314.091 261.273 313.958 261.404 313.958 261.566V262.487C313.958 262.648 314.091 262.779 314.255 262.779Z" fill="#3F3D56"/>
<path d="M309.145 262.779H311.105C311.269 262.779 311.402 262.648 311.402 262.487V261.566C311.402 261.404 311.269 261.273 311.105 261.273H309.145C308.98 261.273 308.847 261.404 308.847 261.566V262.487C308.847 262.648 308.98 262.779 309.145 262.779Z" fill="#3F3D56"/>
<path d="M304.035 262.779H305.994C306.159 262.779 306.292 262.648 306.292 262.487V261.566C306.292 261.404 306.159 261.273 305.994 261.273H304.035C303.87 261.273 303.737 261.404 303.737 261.566V262.487C303.737 262.648 303.87 262.779 304.035 262.779Z" fill="#3F3D56"/>
<path d="M338.274 265.792H358.12C358.285 265.792 358.418 265.661 358.418 265.499V264.578C358.418 264.417 358.285 264.286 358.12 264.286H338.274C338.11 264.286 337.976 264.417 337.976 264.578V265.499C337.976 265.661 338.11 265.792 338.274 265.792Z" fill="#3F3D56"/>
<path d="M317.248 215.02H315.513C314.987 215.02 314.561 215.438 314.561 215.955C314.561 216.472 314.987 216.891 315.513 216.891H317.248C317.774 216.891 318.201 216.472 318.201 215.955C318.201 215.438 317.774 215.02 317.248 215.02Z" fill="white"/>
<path d="M337.089 215.02H335.354C334.828 215.02 334.402 215.438 334.402 215.955C334.402 216.472 334.828 216.891 335.354 216.891H337.089C337.615 216.891 338.041 216.472 338.041 215.955C338.041 215.438 337.615 215.02 337.089 215.02Z" fill="white"/>
<path d="M342.711 215.02H340.976C340.45 215.02 340.023 215.438 340.023 215.955C340.023 216.472 340.45 216.891 340.976 216.891H342.711C343.237 216.891 343.663 216.472 343.663 215.955C343.663 215.438 343.237 215.02 342.711 215.02Z" fill="white"/>
<path d="M331.692 214.864H320.91C320.384 214.864 319.958 215.283 319.958 215.8C319.958 216.317 320.384 216.736 320.91 216.736H331.692C332.218 216.736 332.644 216.317 332.644 215.8C332.644 215.283 332.218 214.864 331.692 214.864Z" fill="white"/>
<path d="M358.146 214.864H347.364C346.838 214.864 346.412 215.283 346.412 215.8C346.412 216.317 346.838 216.736 347.364 216.736H358.146C358.672 216.736 359.099 216.317 359.099 215.8C359.099 215.283 358.672 214.864 358.146 214.864Z" fill="white"/>
<path d="M322.539 219.243H320.804C320.278 219.243 319.852 219.662 319.852 220.179C319.852 220.696 320.278 221.115 320.804 221.115H322.539C323.065 221.115 323.492 220.696 323.492 220.179C323.492 219.662 323.065 219.243 322.539 219.243Z" fill="white"/>
<path d="M342.38 219.243H340.645C340.119 219.243 339.692 219.662 339.692 220.179C339.692 220.696 340.119 221.115 340.645 221.115H342.38C342.905 221.115 343.332 220.696 343.332 220.179C343.332 219.662 342.905 219.243 342.38 219.243Z" fill="white"/>
<path d="M348.001 219.243H346.266C345.74 219.243 345.314 219.662 345.314 220.179C345.314 220.696 345.74 221.115 346.266 221.115H348.001C348.527 221.115 348.953 220.696 348.953 220.179C348.953 219.662 348.527 219.243 348.001 219.243Z" fill="white"/>
<path d="M336.983 219.088H326.201C325.675 219.088 325.249 219.507 325.249 220.024C325.249 220.54 325.675 220.959 326.201 220.959H336.983C337.509 220.959 337.935 220.54 337.935 220.024C337.935 219.507 337.509 219.088 336.983 219.088Z" fill="white"/>
<path d="M363.437 219.088H352.655C352.13 219.088 351.703 219.507 351.703 220.024C351.703 220.54 352.13 220.959 352.655 220.959H363.437C363.963 220.959 364.39 220.54 364.39 220.024C364.39 219.507 363.963 219.088 363.437 219.088Z" fill="white"/>
<path d="M327.83 223.468H326.095C325.569 223.468 325.143 223.887 325.143 224.403C325.143 224.92 325.569 225.339 326.095 225.339H327.83C328.356 225.339 328.783 224.92 328.783 224.403C328.783 223.887 328.356 223.468 327.83 223.468Z" fill="white"/>
<path d="M347.671 223.468H345.936C345.41 223.468 344.983 223.887 344.983 224.403C344.983 224.92 345.41 225.339 345.936 225.339H347.671C348.196 225.339 348.623 224.92 348.623 224.403C348.623 223.887 348.196 223.468 347.671 223.468Z" fill="white"/>
<path d="M353.292 223.468H351.557C351.031 223.468 350.605 223.887 350.605 224.403C350.605 224.92 351.031 225.339 351.557 225.339H353.292C353.818 225.339 354.244 224.92 354.244 224.403C354.244 223.887 353.818 223.468 353.292 223.468Z" fill="white"/>
<path d="M342.274 223.311H331.492C330.966 223.311 330.54 223.729 330.54 224.246C330.54 224.763 330.966 225.182 331.492 225.182H342.274C342.8 225.182 343.226 224.763 343.226 224.246C343.226 223.729 342.8 223.311 342.274 223.311Z" fill="white"/>
<path d="M368.728 223.311H357.946C357.42 223.311 356.994 223.729 356.994 224.246C356.994 224.763 357.42 225.182 357.946 225.182H368.728C369.254 225.182 369.68 224.763 369.68 224.246C369.68 223.729 369.254 223.311 368.728 223.311Z" fill="white"/>
<path d="M333.121 227.69H331.386C330.86 227.69 330.434 228.109 330.434 228.626C330.434 229.143 330.86 229.562 331.386 229.562H333.121C333.647 229.562 334.073 229.143 334.073 228.626C334.073 228.109 333.647 227.69 333.121 227.69Z" fill="white"/>
<path d="M352.962 227.69H351.227C350.701 227.69 350.274 228.109 350.274 228.626C350.274 229.143 350.701 229.562 351.227 229.562H352.962C353.488 229.562 353.914 229.143 353.914 228.626C353.914 228.109 353.488 227.69 352.962 227.69Z" fill="white"/>
<path d="M358.583 227.69H356.848C356.322 227.69 355.896 228.109 355.896 228.626C355.896 229.143 356.322 229.562 356.848 229.562H358.583C359.109 229.562 359.535 229.143 359.535 228.626C359.535 228.109 359.109 227.69 358.583 227.69Z" fill="white"/>
<path d="M347.564 227.534H336.782C336.256 227.534 335.83 227.953 335.83 228.47C335.83 228.987 336.256 229.406 336.782 229.406H347.564C348.09 229.406 348.517 228.987 348.517 228.47C348.517 227.953 348.09 227.534 347.564 227.534Z" fill="white"/>
<path d="M337.089 244.485H335.354C334.828 244.485 334.402 244.904 334.402 245.421C334.402 245.938 334.828 246.357 335.354 246.357H337.089C337.615 246.357 338.041 245.938 338.041 245.421C338.041 244.904 337.615 244.485 337.089 244.485Z" fill="white"/>
<path d="M342.711 244.485H340.976C340.45 244.485 340.023 244.904 340.023 245.421C340.023 245.938 340.45 246.357 340.976 246.357H342.711C343.237 246.357 343.663 245.938 343.663 245.421C343.663 244.904 343.237 244.485 342.711 244.485Z" fill="white"/>
<path d="M358.146 244.642H347.364C346.838 244.642 346.412 245.061 346.412 245.577C346.412 246.094 346.838 246.513 347.364 246.513H358.146C358.672 246.513 359.099 246.094 359.099 245.577C359.099 245.061 358.672 244.642 358.146 244.642Z" fill="white"/>
<path d="M317.248 244.485H315.513C314.987 244.485 314.561 244.904 314.561 245.421C314.561 245.938 314.987 246.357 315.513 246.357H317.248C317.774 246.357 318.201 245.938 318.201 245.421C318.201 244.904 317.774 244.485 317.248 244.485Z" fill="white"/>
<path d="M331.692 244.642H320.91C320.384 244.642 319.958 245.061 319.958 245.577C319.958 246.094 320.384 246.513 320.91 246.513H331.692C332.218 246.513 332.644 246.094 332.644 245.577C332.644 245.061 332.218 244.642 331.692 244.642Z" fill="white"/>
<path d="M322.539 240.263H320.804C320.278 240.263 319.852 240.682 319.852 241.198C319.852 241.715 320.278 242.134 320.804 242.134H322.539C323.065 242.134 323.492 241.715 323.492 241.198C323.492 240.682 323.065 240.263 322.539 240.263Z" fill="white"/>
<path d="M342.38 240.263H340.645C340.119 240.263 339.692 240.682 339.692 241.198C339.692 241.715 340.119 242.134 340.645 242.134H342.38C342.905 242.134 343.332 241.715 343.332 241.198C343.332 240.682 342.905 240.263 342.38 240.263Z" fill="white"/>
<path d="M348.001 240.263H346.266C345.74 240.263 345.314 240.682 345.314 241.198C345.314 241.715 345.74 242.134 346.266 242.134H348.001C348.527 242.134 348.953 241.715 348.953 241.198C348.953 240.682 348.527 240.263 348.001 240.263Z" fill="white"/>
<path d="M336.983 240.418H326.201C325.675 240.418 325.249 240.837 325.249 241.354C325.249 241.87 325.675 242.289 326.201 242.289H336.983C337.509 242.289 337.935 241.87 337.935 241.354C337.935 240.837 337.509 240.418 336.983 240.418Z" fill="white"/>
<path d="M327.83 236.038H326.095C325.569 236.038 325.143 236.457 325.143 236.974C325.143 237.491 325.569 237.909 326.095 237.909H327.83C328.356 237.909 328.783 237.491 328.783 236.974C328.783 236.457 328.356 236.038 327.83 236.038Z" fill="white"/>
<path d="M347.671 236.038H345.936C345.41 236.038 344.983 236.457 344.983 236.974C344.983 237.491 345.41 237.909 345.936 237.909H347.671C348.196 237.909 348.623 237.491 348.623 236.974C348.623 236.457 348.196 236.038 347.671 236.038Z" fill="white"/>
<path d="M353.292 236.038H351.557C351.031 236.038 350.605 236.457 350.605 236.974C350.605 237.491 351.031 237.909 351.557 237.909H353.292C353.818 237.909 354.244 237.491 354.244 236.974C354.244 236.457 353.818 236.038 353.292 236.038Z" fill="white"/>
<path d="M342.274 236.194H331.492C330.966 236.194 330.54 236.613 330.54 237.13C330.54 237.647 330.966 238.066 331.492 238.066H342.274C342.8 238.066 343.226 237.647 343.226 237.13C343.226 236.613 342.8 236.194 342.274 236.194Z" fill="white"/>
<path d="M333.121 231.814H331.386C330.86 231.814 330.434 232.233 330.434 232.75C330.434 233.267 330.86 233.686 331.386 233.686H333.121C333.647 233.686 334.073 233.267 334.073 232.75C334.073 232.233 333.647 231.814 333.121 231.814Z" fill="white"/>
<path d="M352.962 231.814H351.227C350.701 231.814 350.274 232.233 350.274 232.75C350.274 233.267 350.701 233.686 351.227 233.686H352.962C353.488 233.686 353.914 233.267 353.914 232.75C353.914 232.233 353.488 231.814 352.962 231.814Z" fill="white"/>
<path d="M358.583 231.814H356.848C356.322 231.814 355.896 232.233 355.896 232.75C355.896 233.267 356.322 233.686 356.848 233.686H358.583C359.109 233.686 359.535 233.267 359.535 232.75C359.535 232.233 359.109 231.814 358.583 231.814Z" fill="white"/>
<path d="M347.564 231.971H336.782C336.256 231.971 335.83 232.39 335.83 232.906C335.83 233.423 336.256 233.842 336.782 233.842H347.564C348.09 233.842 348.517 233.423 348.517 232.906C348.517 232.39 348.09 231.971 347.564 231.971Z" fill="white"/>
<path d="M308.025 293.984L299.881 281.336L325.444 261.315L335.995 249.831C337.365 248.338 339.111 247.226 341.056 246.604C343.002 245.983 345.079 245.873 347.081 246.288C349.083 246.702 350.939 247.625 352.464 248.965C353.989 250.305 355.13 252.014 355.771 253.923C356.722 256.751 356.518 259.832 355.201 262.515C353.884 265.198 351.558 267.273 348.713 268.303L332.029 274.342L308.025 293.984Z" fill="#FFB6B6"/>
<path d="M116.94 202.279V263.751H160.773V202.279C160.773 201.837 160.63 201.406 160.363 201.05C160.096 200.694 159.72 200.432 159.29 200.301C159.088 200.235 158.875 200.203 158.662 200.205H119.057C118.78 200.205 118.505 200.258 118.248 200.362C117.991 200.466 117.758 200.618 117.561 200.811C117.365 201.004 117.209 201.232 117.102 201.484C116.996 201.736 116.941 202.006 116.94 202.279V202.279ZM134.046 223.401C134.058 222.189 134.556 221.031 135.432 220.178C136.308 219.325 137.492 218.846 138.725 218.846C139.959 218.846 141.142 219.325 142.019 220.178C142.895 221.031 143.393 222.189 143.404 223.401V230.534C143.398 231.749 142.902 232.912 142.026 233.769C141.149 234.627 139.962 235.108 138.725 235.108C137.488 235.108 136.302 234.627 135.425 233.769C134.548 232.912 134.053 231.749 134.046 230.534V223.401Z" fill="#2F2E41"/>
<path d="M116.807 261.786V267.714C116.808 268.021 116.932 268.315 117.152 268.533C117.373 268.751 117.672 268.874 117.984 268.877H159.73C160.043 268.875 160.342 268.752 160.563 268.534C160.783 268.316 160.907 268.021 160.907 267.714V261.786H116.807Z" fill="#3F3D56"/>
<path d="M47.9868 109.663V221.903C47.988 223.333 48.5668 224.705 49.5962 225.716C50.6256 226.727 52.0215 227.296 53.4773 227.297H222.766C224.222 227.296 225.618 226.727 226.647 225.716C227.677 224.704 228.256 223.333 228.257 221.903V109.663C228.253 108.234 227.674 106.864 226.644 105.854C225.615 104.844 224.221 104.276 222.766 104.274H53.4773C52.0227 104.276 50.6282 104.844 49.5991 105.854C48.57 106.864 47.9903 108.234 47.9868 109.663Z" fill="#3F3D56"/>
<path d="M51.958 111.06V220.519C51.9594 221.283 52.2689 222.015 52.8189 222.556C53.3689 223.096 54.1145 223.4 54.8923 223.402H221.357C222.135 223.4 222.88 223.096 223.43 222.556C223.98 222.015 224.29 221.283 224.291 220.519V111.06C224.291 110.295 223.982 109.561 223.432 109.019C222.882 108.478 222.136 108.173 221.357 108.171H54.8923C54.1136 108.173 53.3673 108.478 52.8172 109.019C52.2671 109.561 51.9581 110.295 51.958 111.06Z" fill="white"/>
<path d="M82.8507 268.475C83.0201 268.684 83.2355 268.852 83.4806 268.968C83.7257 269.083 83.9942 269.142 84.266 269.141H183.302C183.572 269.14 183.84 269.081 184.084 268.966C184.329 268.851 184.544 268.685 184.715 268.478C184.885 268.271 185.007 268.03 185.071 267.771C185.134 267.513 185.139 267.243 185.083 266.983L183.546 259.808C183.482 259.516 183.345 259.243 183.147 259.016C182.948 258.789 182.695 258.614 182.411 258.508C182.205 258.428 181.986 258.387 181.764 258.388H85.7972C85.5759 258.387 85.3566 258.428 85.1506 258.508C84.866 258.614 84.6131 258.789 84.4149 259.016C84.2167 259.243 84.0796 259.516 84.0159 259.808L82.4785 266.983C82.4238 267.243 82.4288 267.512 82.4932 267.77C82.5576 268.028 82.6797 268.269 82.8507 268.475Z" fill="#2F2E41"/>
<path d="M215.955 123.249H60.1947C60.0328 123.246 59.8787 123.18 59.7655 123.066C59.6523 122.953 59.5889 122.8 59.5889 122.641C59.5889 122.482 59.6523 122.329 59.7655 122.215C59.8787 122.101 60.0328 122.036 60.1947 122.032H215.955C216.117 122.036 216.271 122.101 216.384 122.215C216.497 122.329 216.561 122.482 216.561 122.641C216.561 122.8 216.497 122.953 216.384 123.066C216.271 123.18 216.117 123.246 215.955 123.249V123.249Z" fill="#3F3D56"/>
<path d="M70.7971 118.924C72.8019 118.924 74.4271 117.292 74.4271 115.278C74.4271 113.264 72.8019 111.632 70.7971 111.632C68.7922 111.632 67.167 113.264 67.167 115.278C67.167 117.292 68.7922 118.924 70.7971 118.924Z" fill="#3F3D56"/>
<path d="M83.3371 118.924C85.3419 118.924 86.9671 117.292 86.9671 115.278C86.9671 113.264 85.3419 111.632 83.3371 111.632C81.3323 111.632 79.707 113.264 79.707 115.278C79.707 117.292 81.3323 118.924 83.3371 118.924Z" fill="#3F3D56"/>
<path d="M95.8776 118.924C97.8824 118.924 99.5077 117.292 99.5077 115.278C99.5077 113.264 97.8824 111.632 95.8776 111.632C93.8728 111.632 92.2476 113.264 92.2476 115.278C92.2476 117.292 93.8728 118.924 95.8776 118.924Z" fill="#3F3D56"/>
<path d="M208.403 112.534H199.496C199.32 112.538 199.153 112.61 199.03 112.734C198.907 112.857 198.838 113.023 198.838 113.196C198.838 113.37 198.907 113.536 199.03 113.659C199.153 113.783 199.32 113.855 199.496 113.859H208.403C208.58 113.856 208.749 113.785 208.874 113.662C208.998 113.538 209.068 113.371 209.068 113.196C209.068 113.022 208.998 112.855 208.874 112.731C208.749 112.607 208.58 112.537 208.403 112.534Z" fill="#3F3D56"/>
<path d="M208.403 115.022H199.496C199.32 115.026 199.152 115.098 199.029 115.222C198.906 115.345 198.837 115.512 198.837 115.685C198.837 115.858 198.906 116.024 199.029 116.148C199.152 116.272 199.32 116.343 199.496 116.347H208.403C208.58 116.345 208.75 116.274 208.874 116.15C208.999 116.026 209.069 115.859 209.069 115.685C209.069 115.511 208.999 115.343 208.874 115.219C208.75 115.095 208.58 115.025 208.403 115.022V115.022Z" fill="#3F3D56"/>
<path d="M208.403 117.509H199.496C199.32 117.513 199.153 117.584 199.03 117.708C198.907 117.832 198.838 117.998 198.838 118.171C198.838 118.344 198.907 118.51 199.03 118.634C199.153 118.758 199.32 118.829 199.496 118.833H208.403C208.58 118.831 208.749 118.76 208.874 118.636C208.998 118.512 209.068 118.345 209.068 118.171C209.068 117.997 208.998 117.83 208.874 117.706C208.749 117.582 208.58 117.511 208.403 117.509V117.509Z" fill="#3F3D56"/>
<path d="M423.129 264.388C423.397 265.157 423.907 265.822 424.585 266.289C425.263 266.755 426.073 266.998 426.901 266.984L443.062 266.575C443.895 266.559 444.701 266.279 445.359 265.776C446.016 265.272 446.491 264.574 446.711 263.784L448.998 239.756C449.809 240.118 450.692 240.296 451.583 240.278C452.357 240.259 453.119 240.091 453.827 239.782C454.534 239.473 455.173 239.031 455.706 238.48C456.239 237.929 456.657 237.28 456.935 236.57C457.213 235.861 457.347 235.104 457.327 234.344C457.308 233.584 457.136 232.835 456.822 232.14C456.508 231.445 456.058 230.817 455.497 230.293C454.936 229.769 454.276 229.359 453.553 229.085C452.831 228.812 452.061 228.681 451.287 228.7C450.931 228.699 450.576 228.735 450.228 228.809C449.849 228.406 449.389 228.086 448.877 227.869C448.365 227.652 447.812 227.543 447.255 227.548L422.395 228.179C422.189 228.186 421.983 228.211 421.782 228.254C421.236 228.353 420.719 228.567 420.265 228.88C419.811 229.192 419.43 229.597 419.149 230.066C418.867 230.536 418.691 231.059 418.632 231.601C418.573 232.142 418.634 232.69 418.809 233.207L423.129 264.388ZM449.467 238.125L451.094 232.399C451.279 231.738 451.283 231.04 451.106 230.377C451.185 230.376 451.255 230.34 451.334 230.339C452.45 230.317 453.529 230.73 454.336 231.488C455.142 232.246 455.61 233.287 455.636 234.384C455.662 235.48 455.245 236.542 454.475 237.336C453.706 238.13 452.647 238.592 451.531 238.621C450.81 238.643 450.096 238.472 449.467 238.125Z" fill="#2F2E41"/>
<path d="M421.781 228.253C422.311 231.229 428.266 233.32 435.426 232.957C442.01 232.659 447.393 230.387 448.379 227.695C448.014 227.589 447.635 227.539 447.254 227.548L422.394 228.178C422.188 228.186 421.983 228.211 421.781 228.253V228.253Z" fill="#3F3D56"/>
<path d="M436.738 251.184C436.771 251.176 436.802 251.162 436.83 251.144L440.34 248.887C440.382 248.86 440.417 248.822 440.441 248.779C440.465 248.735 440.478 248.686 440.478 248.636C440.478 248.586 440.465 248.538 440.441 248.494C440.417 248.45 440.382 248.413 440.34 248.386L436.692 246.038C436.658 246.016 436.621 246.001 436.581 245.994C436.542 245.986 436.501 245.986 436.462 245.994C436.423 246.002 436.385 246.018 436.352 246.04C436.319 246.062 436.291 246.091 436.269 246.124C436.247 246.157 436.231 246.194 436.224 246.232C436.217 246.271 436.217 246.311 436.225 246.349C436.234 246.388 436.249 246.425 436.272 246.457C436.295 246.49 436.324 246.518 436.358 246.539L439.616 248.636L436.496 250.642C436.436 250.681 436.391 250.74 436.371 250.808C436.35 250.876 436.355 250.949 436.384 251.014C436.413 251.079 436.464 251.131 436.529 251.162C436.594 251.194 436.668 251.201 436.738 251.184H436.738Z" fill="#3B5249"/>
<path d="M431.194 251.436C431.253 251.421 431.306 251.39 431.347 251.345C431.387 251.301 431.413 251.245 431.422 251.186C431.43 251.127 431.42 251.067 431.393 251.013C431.366 250.96 431.324 250.915 431.271 250.885L428.036 249.063L431.163 246.781C431.195 246.758 431.222 246.728 431.243 246.694C431.263 246.661 431.277 246.623 431.283 246.584C431.289 246.545 431.287 246.506 431.277 246.468C431.267 246.43 431.25 246.394 431.226 246.362C431.202 246.33 431.172 246.304 431.138 246.284C431.103 246.264 431.065 246.25 431.026 246.244C430.986 246.239 430.946 246.241 430.907 246.25C430.868 246.26 430.832 246.277 430.799 246.3L427.299 248.855C427.258 248.885 427.225 248.924 427.204 248.969C427.183 249.014 427.173 249.064 427.176 249.113C427.179 249.163 427.194 249.211 427.221 249.254C427.248 249.296 427.285 249.331 427.329 249.356L430.968 251.405C431.036 251.444 431.118 251.455 431.194 251.436V251.436Z" fill="#3B5249"/>
<path d="M436.389 253.162C436.418 253.155 436.446 253.143 436.472 253.127C436.507 253.107 436.536 253.08 436.56 253.048C436.584 253.016 436.601 252.98 436.61 252.942C436.62 252.904 436.622 252.864 436.615 252.825C436.609 252.786 436.595 252.749 436.574 252.715L431.599 244.679C431.557 244.611 431.489 244.562 431.411 244.544C431.332 244.525 431.249 244.538 431.18 244.579C431.111 244.62 431.062 244.687 431.042 244.764C431.023 244.841 431.036 244.923 431.078 244.991L436.053 253.027C436.087 253.082 436.138 253.125 436.198 253.149C436.259 253.173 436.326 253.178 436.389 253.162Z" fill="#3B5249"/>
<path d="M156.685 156.335H129.727C128.627 156.335 127.735 157.211 127.735 158.291V160.879C127.735 161.96 128.627 162.836 129.727 162.836H156.685C157.785 162.836 158.677 161.96 158.677 160.879V158.291C158.677 157.211 157.785 156.335 156.685 156.335Z" fill="#3B5249"/>
<path d="M172.399 169.336H114.012C112.913 169.336 112.021 170.212 112.021 171.292V173.88C112.021 174.961 112.913 175.837 114.012 175.837H172.399C173.499 175.837 174.39 174.961 174.39 173.88V171.292C174.39 170.212 173.499 169.336 172.399 169.336Z" fill="#E6E6E6"/>
<path d="M172.399 182.337H114.012C112.913 182.337 112.021 183.213 112.021 184.293V186.881C112.021 187.962 112.913 188.838 114.012 188.838H172.399C173.499 188.838 174.39 187.962 174.39 186.881V184.293C174.39 183.213 173.499 182.337 172.399 182.337Z" fill="#E6E6E6"/>
<path d="M177.349 225.874L177.481 226.284L177.488 226.298L181.468 238.188L186.048 251.891L194.663 277.641L194.747 281.641V281.655L195.387 313.832L193.612 318.194L195.61 325.346C195.61 325.346 194.691 314.535 189.764 320.744C186.973 324.272 183.709 327.882 181.03 331.267C184.934 332.819 188.901 334.223 192.93 335.479C193.8 335.752 194.677 336.012 195.554 336.272C195.742 336.327 195.93 336.381 196.118 336.436C209.475 340.317 223.283 342.498 237.205 342.925C237.929 342.945 238.639 342.959 239.328 342.973C239.571 342.98 239.808 342.986 240.045 342.986C240.824 342.993 241.596 343 242.376 343C243.949 343 245.515 342.977 247.073 342.932C258.611 342.612 270.082 341.088 281.292 338.385C281.216 333.838 281.007 328.525 280.707 322.85C280.568 320.067 277.444 317.052 277.256 314.139C277.123 311.951 279.928 309.893 279.782 307.671C278.835 293.989 277.652 299.241 276.776 289.552C276.685 288.602 276.602 287.692 276.525 286.824C275.961 280.602 275.572 276.711 275.572 276.711L279.316 253.525L285.196 217.122L284.744 216.39L284.236 216.144L253.218 201.061L251.534 196.821C251.044 195.6 250.192 194.551 249.09 193.809C247.987 193.067 246.684 192.666 245.348 192.657L224.915 192.575C223.855 192.571 222.809 192.814 221.863 193.286C220.918 193.759 220.101 194.445 219.48 195.29L213.947 202.818L177.349 225.874Z" fill="#3F3D56"/>
<path d="M199.375 271.91L194.747 281.64L191.587 288.286L186.152 316.245L183.431 319.083L181.1 309.037L156.699 314.361C155.899 309.991 156.485 314.508 155.991 309.715C156.13 309.578 156.276 309.442 156.422 309.305C156.812 308.949 157.139 308.614 157.132 308.293C156.854 291.76 157.689 263.623 164.662 246.577C165.754 243.794 167.194 241.155 168.949 238.721C169.088 238.537 169.22 238.352 169.353 238.167C172.568 233.743 174.6 229.388 177.481 226.291V226.284C177.499 226.269 177.515 226.253 177.53 226.236C177.54 226.231 177.55 226.224 177.557 226.215L197.35 215.904L198.199 239.343L198.804 256.191L199.375 271.91Z" fill="#3F3D56"/>
<path d="M270.741 274.674L276.522 286.827L278.54 291.059L283.973 319.015L286.686 321.846L289.022 311.803L290.12 311.582L309.922 307.552L315.693 325.562C316.994 323.432 317.506 320.927 317.144 318.469C316.781 316.011 315.566 313.751 313.703 312.072C313.309 311.722 312.981 311.381 312.99 311.058C313.319 291.612 312.108 256.105 301.175 241.49C297.703 236.852 295.62 232.233 292.588 229.006C292.579 228.997 292.579 228.988 292.57 228.988L285.193 217.121L284.743 216.392L284.236 216.144L270.741 274.674Z" fill="#3F3D56"/>
<path d="M235.721 186.862C250.734 186.862 262.904 174.905 262.904 160.155C262.904 145.405 250.734 133.447 235.721 133.447C220.709 133.447 208.539 145.405 208.539 160.155C208.539 174.905 220.709 186.862 235.721 186.862Z" fill="#FFB6B6"/>
<path d="M272.462 141.499C272.252 141.278 271.998 141.101 271.716 140.978C271.434 140.856 271.129 140.79 270.821 140.786L271.23 139.671C271.363 139.32 271.399 138.94 271.334 138.571C271.269 138.201 271.105 137.856 270.859 137.569C270.614 137.282 270.295 137.065 269.935 136.939C269.576 136.814 269.189 136.784 268.814 136.854L267.326 137.136L267.466 136.159C267.52 135.795 267.476 135.423 267.34 135.081C267.203 134.739 266.978 134.437 266.687 134.206C266.396 133.975 266.048 133.823 265.679 133.763C265.31 133.704 264.931 133.741 264.58 133.869C264.261 133.992 263.918 134.044 263.576 134.02C263.234 133.996 262.902 133.897 262.604 133.731C262.304 133.57 262.045 133.346 261.842 133.076C261.64 132.806 261.5 132.495 261.432 132.167L260.914 129.709L260.859 129.577C258.333 125.442 253.477 122.433 247.536 121.33C242.246 120.341 236.823 120.844 231.595 121.318C229.521 121.51 227.178 121.725 225.226 122.9C223.567 123.907 222.164 125.921 222.45 127.953C217.295 126.401 211.768 129.499 209.029 133.407C205.784 138.059 205.253 143.885 205.168 148.44C204.936 159.217 207.199 168.034 211.878 174.651C212.22 175.13 212.305 176.131 212.982 176.467L212.842 176.245C213.598 176.617 214.367 177.216 214.08 177.857C213.257 179.703 218.729 183.785 222.584 185.134C229.618 187.597 238.97 187.388 245.547 186.5L245.779 184.972C248.152 184.654 249.823 184.049 250.293 183.102C251.123 182.407 251.83 181.783 252.446 181.208L252.453 181.202C252.465 181.19 252.489 181.172 252.501 181.16C255.472 178.361 256.162 176.767 256.473 174.339C256.772 171.96 256.241 169.544 255.698 167.368C267.13 169.106 251.196 155.405 261.847 152.755C261.969 152.718 262.094 152.688 262.219 152.665C262.531 152.594 262.842 152.522 263.141 152.438C264.582 152.053 265.961 151.475 267.24 150.717C270.217 148.937 271.199 146.576 272.737 143.915C272.959 143.536 273.052 143.097 273.002 142.663C272.953 142.228 272.764 141.821 272.462 141.499V141.499Z" fill="#2F2E41"/>
<path d="M331.863 276.576C331.857 277.625 331.845 279.094 331.796 280.91C331.79 281.162 331.784 281.419 331.778 281.683C331.698 285.021 331.619 287.821 331.491 290.931C331.485 291.147 331.479 291.357 331.467 291.573C331.296 295.912 331.027 300.965 330.564 308.967C329.704 323.747 328.203 310.999 326.696 316.183C326.623 316.441 326.543 316.747 326.47 317.106C326.242 318.411 325.857 319.685 325.323 320.9C324.524 321.368 323.701 321.817 322.889 322.267C320.577 323.532 318.228 324.748 315.861 325.905C314.532 326.553 313.196 327.188 311.853 327.799C311.64 327.895 311.433 327.991 311.225 328.081C304.352 331.204 297.269 333.86 290.026 336.029C288.611 336.448 287.201 336.856 285.774 337.234C284.285 337.641 282.797 338.025 281.29 338.384C270.08 341.088 258.61 342.613 247.072 342.934C245.517 342.982 243.949 343 242.375 343C241.594 343 240.825 342.994 240.044 342.988C239.806 342.988 239.569 342.982 239.331 342.976C238.641 342.958 237.928 342.946 237.208 342.928C223.286 342.501 209.477 340.319 196.121 336.436L195.553 336.275C194.675 336.011 193.803 335.753 192.93 335.477C188.904 334.225 184.936 332.822 181.028 331.27C178.045 330.089 175.096 328.822 172.182 327.47C172.156 327.463 172.131 327.45 172.109 327.434C171.499 327.158 170.883 326.87 170.273 326.577C170.194 326.535 170.108 326.493 170.023 326.451C167.747 325.36 165.496 324.217 163.27 323.022C161.397 318.797 158.761 317.987 157.126 314.271C156.65 313.167 156.307 312.013 156.101 310.831C156.101 310.819 156.095 310.807 156.095 310.789C156.266 313.019 155.369 306.833 156.089 310.765C156.083 310.693 156.077 310.615 156.071 310.525C156.053 310.309 156.028 310.046 155.992 309.716C153.899 289.643 154.033 266.686 153.124 247.77C153.063 246.547 153 245.376 152.935 244.258C152.917 243.886 152.893 243.52 152.868 243.161C152.911 243.053 152.96 242.939 153.015 242.831C153.026 242.8 153.041 242.77 153.057 242.741C153.075 242.704 153.096 242.668 153.118 242.633C153.13 242.615 153.149 242.591 153.161 242.573C153.17 242.553 153.18 242.533 153.191 242.513C153.246 242.43 153.307 242.34 153.374 242.256C153.405 242.22 153.429 242.19 153.46 242.16C153.481 242.129 153.506 242.101 153.533 242.076C153.552 242.047 153.574 242.021 153.6 241.998C153.625 241.974 153.649 241.944 153.68 241.914C153.693 241.895 153.709 241.879 153.728 241.866C153.777 241.812 153.83 241.762 153.887 241.716C154.105 241.52 154.337 241.339 154.582 241.177C154.668 241.123 154.759 241.069 154.845 241.009C155.46 240.648 156.107 240.343 156.779 240.098C157.01 240.014 157.242 239.936 157.492 239.852C157.584 239.828 157.669 239.798 157.761 239.768C157.895 239.726 158.029 239.684 158.17 239.654C158.865 239.451 159.615 239.277 160.427 239.115C160.524 239.097 160.628 239.079 160.732 239.055C160.878 239.025 161.031 239.001 161.183 238.977C161.391 238.941 161.604 238.905 161.818 238.869C163.629 238.588 165.685 238.378 167.955 238.24C168.168 238.228 168.382 238.216 168.595 238.204C168.845 238.192 169.096 238.18 169.352 238.168C169.565 238.156 169.785 238.15 170.004 238.144C170.218 238.132 170.438 238.126 170.663 238.12C171.279 238.102 171.914 238.084 172.561 238.072C174.403 238.036 176.343 238.048 178.38 238.09C179.326 238.114 180.29 238.138 181.278 238.18C181.345 238.18 181.406 238.186 181.467 238.186C182.328 238.216 183.194 238.252 184.084 238.3C184.707 238.33 185.335 238.36 185.963 238.396C186.555 238.432 187.153 238.468 187.757 238.51C188.227 238.534 188.696 238.57 189.172 238.6C189.575 238.629 189.978 238.659 190.38 238.683L190.929 238.719C191.228 238.743 191.527 238.761 191.832 238.791C192.503 238.845 193.174 238.899 193.857 238.953C194.535 239.013 195.224 239.073 195.913 239.133C196.603 239.193 197.298 239.259 197.994 239.325C198.067 239.331 198.134 239.337 198.201 239.343C198.835 239.409 199.47 239.469 200.11 239.535C200.257 239.547 200.409 239.559 200.556 239.577C201.167 239.637 201.789 239.707 202.405 239.772C202.595 239.792 202.783 239.811 202.972 239.832C203.455 239.883 203.931 239.928 204.417 239.984C205.058 240.056 205.711 240.122 206.345 240.206C206.839 240.26 207.333 240.314 207.828 240.374C208.602 240.464 209.389 240.56 210.176 240.661C210.475 240.697 210.774 240.733 211.073 240.775C213.318 241.051 215.587 241.357 217.893 241.674C221.389 242.16 224.939 242.687 228.514 243.257C232.095 243.826 235.697 244.428 239.318 245.061C240.233 245.223 241.149 245.384 242.07 245.552C242.485 245.63 242.899 245.708 243.314 245.786C244.022 245.912 244.729 246.044 245.437 246.176C246.145 246.308 246.852 246.439 247.56 246.577C248.402 246.739 249.25 246.901 250.092 247.063C255.637 248.142 261.152 249.292 266.533 250.497C267.417 250.695 268.302 250.899 269.18 251.097C270.937 251.498 272.678 251.906 274.402 252.319C274.878 252.427 275.348 252.541 275.818 252.655C276.989 252.943 278.16 253.23 279.313 253.524L279.515 253.578C280.363 253.782 281.192 253.992 282.022 254.207C283.98 254.711 285.906 255.22 287.799 255.736C289.056 256.077 290.298 256.423 291.527 256.773C293.363 257.294 295.162 257.822 296.913 258.355C297.346 258.487 297.78 258.619 298.207 258.745C299.488 259.134 300.75 259.53 301.977 259.925C302.953 260.237 303.904 260.555 304.844 260.872C305.783 261.19 306.705 261.508 307.607 261.825C308.187 262.029 308.76 262.245 309.334 262.449C310.157 262.749 310.969 263.048 311.762 263.348C312.006 263.438 312.244 263.534 312.482 263.624C312.634 263.69 312.781 263.743 312.927 263.803C313.214 263.917 313.507 264.025 313.787 264.139C314.074 264.247 314.355 264.361 314.635 264.481C314.91 264.589 315.19 264.702 315.459 264.816C315.733 264.924 316.002 265.038 316.27 265.158C316.496 265.248 316.715 265.344 316.929 265.44C317.362 265.626 317.795 265.811 318.216 266.003C318.424 266.099 318.631 266.189 318.838 266.285L319.314 266.501C319.381 266.537 319.448 266.567 319.516 266.597C319.668 266.668 319.827 266.746 319.979 266.818C320.333 266.98 320.681 267.154 321.022 267.316C321.48 267.544 321.925 267.771 322.352 267.993C322.785 268.221 323.206 268.449 323.609 268.67C323.676 268.706 323.737 268.742 323.804 268.778C323.896 268.826 323.987 268.88 324.079 268.928C324.39 269.102 324.689 269.282 324.988 269.456C325.573 269.809 326.129 270.157 326.647 270.504C326.763 270.582 326.873 270.66 326.989 270.732C327.373 271.002 327.739 271.266 328.081 271.535C328.081 271.541 328.081 271.541 328.087 271.541C328.203 271.625 328.313 271.715 328.422 271.799C328.514 271.883 328.611 271.955 328.703 272.039C329.02 272.309 329.313 272.566 329.581 272.83C329.671 272.911 329.757 272.998 329.838 273.088C329.873 273.117 329.906 273.149 329.935 273.184C330.057 273.304 330.167 273.423 330.271 273.543C330.287 273.56 330.301 273.578 330.314 273.597C330.46 273.765 330.594 273.933 330.722 274.101C330.783 274.185 330.85 274.269 330.905 274.353C330.978 274.454 331.052 274.562 331.113 274.664C331.168 274.748 331.216 274.838 331.265 274.922C331.395 275.138 331.505 275.365 331.595 275.599C331.663 275.758 331.718 275.923 331.759 276.091C331.806 276.25 331.84 276.412 331.863 276.576V276.576Z" fill="#2F2E41"/>
<path opacity="0.2" d="M331.863 276.577C331.857 277.625 331.845 279.094 331.796 280.91C331.79 281.162 331.777 281.419 331.771 281.683C331.71 284.231 331.619 287.377 331.491 290.932C331.485 291.147 331.478 291.357 331.466 291.573C331.295 295.912 331.027 300.965 330.563 308.967C329.703 323.748 328.203 310.999 326.696 316.184C322.511 313.654 317.923 311.005 313.018 308.284C312.134 307.792 311.241 307.299 310.34 306.803C300.531 301.427 289.574 295.793 278.136 290.212C277.684 289.991 277.227 289.769 276.775 289.553C250.574 276.828 221.974 264.451 198.805 256.192C194.333 254.597 190.063 253.159 186.049 251.894C177.593 249.239 170.285 247.381 164.66 246.578C158.804 245.738 154.759 246.038 153.124 247.77C153.063 246.548 153 245.377 152.935 244.258C152.911 243.886 152.886 243.521 152.862 243.161C152.899 243.062 152.948 242.968 152.996 242.873C153.003 242.859 153.007 242.845 153.014 242.831C153.026 242.8 153.04 242.77 153.057 242.741C153.075 242.704 153.095 242.668 153.118 242.634C153.138 242.591 153.162 242.551 153.191 242.514C153.246 242.43 153.307 242.34 153.374 242.256C153.424 242.193 153.477 242.133 153.533 242.076C153.552 242.047 153.574 242.021 153.6 241.998C153.624 241.974 153.649 241.944 153.679 241.914C153.692 241.895 153.709 241.879 153.728 241.866C153.776 241.812 153.829 241.762 153.887 241.717C154.104 241.52 154.337 241.339 154.582 241.177C154.668 241.123 154.759 241.069 154.844 241.009C155.459 240.648 156.107 240.343 156.778 240.098C157.01 240.014 157.242 239.936 157.492 239.852C157.584 239.828 157.669 239.799 157.761 239.769C157.895 239.727 158.029 239.685 158.169 239.655C158.865 239.451 159.615 239.277 160.426 239.115C160.67 239.067 160.927 239.019 161.183 238.977C161.39 238.941 161.604 238.905 161.817 238.87C163.629 238.588 165.685 238.378 167.954 238.24C168.168 238.228 168.382 238.216 168.595 238.204C168.845 238.192 169.095 238.18 169.351 238.168C169.565 238.156 169.785 238.15 170.004 238.144C170.218 238.132 170.437 238.126 170.663 238.12C171.279 238.102 171.914 238.084 172.56 238.072C174.403 238.042 176.343 238.054 178.38 238.096C179.326 238.114 180.29 238.144 181.278 238.186C181.339 238.186 181.406 238.192 181.467 238.192C182.327 238.216 183.2 238.258 184.084 238.3C184.706 238.33 185.335 238.36 185.963 238.396C186.555 238.432 187.153 238.468 187.757 238.51C188.226 238.534 188.696 238.57 189.172 238.6C189.575 238.63 189.977 238.66 190.38 238.684C190.862 238.72 191.344 238.756 191.832 238.792C192.503 238.846 193.174 238.899 193.857 238.953C194.534 239.013 195.224 239.073 195.913 239.133C196.602 239.193 197.298 239.259 197.993 239.325C198.067 239.331 198.134 239.337 198.201 239.343C198.835 239.409 199.47 239.469 200.11 239.535C203.661 239.888 207.315 240.302 211.073 240.776C213.318 241.057 215.591 241.359 217.893 241.681C221.389 242.166 224.939 242.694 228.514 243.257C232.095 243.826 235.696 244.428 239.318 245.061C240.233 245.223 241.148 245.385 242.069 245.553C243.192 245.756 244.314 245.964 245.437 246.176C246.145 246.308 246.852 246.44 247.56 246.578C248.402 246.739 249.25 246.901 250.092 247.063C255.637 248.142 261.152 249.293 266.533 250.497C267.417 250.695 268.302 250.899 269.18 251.097C270.937 251.498 272.678 251.906 274.402 252.32C274.878 252.433 275.348 252.547 275.817 252.661C276.995 252.949 278.16 253.237 279.313 253.524V253.53C279.38 253.542 279.447 253.56 279.514 253.578C280.356 253.788 281.192 253.998 282.022 254.214C283.98 254.717 285.906 255.225 287.799 255.736C289.056 256.084 290.3 256.425 291.526 256.773C293.363 257.3 295.162 257.828 296.913 258.355C297.346 258.487 297.779 258.619 298.206 258.745C299.487 259.141 300.744 259.534 301.976 259.926C302.953 260.237 303.904 260.555 304.844 260.873C305.783 261.19 306.704 261.508 307.607 261.826C308.193 262.03 308.766 262.239 309.334 262.443C310.163 262.743 310.969 263.042 311.762 263.348C312.006 263.438 312.244 263.534 312.481 263.624C312.927 263.792 313.36 263.966 313.787 264.139C314.074 264.247 314.354 264.361 314.635 264.481C314.909 264.589 315.19 264.703 315.459 264.817C315.733 264.925 316.001 265.038 316.27 265.158C316.496 265.248 316.715 265.344 316.929 265.44C317.362 265.626 317.795 265.812 318.216 266.003C318.423 266.099 318.631 266.189 318.838 266.285L319.314 266.501C319.381 266.537 319.448 266.567 319.515 266.597C320.034 266.837 320.534 267.076 321.022 267.316C321.48 267.544 321.925 267.772 322.352 267.993C322.858 268.257 323.34 268.515 323.804 268.779C323.896 268.826 323.987 268.88 324.079 268.928C324.39 269.102 324.689 269.282 324.988 269.456C325.573 269.809 326.128 270.157 326.647 270.505C327.159 270.852 327.635 271.194 328.08 271.536C328.08 271.542 328.08 271.542 328.087 271.542C328.3 271.709 328.508 271.877 328.703 272.039C329.02 272.309 329.313 272.567 329.581 272.83C329.671 272.912 329.757 272.998 329.837 273.088C329.873 273.117 329.906 273.149 329.935 273.184C330.063 273.322 330.191 273.46 330.313 273.598C330.46 273.765 330.594 273.933 330.722 274.101C330.783 274.185 330.85 274.269 330.905 274.353C330.978 274.455 331.051 274.563 331.112 274.664C331.167 274.748 331.216 274.838 331.265 274.922C331.394 275.138 331.505 275.365 331.594 275.599C331.661 275.759 331.716 275.923 331.759 276.091C331.805 276.25 331.84 276.412 331.863 276.577V276.577Z" fill="black"/>
</g>
<defs>
<clipPath id="clip0_509_169">
<rect width="480" height="343" fill="white"/>
</clipPath>
</defs>
</svg>
